<svg xmlns="http://www.w3.org/2000/svg" viewBox="0 0 100 100"><g id="Vrstva_1" data-name="Vrstva 1"><path class="cls-1" d="M75.48,45.92c-2.69-2-6-2.61-9.87-1.69a17.5,17.5,0,0,1-2.31.43l-1-2.71a13.68,13.68,0,0,0,2.74.27,13.12,13.12,0,0,0,7.06-2,11.4,11.4,0,0,0,5.44-8.14A1,1,0,0,0,76.66,31c-.12,0-11.42-.95-15.21,8.48L59.82,34.9a1,1,0,0,0-1.89.68l3.24,9.07a10.59,10.59,0,0,1-1.48-.34,15.85,15.85,0,0,0-3.49-.68l-.41,0c0-.1,0-.21,0-.31a67.22,67.22,0,0,0-2.61-18.09,1,1,0,0,0-1-.71H23a1,1,0,0,0-1,.71A66.82,66.82,0,0,0,19.38,43.3c0,15,4.05,26.25,11.11,30.85a1,1,0,0,0,.55.16h13.1a1,1,0,0,0,.54-.16,17.25,17.25,0,0,0,4-3.73A19.17,19.17,0,0,0,61.75,75.5c10.41,0,18.87-8.14,18.87-18.14A14.72,14.72,0,0,0,75.48,45.92Zm-.13-13a9.81,9.81,0,0,1-4.29,5.55,11.51,11.51,0,0,1-7.69,1.57C66,33.72,72.68,33,75.35,33ZM23.7,26.51H51.48A58.19,58.19,0,0,1,53,33.34H22.21A56.28,56.28,0,0,1,23.7,26.51Zm20.13,45.8H31.34c-6.33-4.33-10-14.88-10-29a65.18,65.18,0,0,1,.55-8H53.24a63.23,63.23,0,0,1,.55,8v.27a11.34,11.34,0,0,0-8,4.41,14.79,14.79,0,0,0-3.1,9.33,17.69,17.69,0,0,0,4.49,11.74A15.72,15.72,0,0,1,43.83,72.31Zm17.92,1.18c-9.31,0-16.87-7.23-16.87-16.13a12.82,12.82,0,0,1,2.66-8.07A9.3,9.3,0,0,1,56,45.63a14.79,14.79,0,0,1,3.11.61c1.65.47,3.07.87,6.94-.05,3.24-.78,6-.33,8.14,1.29a12.76,12.76,0,0,1,4.4,9.88C78.62,66.26,71.05,73.49,61.75,73.49Z"/></g></svg>