<?xml version="1.0" encoding="utf-8"?>
<!-- Generator: Adobe Illustrator 25.2.3, SVG Export Plug-In . SVG Version: 6.00 Build 0)  -->
<svg version="1.1" id="Layer_1" xmlns="http://www.w3.org/2000/svg" xmlns:xlink="http://www.w3.org/1999/xlink" x="0px" y="0px"
	 viewBox="0 0 830.9 153.3" style="enable-background:new 0 0 830.9 153.3;" xml:space="preserve">
<style type="text/css">
	.st0{fill:#FFFFFF;}
</style>
<g>
	<g>
		<path class="st0" d="M808.7,65.8c0,0.7-0.1,1.4-0.1,2.1s0,1.5-0.1,2.2c-0.1,2.1-0.2,4.2-0.3,6.3c-0.1,2.1-0.2,4.2-0.3,6.3
			c-0.1,1.7-0.1,3.4-0.1,5.1s-0.1,3.4-0.2,5.1c-0.1,2.3-0.3,4.6-0.4,6.9c-0.1,2.3-0.4,4.6-0.6,6.9c-0.3,2.6-0.8,5.2-1.6,7.6
			c-0.4,1.5-1,2.8-1.6,4.1c-0.7,1.3-1.6,2.5-2.7,3.5c-1.2,1-2.5,1.8-3.8,2.3s-2.8,0.6-4.4,0.3c-2.4-0.4-4.4-1.6-6-3.4
			c-1.8-2-3-4.2-3.7-6.6s-0.8-4.9-0.1-7.6c0.1-0.2,0.1-0.4,0.2-0.6c0.1-0.2,0.1-0.4,0-0.6s-0.1-0.4-0.2-0.6
			c-0.1-0.2-0.2-0.4-0.4-0.5c-0.1-0.1-0.3-0.1-0.5,0s-0.4,0.1-0.6,0.2c-0.2,0.2-0.5,0.4-0.7,0.5s-0.4,0.4-0.6,0.5
			c-0.6,0.5-1.1,0.9-1.7,1.4c-0.6,0.4-1,1-1.4,1.6c-0.3,0.5-0.6,1-0.9,1.5s-0.6,1-0.7,1.6c-0.3,1.2-0.5,2.4-0.5,3.6s0.2,2.4,0.6,3.6
			c0.8,2.5,1.8,4.8,3.2,6.9c1.3,2.1,3.1,3.9,5.2,5.5c1.9,1.5,4,2.5,6.1,3.1s4.4,0.7,6.8,0.2c4.6-0.9,8.6-3,12.1-6.2
			c1.2-1.2,2.3-2.4,3.2-3.8c0.9-1.3,1.7-2.8,2.3-4.3c0.5-1.2,0.9-2.4,1.3-3.5c0.4-1.2,0.7-2.4,1-3.6c0.4-2,0.7-4.1,1-6.1
			s0.4-4.1,0.5-6.2c0.2-3.7,0.2-7.3,0.2-11c-0.1-3.6-0.2-7.3-0.4-11c-0.2-3-0.4-6-0.6-8.9c-0.3-2.9-0.7-5.9-1.4-8.8
			c-0.2-0.7-0.4-1.4-0.6-2.1c-0.2-0.7-0.5-1.4-0.7-2.1c-0.3-0.6-0.7-0.9-1.2-1.1c-0.5-0.1-1.1,0-1.6,0.3c-0.6,0.3-1.1,0.6-1.6,0.8
			c-0.6,0.2-1.1,0.5-1.7,0.8c-0.5,0.3-1,0.7-1.4,1.2c-0.3,0.3-0.6,0.6-0.8,1c-0.3,0.3-0.5,0.7-0.8,1c-1.8,2.4-3.3,5-4.5,7.6
			c-1.2,2.7-2.4,5.4-3.5,8.1c-0.7,1.6-1.3,3.3-1.8,4.9s-1.1,3.2-1.7,4.9c-0.1,0.1-0.1,0.3-0.2,0.4c-0.1,0.1-0.1,0.3-0.3,0.5
			c-0.2-0.5-0.3-0.9-0.5-1.3c-0.1-0.4-0.2-0.8-0.3-1.2c-0.4-1.8-0.7-3.5-1-5.3c-0.3-1.7-0.6-3.5-0.7-5.3c-0.1-1.5-0.2-3-0.4-4.6
			c-0.1-1.5-0.3-3-0.4-4.6c-0.1-1.6-0.3-3.1-0.6-4.6c-0.2-1.5-0.7-3-1.5-4.4c-0.5-0.8-1-1.4-1.7-1.8c-0.6-0.4-1.2-0.5-1.7-0.3
			s-0.9,0.6-1.1,1.3c-0.2,0.5-0.3,1-0.3,1.4c-0.1,0.8-0.1,1.7-0.2,2.5c-0.1,0.8-0.1,1.7-0.1,2.6c0,1.8,0,3.6,0.1,5.4
			s0.2,3.6,0.4,5.4c0.2,1.9,0.4,3.8,0.5,5.6c0.2,1.9,0.5,3.7,1,5.6c0.4,1.3,0.7,2.7,1.1,4c0.4,1.3,0.9,2.6,1.6,3.9
			c0.8,1.4,1.8,2.4,3.2,2.8c0.4,0.1,0.8,0.3,1.1,0.5c0.4,0.2,0.8,0.2,1.3,0c0.9-0.4,1.6-0.8,2.3-1.3c0.6-0.5,1.2-1.2,1.5-2.1
			c0.4-0.8,0.7-1.5,1-2.3s0.6-1.5,0.9-2.3c0.4-0.9,0.7-1.8,0.9-2.7c0.3-0.9,0.6-1.8,1-2.7c0.8-1.9,1.6-3.8,2.4-5.7
			c0.8-1.9,1.6-3.8,2.5-5.6c0.4-0.9,0.9-1.8,1.4-2.7c0.5-0.8,1.1-1.7,1.6-2.6C808.5,65.7,808.5,65.7,808.7,65.8 M776.1,87.8
			c-0.4-0.4-0.8-0.7-1.2-1c-0.4-0.4-0.8-0.7-1.3-0.9c-1.1-0.7-2.2-1.4-3.3-2.2c-1.1-0.7-2.2-1.4-3.3-2.1c-1.5-1-3-2-4.5-3
			s-3-1.9-4.6-2.9c-1.7-1.1-3.5-2.2-5.2-3.2c-1.7-1.1-3.5-2.1-5.2-3.2c-0.1-0.1-0.4-0.3-0.7-0.6c0.6-0.2,1.1-0.3,1.5-0.5
			c0.5-0.1,0.9-0.3,1.4-0.5c1.9-0.7,3.8-1.4,5.6-2.1c1.9-0.7,3.8-1.4,5.6-2.2c0.8-0.3,1.6-0.6,2.4-0.9s1.5-0.7,2.3-1
			c0.6-0.3,1.1-0.7,1.6-1.1c0.5-0.4,0.8-1,1.1-1.7c-0.7-0.8-1.6-1.1-2.7-0.8c-1.6,0.5-3.2,1-4.8,1.4c-1.6,0.5-3.2,0.9-4.8,1.4
			c-2.2,0.6-4.3,1.3-6.4,1.9c-2.1,0.6-4.3,1.3-6.4,1.8c-0.7,0.2-1.4,0.4-2.1,0.5c-0.7,0.1-1.5,0.2-2.3,0.4c-0.1-0.3-0.1-0.6-0.2-0.9
			c0-0.3-0.1-0.6-0.1-0.8c-0.4-2.6-0.8-5.2-1.1-7.8c-0.4-2.6-0.8-5.2-1.2-7.8c-0.3-1.8-0.6-3.5-0.9-5.2c-0.4-1.7-0.8-3.4-1.4-5.1
			c-0.4-1.1-0.8-2.2-1.3-3.2c-0.5-1.1-1.2-2-2.1-2.8c-1-0.9-2.2-1.4-3.6-1.5c-1.2,0-1.9,0.6-2.1,1.8c-0.2,1.3-0.3,2.6-0.3,3.9
			c0,1.3,0.1,2.6,0.3,3.9c0.2,1.7,0.4,3.3,0.6,4.9c0.2,1.6,0.4,3.2,0.6,4.8c0.3,2.4,0.6,4.7,0.9,7.1c0.3,2.3,0.6,4.7,0.9,7.1
			c0.4,3.2,0.8,6.3,1.3,9.3c0.4,2.6,0.8,5.2,1.2,7.8c0.4,2.6,0.8,5.3,1.2,7.9c0.3,1.7,0.5,3.4,0.7,5.2c0.2,1.7,0.4,3.4,0.7,5.2
			c0.2,1.5,0.5,2.9,0.9,4.2c0.4,1.4,0.9,2.7,1.7,3.9c0.1,0.2,0.2,0.3,0.3,0.5c0.1,0.1,0.2,0.3,0.3,0.4c1.2,0.2,2.3,0.1,3.3-0.1
			c0.9-0.2,1.8-0.6,2.6-1.2s1.4-1.6,1.8-3.1c-0.1-1.3-0.1-2.5-0.1-3.8s-0.1-2.5-0.3-3.8c-0.4-3.2-0.8-6.4-1.3-9.5
			c-0.5-3.2-0.9-6.3-1.4-9.6c-0.1-0.7-0.2-1.5-0.3-2.2s-0.2-1.5-0.4-2.2c0.5-0.1,0.8,0,1.1,0.1c0.3,0.2,0.6,0.3,0.9,0.5
			c2.4,1.5,4.7,3,7,4.5s4.7,3,7,4.4c2.2,1.3,4.5,2.7,6.7,4.1c2.2,1.3,4.5,2.7,6.7,4c0.8,0.5,1.7,0.9,2.5,1.4
			c0.8,0.4,1.7,0.9,2.5,1.4c0.7,0.2,1.2,0.2,1.7,0.1c0.4-0.1,0.8-0.4,1.1-0.8s0.4-1.2,0.3-2.2C777.4,89.2,776.8,88.5,776.1,87.8
			 M727.3,63.8c0-1-0.2-1.9-0.6-2.8c-0.3-0.6-0.7-1.2-1.3-1.7c-0.5-0.5-1.1-1-1.6-1.5c-1-0.8-2.1-1.5-3.3-1.9s-2.4-0.7-3.6-0.9
			c-0.7-0.1-1.5-0.2-2.2-0.2c-0.8-0.1-1.5,0-2.2,0.1c-3.3,0.6-6.1,1.9-8.3,3.8c-2.2,2-4.1,4.4-5.6,7.3c-0.9,1.7-1.6,3.5-2.2,5.3
			c-0.6,1.8-1.1,3.6-1.5,5.5c-0.6,2.6-1,5.1-1.3,7.7s-0.3,5.2,0.1,7.8c0.3,2.4,0.8,4.6,1.7,6.7s2.2,4,4,5.6c2.5,2.4,5,3.6,7.8,3.7
			c2.7,0.1,5.4-0.8,8.1-2.8c1.1-0.8,2.1-1.7,3-2.8c0.9-1.1,1.6-2.2,2.3-3.4c0.6-1.1,1.1-2.2,1.5-3.4c0.4-1.2,0.8-2.4,1.2-3.6
			c0.2-0.5,0.2-0.9,0.2-1.3s-0.1-0.9-0.3-1.3c-0.1-0.5-0.4-0.8-0.8-0.9c-0.4-0.1-0.8,0-1.2,0.3c-0.5,0.5-0.9,1-1.2,1.5
			s-0.6,1.2-0.8,1.7c-0.3,0.6-0.5,1.1-0.8,1.7c-0.2,0.6-0.5,1.1-0.8,1.6c-0.5,0.7-0.9,1.3-1.5,2c-0.5,0.6-1.2,1.1-1.9,1.5
			c-0.2,0.1-0.5,0.2-1,0.3s-1,0.1-1.5,0.1s-1,0-1.5-0.1c-0.4-0.1-0.8-0.1-0.9-0.3c-0.5-0.4-0.8-0.7-1.1-1.1s-0.7-0.8-1-1.2
			c-0.9-1-1.4-2-1.5-3.2c-0.2-1.2-0.3-2.4-0.4-3.6c-0.3-2.4-0.3-4.8-0.1-7.1s0.5-4.7,1-7.1c0.4-2.6,1.3-5,2.5-7.2s2.5-4.4,4-6.5
			c0.1-0.1,0.3-0.3,0.6-0.4c0.3-0.1,0.7-0.2,1-0.3c0.4-0.1,0.8-0.2,1.1-0.2c0.4-0.1,0.6-0.1,0.9-0.1c0.4,0,0.8,0.1,1.1,0.1
			c0.4,0,0.7,0.1,1.1,0.1c1.1,0.3,2.1,0.8,3,1.5s1.7,1.4,2.6,2.2c0.1,0.1,0.1,0.2,0.2,0.4c0.2,0.4,0.3,0.6,0.4,0.8
			c0.1,0.2,0.2,0.3,0.4,0.4c0.1,0.1,0.3,0.1,0.6,0.1c0.2,0,0.5,0,0.9-0.1C726.9,65.6,727.3,64.7,727.3,63.8 M665.9,85.9
			c-0.1-0.4-0.1-0.7-0.1-1.1c-0.1-1.4,0-2.8,0.1-4.1c0.1-1.3,0.3-2.7,0.6-4.1c0.5-2.5,1.3-4.9,2.4-7.1c0.7-1.3,1.5-2.5,2.5-3.6
			s2.2-1.9,3.5-2.6c1.6-0.8,3.1-0.9,4.6-0.6c1.5,0.4,2.8,1.3,3.9,2.6c0.6,0.7,1,1.4,1.1,2.2s0.2,1.6,0,2.5c-0.3,1.9-0.9,3.7-1.7,5.4
			c-0.8,1.7-2,3.2-3.4,4.5c-0.7,0.7-1.4,1.3-2.1,1.9c-0.7,0.6-1.5,1.2-2.3,1.8c-1,0.7-2,1.4-3.1,1.9s-2.2,0.9-3.5,1.2
			c-0.4,0.1-0.7,0.2-1.1,0.2c-0.4,0-0.8,0.1-1.2,0.1C666,86.7,665.9,86.3,665.9,85.9 M690.2,86c-0.1-0.3-0.3-0.5-0.6-0.7
			s-0.7-0.3-1.1-0.3c-0.7,0.1-1.2,0.4-1.6,0.8c-0.4,0.4-0.7,1-1,1.6c-0.5,1.3-1.1,2.6-1.8,3.9s-1.4,2.5-2.2,3.7
			c-0.6,0.9-1.2,1.8-1.8,2.6c-0.7,0.8-1.4,1.6-2.2,2.3c-0.4,0.3-0.8,0.5-1.1,0.8s-0.8,0.3-1.3,0.3c-1.2-0.1-2.3-0.3-3.3-0.8
			s-1.9-1.1-2.7-2c-0.9-1.1-1.7-2.3-2.1-3.6c-0.5-1.3-0.8-2.7-1.1-4.2C666.8,90,667,90,667,90c1.9-0.1,3.6-0.4,5.3-1
			c1.6-0.6,3.2-1.4,4.8-2.5c1.1-0.7,2.1-1.5,3.1-2.4c1-0.8,1.9-1.7,2.9-2.6c3.2-3.1,5.3-6.8,6.1-11.1c0.2-1.3,0.3-2.6,0.1-3.9
			s-0.6-2.4-1.3-3.5s-1.4-2.2-2.2-3.1c-0.8-1-1.7-1.8-2.8-2.5c-0.3-0.2-0.6-0.4-0.9-0.6c-0.3-0.2-0.6-0.4-0.9-0.6
			c-1.1-0.8-2.3-1.3-3.5-1.5s-2.5-0.3-3.7-0.2c-1.1,0.1-2.2,0.3-3.2,0.6c-1.1,0.3-2.1,0.8-3.1,1.3c-1.2,0.6-2.3,1.3-3.3,2.2
			c-1,0.8-1.9,1.7-2.8,2.8c-1.4,1.7-2.5,3.5-3.4,5.5c-0.8,1.9-1.6,4-2.2,6c-0.4,1.4-0.7,2.8-1,4.3c-0.2,1.4-0.4,2.9-0.5,4.3
			s-0.1,2.8-0.1,4.2c0,1.4,0.1,2.8,0.2,4.2c0.2,1.8,0.5,3.6,1,5.3c0.5,1.7,1.1,3.4,2,5.1c1.2,2.3,2.7,4.1,4.6,5.5
			c1.8,1.3,4.1,2.2,6.7,2.5c2.5,0.3,4.7,0,6.6-1c1.9-0.9,3.6-2.3,5.2-4.1c1-1.1,2-2.3,2.8-3.6c0.9-1.2,1.7-2.5,2.4-3.9
			c0.8-1.4,1.5-2.8,2.2-4.3c0.7-1.4,1.3-2.9,2-4.3C690.3,86.7,690.4,86.3,690.2,86 M637.7,64.4c0-0.4,0.1-0.8,0.3-1.2
			c0.8-1.8,1.6-3.6,2.5-5.4c0.8-1.8,1.8-3.5,2.9-5.2c0.3-0.5,0.6-1,0.9-1.4c0.3-0.5,0.6-0.9,0.9-1.3c0.7-1,1.4-2,2.2-2.9
			c0.8-1,1.7-1.8,2.6-2.6c0.8-0.7,1.6-1.3,2.5-1.9c0.3-0.1,0.6-0.3,0.8-0.3c0.3-0.1,0.6-0.1,0.9,0c0.6,0.2,1,0.6,1.1,1.1
			c0.1,0.3,0.1,0.6,0.1,0.8c0,0.3,0.1,0.5,0.1,0.8c0,1.1-0.1,2.1-0.2,3.2c-0.1,1.1-0.3,2.1-0.7,3.1c-0.2,0.7-0.5,1.3-0.8,1.9
			c-0.3,0.6-0.6,1.2-1,1.8c-0.5,0.7-1,1.3-1.5,2c-0.5,0.6-1,1.2-1.7,1.8c-0.4,0.4-0.8,0.8-1.2,1.1c-0.4,0.4-0.8,0.7-1.3,0.9
			c-1,0.6-1.9,1.2-2.9,1.7c-1,0.6-2,1.1-3,1.7c-0.6,0.3-1.1,0.6-1.7,0.9c-0.6,0.3-1.2,0.5-1.8,0.8C637.8,65.3,637.7,64.8,637.7,64.4
			 M637,58.4c-0.1-0.6-0.2-1.2-0.3-1.8s-0.2-1.2-0.3-1.8c-0.2-0.9-0.4-1.7-0.5-2.6c-0.2-0.8-0.4-1.7-0.5-2.6
			c-0.2-0.8-0.4-1.5-0.6-2.1c-0.6-1.4-1.7-2.2-3.2-2.2c-0.6,0-0.9,0.2-1,0.6c-0.1,0.3-0.2,0.6-0.3,0.9c-0.1,0.3-0.1,0.6-0.2,0.9
			c0,0.6-0.1,1.3-0.1,1.9s0,1.3,0.1,1.9c0.1,1.7,0.1,3.3,0.3,5c0.1,1.7,0.2,3.4,0.3,5c0.1,1.9,0.3,3.7,0.4,5.6
			c0.1,1.9,0.2,3.7,0.4,5.6c0.1,1.1,0.1,2.3,0.2,3.4c0.1,1.1,0.2,2.3,0.3,3.4s0.2,2.2,0.4,3.4c0.1,1.1,0.3,2.2,0.4,3.4l0.3,2.2
			c0.2,1.1,0.3,2.3,0.4,3.4s0.3,2.2,0.4,3.4c0.1,0.8,0.2,1.5,0.4,2.2s0.3,1.5,0.4,2.2c0.1,1.2,0.3,2.4,0.6,3.5s0.7,2.2,1.3,3.2
			c0.2,0.4,0.5,0.7,0.9,0.9c0.3,0.2,0.7,0.4,1.1,0.6c0.4,0.2,0.7,0,0.9-0.4c0.1-0.2,0.1-0.3,0.2-0.5c0.1-0.2,0.2-0.3,0.2-0.5
			c0.2-0.5,0.4-1,0.6-1.5c0.2-0.5,0.4-1,0.6-1.5c0.1-0.6,0.2-1.2,0.3-1.8c0-0.6,0.1-1.2,0.1-1.8c0-0.9,0-1.8-0.1-2.7
			c-0.1-0.9-0.1-1.8-0.2-2.7c-0.2-1.5-0.3-3-0.5-4.4c-0.1-1.5-0.3-2.9-0.5-4.4s-0.4-3-0.6-4.4s-0.5-2.9-0.6-4.4
			c-0.1-0.8-0.2-1.7-0.3-2.5s-0.1-1.7-0.2-2.5c0-0.4-0.1-0.8-0.1-1.1c0-0.4-0.1-0.8-0.1-1.1c0.2-0.1,0.3-0.2,0.4-0.3
			c0.8-0.2,1.6-0.5,2.3-0.7s1.5-0.5,2.3-0.7c1.6-0.5,3-1.1,4.4-1.9s2.7-1.7,4-2.7c1.4-1.1,2.7-2.3,3.9-3.6s2.2-2.7,3.2-4.3
			c0.1-0.2,0.2-0.4,0.3-0.5c0.1-0.2,0.2-0.4,0.3-0.5c0.4-1.2,0.7-2.4,0.9-3.6c0.2-1.2,0.2-2.4,0.1-3.7c-0.1-1.1-0.3-2.2-0.5-3.2
			s-0.6-2.1-1.2-3.1c-0.6-1-1.4-1.7-2.5-2.2c-1-0.4-2.1-0.4-3.2,0c-1.5,0.6-2.8,1.4-4,2.5c-2.8,2.5-5.2,5.3-7,8.6
			c-0.8,1.4-1.6,2.8-2.3,4.2s-1.4,2.9-2,4.4c-0.1,0.1-0.1,0.3-0.2,0.4c-0.1,0.1-0.1,0.3-0.2,0.4C637.1,58.8,637,58.6,637,58.4
			 M576.3,85.9c-0.1-0.4-0.1-0.7-0.1-1.1c-0.1-1.4,0-2.8,0.1-4.1c0.1-1.3,0.3-2.7,0.6-4.1c0.5-2.5,1.3-4.9,2.4-7.1
			c0.7-1.3,1.5-2.5,2.5-3.6s2.2-1.9,3.5-2.6c1.6-0.8,3.1-0.9,4.6-0.6c1.5,0.4,2.8,1.3,3.9,2.6c0.6,0.7,1,1.4,1.1,2.2s0.2,1.6,0,2.5
			c-0.3,1.9-0.9,3.7-1.7,5.4c-0.8,1.7-2,3.2-3.4,4.5c-0.7,0.7-1.4,1.3-2.1,1.9c-0.7,0.6-1.5,1.2-2.3,1.8c-1,0.7-2,1.4-3.1,1.9
			s-2.2,0.9-3.5,1.2c-0.4,0.1-0.7,0.2-1.1,0.2c-0.4,0-0.8,0.1-1.2,0.1C576.4,86.7,576.4,86.3,576.3,85.9 M600.7,86
			c-0.1-0.3-0.3-0.5-0.6-0.7S599.4,85,599,85c-0.7,0.1-1.2,0.4-1.6,0.8c-0.4,0.4-0.7,1-1,1.6c-0.5,1.3-1.1,2.6-1.8,3.9
			s-1.4,2.5-2.2,3.7c-0.6,0.9-1.2,1.8-1.8,2.6c-0.7,0.8-1.4,1.6-2.2,2.3c-0.4,0.3-0.8,0.5-1.1,0.8s-0.8,0.3-1.3,0.3
			c-1.2-0.1-2.3-0.3-3.3-0.8s-1.9-1.1-2.7-2c-0.9-1.1-1.6-2.3-2.1-3.6c-0.5-1.3-0.8-2.7-1.1-4.2c0.3-0.1,0.4-0.1,0.5-0.1
			c1.9-0.1,3.6-0.4,5.3-1c1.6-0.6,3.2-1.4,4.8-2.5c1.1-0.7,2.1-1.5,3.1-2.4c1-0.8,1.9-1.7,2.9-2.6c3.2-3.1,5.3-6.8,6.1-11.1
			c0.2-1.3,0.3-2.6,0.1-3.9s-0.6-2.4-1.3-3.5s-1.4-2.2-2.2-3.1c-0.8-1-1.7-1.8-2.8-2.5c-0.3-0.2-0.6-0.4-0.9-0.6
			c-0.3-0.2-0.6-0.4-0.9-0.6c-1.1-0.8-2.3-1.3-3.5-1.5s-2.5-0.3-3.7-0.2c-1.1,0.1-2.2,0.3-3.3,0.6s-2.1,0.8-3.1,1.3
			c-1.2,0.6-2.3,1.3-3.3,2.2c-1,0.8-1.9,1.7-2.8,2.8c-1.4,1.7-2.5,3.5-3.4,5.5c-0.8,1.9-1.6,4-2.2,6c-0.4,1.4-0.7,2.8-1,4.3
			c-0.2,1.4-0.4,2.9-0.5,4.3s-0.1,2.8-0.1,4.2c0,1.4,0.1,2.8,0.2,4.2c0.2,1.8,0.5,3.6,1,5.3c0.5,1.7,1.1,3.4,2,5.1
			c1.2,2.3,2.7,4.1,4.6,5.5c1.8,1.3,4.1,2.2,6.7,2.5c2.5,0.3,4.7,0,6.6-1c1.9-0.9,3.6-2.3,5.2-4.1c1-1.1,2-2.3,2.8-3.6
			c0.9-1.2,1.7-2.5,2.4-3.9c0.8-1.4,1.5-2.8,2.2-4.3c0.7-1.4,1.3-2.9,2-4.3C600.8,86.7,600.8,86.3,600.7,86 M537.2,89.4
			c-0.1-0.5-0.1-1-0.1-1.4c0-0.5-0.1-0.9-0.1-1.4c-0.1-1.6-0.1-3.1-0.2-4.7s-0.1-3.1-0.2-4.7c-0.1-1.5-0.1-2.9-0.2-4.3
			c-0.1-1.4-0.2-2.9-0.2-4.3c0-1-0.1-2-0.2-2.9c-0.1-0.9-0.2-1.9-0.4-2.9c-0.1-0.7-0.2-1.4-0.3-2s-0.2-1.3-0.3-2
			c-0.1-0.6-0.2-1.1-0.4-1.6s-0.4-0.9-0.8-1.4c-0.3-0.5-0.7-0.8-1.1-0.9c-0.4-0.1-0.9-0.1-1.3-0.1c-0.6,0-1,0.3-1.4,0.9
			c-0.4,0.5-0.7,1.1-0.8,1.7c-0.2,0.6-0.3,1.2-0.4,1.8c-0.2,2.1-0.4,4.2-0.5,6.1c-0.1,1.6-0.1,3.2-0.2,4.7c-0.1,1.6-0.1,3.1-0.1,4.7
			c0,2,0,4,0,6s0.1,4,0.2,6c0.1,1.7,0.3,3.3,0.5,5s0.4,3.3,0.6,5c0.2,1.5,0.4,2.9,0.7,4.3s0.7,2.8,1.3,4.2c0.4,0.9,1,1.8,1.7,2.6
			c0.2,0.2,0.4,0.3,0.6,0.3c0.2,0,0.5,0,0.8,0s0.6,0,0.8,0c0.3,0,0.5-0.1,0.8-0.2c0.3-0.2,0.5-0.3,0.7-0.5c0.1-0.1,0.3-0.4,0.4-0.6
			c0.3-0.6,0.6-1.2,0.7-1.9c0.1-0.4,0.2-0.8,0.3-1.3c0-0.4,0.1-0.9,0.1-1.3c0.1-0.5,0.2-1,0.3-1.5s0.2-1,0.3-1.5
			c0.2-1,0.3-2.1,0.4-3.2c0.1-1.1,0.2-2.1,0.5-3.1c0.2-0.7,0.4-1.4,0.5-2.1s0.3-1.4,0.6-2.1c0.4-1.3,0.8-2.7,1.3-4.1
			c0.4-1.4,0.9-2.7,1.3-4.1c0.2-0.5,0.4-1.1,0.5-1.6c0.2-0.5,0.4-1.1,0.6-1.5c0.5-1,1-2.1,1.4-3.1c0.5-1,0.9-2.1,1.4-3.1
			c0.3-0.7,0.7-1.5,1.1-2.2c0.4-0.7,0.8-1.3,1.2-2s0.8-1.3,1.2-2c0.4-0.6,0.7-1.2,1-1.8s0.7-1.2,1.1-1.8c0.7-1,1.5-1.8,2.6-2.6
			c0,0.3,0,0.5,0,0.7s0,0.4,0,0.6c-0.1,1.5-0.2,3-0.5,4.5c-0.3,1.5-0.5,3-0.8,4.4c-0.1,0.8-0.3,1.6-0.4,2.4
			c-0.2,0.8-0.3,1.6-0.4,2.4c-0.2,1-0.3,2-0.4,3c-0.1,1-0.2,2-0.3,3c-0.1,1.2-0.2,2.4-0.3,3.6s-0.2,2.4-0.3,3.6
			c-0.1,0.8-0.1,1.5-0.1,2.3s0,1.5,0,2.3c-0.1,3.9,0.2,7.8,0.9,11.6c0,0.1,0.1,0.3,0.1,0.4s0,0.3,0.1,0.4c0.1,0.2,0.1,0.4,0.1,0.5
			c0,0.2,0.1,0.3,0.2,0.5c0.4,0.6,1.1,1,1.8,1.3c0.8,0.2,1.5,0.2,2.2,0c0.5-0.2,0.9-0.4,1.4-0.6s0.8-0.4,1.3-0.6s0.8-0.4,1.2-0.7
			c0.3-0.3,0.5-0.7,0.4-1.3v-0.1c0,0,0,0,0-0.1c0.2-0.3,0.3-0.5,0.3-0.8s-0.1-0.5-0.1-0.8c-0.1-0.4-0.1-0.7-0.2-1s-0.1-0.7-0.2-1.1
			c-0.2-1.2-0.3-2.4-0.4-3.6c-0.1-1.2-0.1-2.4-0.2-3.6c-0.1-2.5-0.1-5.1-0.1-7.6c0.1-2.5,0.2-5.1,0.4-7.6c0.1-1.5,0.2-2.9,0.3-4.4
			s0.2-2.9,0.3-4.4c0.1-1.7,0.2-3.4,0.1-5.1c-0.1-1.7-0.3-3.4-0.6-5.1c-0.1-0.4-0.2-0.8-0.4-1.2c-0.1-0.4-0.4-0.7-0.6-1.1
			c-0.2-0.3-0.4-0.6-0.7-0.8c-0.2-0.3-0.6-0.4-1-0.4s-0.7,0-1-0.1c-0.3,0-0.7-0.1-1.1-0.1c-0.8,0-1.4,0.3-1.8,0.8
			c-0.2,0.3-0.5,0.5-0.7,0.8c-0.2,0.2-0.5,0.5-0.7,0.8c-0.4,0.5-0.8,1-1.3,1.4c-0.4,0.5-0.8,1-1.2,1.5c-0.6,0.8-1.1,1.6-1.6,2.4
			c-0.5,0.8-1,1.6-1.5,2.5c-0.6,1-1.2,2-1.7,3.1c-0.6,1-1.1,2.1-1.6,3.2c-0.6,1.2-1.2,2.4-1.7,3.7c-0.5,1.2-1.1,2.5-1.5,3.7
			c-0.5,1.1-0.9,2.2-1.3,3.4c-0.4,1.1-0.7,2.3-0.9,3.5c-0.2,0.7-0.4,1.4-0.6,2.1c-0.2,0.7-0.4,1.4-0.6,2.1L537.2,89.4L537.2,89.4z
			 M500.5,85.9c-0.1-0.4-0.1-0.7-0.1-1.1c-0.1-1.4,0-2.8,0.1-4.1c0.1-1.3,0.3-2.7,0.6-4.1c0.5-2.5,1.3-4.9,2.4-7.1
			c0.7-1.3,1.5-2.5,2.5-3.6s2.2-1.9,3.5-2.6c1.6-0.8,3.1-0.9,4.6-0.6c1.5,0.4,2.8,1.3,3.9,2.6c0.6,0.7,1,1.4,1.1,2.2s0.2,1.6,0,2.5
			c-0.3,1.9-0.9,3.7-1.7,5.4c-0.8,1.7-2,3.2-3.4,4.5c-0.7,0.7-1.4,1.3-2.1,1.9c-0.7,0.6-1.5,1.2-2.3,1.8c-1,0.7-2,1.4-3.1,1.9
			s-2.2,0.9-3.5,1.2c-0.4,0.1-0.7,0.2-1.1,0.2s-0.8,0.1-1.2,0.1C500.6,86.7,500.5,86.3,500.5,85.9 M524.9,86
			c-0.1-0.3-0.3-0.5-0.6-0.7s-0.7-0.3-1.1-0.3c-0.7,0.1-1.2,0.4-1.6,0.8c-0.4,0.4-0.7,1-1,1.6c-0.5,1.3-1.1,2.6-1.8,3.9
			s-1.4,2.5-2.2,3.7c-0.6,0.9-1.2,1.8-1.8,2.6c-0.7,0.8-1.4,1.6-2.2,2.3c-0.4,0.3-0.8,0.5-1.1,0.8c-0.4,0.2-0.8,0.3-1.3,0.3
			c-1.2-0.1-2.3-0.3-3.3-0.8s-1.9-1.1-2.7-2c-0.9-1.1-1.7-2.3-2.1-3.6c-0.5-1.3-0.8-2.7-1.1-4.2c0.3-0.1,0.4-0.1,0.5-0.1
			c1.9-0.1,3.6-0.4,5.3-1c1.6-0.6,3.2-1.4,4.8-2.5c1.1-0.7,2.1-1.5,3.1-2.4c1-0.8,1.9-1.7,2.9-2.6c3.2-3.1,5.3-6.8,6.1-11.1
			c0.2-1.3,0.3-2.6,0.1-3.9s-0.6-2.4-1.3-3.5s-1.4-2.2-2.2-3.1c-0.8-1-1.7-1.8-2.8-2.5c-0.3-0.2-0.6-0.4-0.9-0.6
			c-0.3-0.2-0.6-0.4-0.9-0.6c-1.1-0.8-2.3-1.3-3.5-1.5s-2.5-0.3-3.7-0.2c-1.1,0.1-2.2,0.3-3.2,0.6c-1.1,0.3-2.1,0.8-3.1,1.3
			c-1.2,0.6-2.3,1.3-3.3,2.2c-1,0.8-1.9,1.7-2.8,2.8c-1.4,1.7-2.5,3.5-3.4,5.5c-0.8,1.9-1.6,4-2.2,6c-0.4,1.4-0.8,2.8-1,4.3
			c-0.2,1.4-0.4,2.9-0.5,4.3s-0.1,2.8-0.1,4.2c0,1.4,0.1,2.8,0.2,4.2c0.2,1.8,0.5,3.6,1,5.3c0.5,1.7,1.1,3.4,2,5.1
			c1.2,2.3,2.7,4.1,4.6,5.5c1.8,1.3,4.1,2.2,6.7,2.5c2.5,0.3,4.7,0,6.6-1c1.9-0.9,3.6-2.3,5.2-4.1c1-1.1,2-2.3,2.8-3.6
			c0.9-1.2,1.7-2.5,2.4-3.9c0.8-1.4,1.5-2.8,2.2-4.3c0.7-1.4,1.3-2.9,2-4.3C525,86.7,525,86.3,524.9,86 M473.1,97.8
			c-0.1-0.1-0.1-0.2-0.1-0.3c-0.7-1.7-1.5-3.3-2.2-4.9s-1.4-3.3-2.1-4.9s-1.3-3.1-1.9-4.6s-1.2-3.1-1.8-4.6c-0.6-1.3-1.2-2.6-1.7-4
			c-0.6-1.3-1.2-2.7-1.7-4c-0.8-1.9-1.6-3.8-2.3-5.7c-0.8-1.9-1.6-3.8-2.5-5.6c-0.4-0.7-0.8-1.4-1.3-2.1c-0.5-0.7-1.1-1.3-1.8-1.7
			c-0.6-0.4-1.2-0.6-1.8-0.3c-0.6,0.2-1,0.7-1.1,1.5c-0.1,0.2-0.1,0.4-0.1,0.5c0,0.2-0.1,0.4-0.2,0.5c-0.1,0.3-0.1,0.5-0.2,0.8
			s-0.1,0.5-0.1,0.8c0,0.7,0.1,1.4,0.1,2.1c0,0.7,0.1,1.4,0.3,2.1c0.4,2.2,0.9,4.5,1.5,6.6s1.3,4.3,2.1,6.5c0.3,0.8,0.6,1.6,0.9,2.4
			s0.6,1.6,0.9,2.5c0.5,1.3,1,2.6,1.4,3.9c0.5,1.3,0.9,2.6,1.4,3.9c0.8,1.9,1.5,3.7,2.3,5.6c0.7,1.8,1.5,3.7,2.3,5.6
			s1.7,3.7,2.7,5.6c0.3,0.6,0.8,1.2,1.4,1.7c0.8,0.7,1.7,0.8,2.7,0.4c0.1-0.1,0.3-0.1,0.4-0.1s0.3,0,0.4,0c0.3-0.1,0.6-0.1,0.9-0.1
			s0.6-0.1,0.9-0.2c0.2-0.1,0.5-0.3,0.6-0.5c0.2-0.2,0.4-0.4,0.8-0.4c0,0,0.1,0,0.1-0.1s0-0.1,0.1-0.1c0.5-0.7,0.9-1.5,1.3-2.2
			s0.9-1.5,1.3-2.2c0.8-1.4,1.4-2.9,2-4.3c0.5-1.5,1.1-2.9,1.5-4.5c0.8-2.5,1.4-5,2-7.5c0.5-2.5,1.1-5,1.7-7.5
			c0.4-1.7,0.8-3.3,1.1-5c0.3-1.6,0.8-3.3,1.3-4.9c0.2-0.5,0.3-1,0.5-1.6c0.1-0.5,0.3-1,0.5-1.6c0.2-0.8,0.5-1.5,0.7-2.3
			s0.5-1.5,0.7-2.3c0.1-0.3,0.1-0.6,0.2-0.9c0.1-0.3,0.1-0.6,0.2-0.9l0.3-2c0-0.1,0.1-0.3,0.1-0.4s0-0.3,0.1-0.5
			c-0.4-0.2-0.8-0.2-1.1-0.1s-0.6,0.3-0.9,0.5c-0.5,0.4-0.8,0.7-1,1.2c-0.2,0.4-0.5,0.9-0.6,1.4c-0.5,1.5-1,3-1.4,4.4
			c-0.5,1.5-0.9,3-1.4,4.5c-0.4,1.1-0.7,2.2-1,3.2c-0.3,1.1-0.6,2.2-0.9,3.3c-0.4,1.3-0.7,2.6-1,3.8c-0.3,1.3-0.6,2.6-1,3.9
			c-0.6,2.4-1.3,4.7-2,6.9c-0.8,2.2-1.6,4.5-2.4,6.8c-0.1,0.4-0.3,0.8-0.5,1.1c-0.2,0.4-0.4,0.8-0.6,1.3
			C473.2,98.1,473.2,97.9,473.1,97.8 M447.1,59c-0.3-1.1-0.8-2.1-1.6-3c-0.2-0.2-0.4-0.5-0.6-0.7s-0.5-0.3-0.8-0.4
			c-0.8-0.1-1.5,0-2.2,0.1s-1.4,0.4-2,0.9c-0.3,0.2-0.5,0.5-0.8,0.6c-0.3,0.2-0.5,0.4-0.8,0.6c-1.2,0.9-2.2,2-3.2,3.1
			c-0.9,1.1-1.9,2.3-2.8,3.5c-1.1,1.5-2,3-2.7,4.6c-0.1,0.2-0.1,0.4-0.3,0.6c-0.1,0.2-0.2,0.5-0.4,0.7c0-0.2-0.1-0.3-0.1-0.3
			c0-0.1,0-0.1,0-0.2c-0.2-0.9-0.3-1.8-0.5-2.7c-0.2-0.9-0.4-1.8-0.6-2.7c-0.4-1.3-0.8-2.6-1.2-3.9c-0.4-1.3-1-2.5-1.7-3.6
			c-0.2-0.3-0.4-0.6-0.5-0.8s-0.4-0.4-0.8-0.4h-0.6c-0.2,0-0.4,0-0.6,0.1V55c0,0,0,0.1-0.1,0.1s-0.2,0-0.2,0.1
			c-0.2,0.1-0.5,0.1-0.9,0.2c-0.4,0.1-0.8,0.2-1.1,0.3c-0.4,0.1-0.7,0.2-1,0.4c-0.3,0.1-0.4,0.3-0.5,0.4c0,0.1,0,0.7,0.1,1.9
			s0.2,2.7,0.4,4.7c0.2,1.9,0.4,4.2,0.7,6.7c0.3,2.5,0.6,5.2,0.9,8s0.7,5.6,1.1,8.5s0.8,5.6,1.2,8.2c0.4,2.6,0.8,5,1.3,7.2
			c0.4,2.2,0.9,4,1.3,5.4c0.2,0.5,0.5,0.8,1,1s1.1,0.3,1.7,0.3s1.2-0.1,1.8-0.2c0.6-0.1,1.1-0.3,1.4-0.5c0.5,0,0.8-0.1,1.1-0.4
			l0.3-0.3c0.3-0.4,0.5-0.7,0.6-1.2c0.1-0.4,0.1-0.9,0.2-1.3c0-0.2,0.1-0.5,0.1-0.7s0-0.5-0.1-0.7c-0.1-0.3-0.1-0.6-0.2-0.9
			s-0.1-0.6-0.2-0.9c-0.1-0.7-0.2-1.4-0.3-2.1c-0.1-0.7-0.2-1.4-0.3-2.1c-0.1-0.7-0.1-1.4-0.2-2.1s-0.2-1.5-0.2-2.2
			c-0.1-0.3-0.1-0.6-0.2-0.9s-0.1-0.6-0.2-1c-0.2-1.1-0.3-2.3-0.4-3.4s-0.3-2.3-0.6-3.4c-0.2-0.9-0.3-1.8-0.4-2.7
			c-0.1-0.9-0.2-1.8-0.3-2.7v-0.6c0-0.2,0-0.4,0.1-0.6c0.4-1.6,0.9-3.1,1.5-4.5c0.6-1.5,1.3-2.9,2.2-4.2c0.9-1.5,1.9-2.8,3-4.1
			c1.1-1.3,2.2-2.5,3.4-3.7c0.3-0.3,0.6-0.5,0.9-0.8c0.3-0.2,0.7-0.5,1-0.8c0.1,0.3,0.3,0.5,0.4,0.8c0.1,0.2,0.2,0.5,0.3,0.7
			c0.2,0.7,0.4,1.5,0.6,2.2c0.2,0.8,0.3,1.5,0.4,2.2c0.1,1,0.2,2,0.3,3.1c0.1,1,0.1,2.1,0.3,3.1c0.1,1.4,0.7,2.7,1.7,4
			c0.2,0.4,0.5,0.5,0.7,0.6s0.5,0,0.9-0.2l0.3-3c0.1-0.3,0.1-0.6,0.2-0.9c0-0.3,0.1-0.6,0.1-0.9c0-1.5,0-2.9-0.1-4.3
			s-0.3-2.8-0.5-4.2C447.6,61.1,447.3,60,447.1,59 M393,85.9c-0.1-0.4-0.1-0.7-0.1-1.1c-0.1-1.4,0-2.8,0.1-4.1
			c0.1-1.3,0.3-2.7,0.6-4.1c0.5-2.5,1.3-4.9,2.4-7.1c0.7-1.3,1.5-2.5,2.5-3.6s2.2-1.9,3.5-2.6c1.6-0.8,3.1-0.9,4.6-0.6
			c1.5,0.4,2.8,1.3,3.9,2.6c0.6,0.7,1,1.4,1.1,2.2c0.2,0.8,0.2,1.6,0,2.5c-0.3,1.9-0.9,3.7-1.7,5.4c-0.8,1.7-2,3.2-3.4,4.5
			c-0.7,0.7-1.4,1.3-2.1,1.9s-1.5,1.2-2.3,1.8c-1,0.7-2,1.4-3.1,1.9s-2.2,0.9-3.5,1.2c-0.4,0.1-0.7,0.2-1.1,0.2s-0.8,0.1-1.2,0.1
			C393.1,86.7,393,86.3,393,85.9 M417.3,86c-0.1-0.3-0.3-0.5-0.6-0.7c-0.3-0.2-0.7-0.3-1.1-0.3c-0.7,0.1-1.2,0.4-1.6,0.8
			s-0.7,1-1,1.6c-0.5,1.3-1.1,2.6-1.8,3.9c-0.7,1.3-1.4,2.5-2.2,3.7c-0.6,0.9-1.2,1.8-1.8,2.6c-0.7,0.8-1.4,1.6-2.2,2.3
			c-0.4,0.3-0.8,0.5-1.1,0.8c-0.4,0.2-0.8,0.3-1.3,0.3c-1.2-0.1-2.3-0.3-3.3-0.8s-1.9-1.1-2.7-2c-0.9-1.1-1.6-2.3-2.1-3.6
			c-0.5-1.3-0.8-2.7-1.1-4.2c0.3-0.1,0.4-0.1,0.5-0.1c1.9-0.1,3.6-0.4,5.3-1c1.6-0.6,3.2-1.4,4.8-2.5c1.1-0.7,2.1-1.5,3.1-2.4
			c1-0.8,1.9-1.7,2.9-2.6c3.2-3.1,5.3-6.8,6.1-11.1c0.2-1.3,0.3-2.6,0.1-3.9c-0.2-1.3-0.6-2.4-1.3-3.5c-0.7-1.1-1.4-2.2-2.2-3.1
			c-0.8-1-1.7-1.8-2.8-2.5c-0.3-0.2-0.6-0.4-0.9-0.6c-0.3-0.2-0.6-0.4-0.9-0.6c-1.1-0.8-2.3-1.3-3.5-1.5s-2.5-0.3-3.7-0.2
			c-1.1,0.1-2.2,0.3-3.2,0.6c-1.1,0.3-2.1,0.8-3.1,1.3c-1.2,0.6-2.3,1.3-3.3,2.2c-1,0.8-1.9,1.7-2.8,2.8c-1.4,1.7-2.5,3.5-3.4,5.5
			c-0.8,1.9-1.6,4-2.2,6c-0.4,1.4-0.7,2.8-1,4.3c-0.2,1.4-0.4,2.9-0.5,4.3s-0.1,2.8-0.1,4.2c0,1.4,0.1,2.8,0.2,4.2
			c0.2,1.8,0.5,3.6,1,5.3c0.5,1.7,1.1,3.4,2,5.1c1.2,2.3,2.7,4.1,4.6,5.5c1.8,1.3,4.1,2.2,6.7,2.5c2.5,0.3,4.7,0,6.6-1
			c1.9-0.9,3.6-2.3,5.2-4.1c1-1.1,2-2.3,2.8-3.6c0.9-1.2,1.7-2.5,2.4-3.9c0.8-1.4,1.5-2.8,2.2-4.3c0.7-1.4,1.3-2.9,2-4.3
			C417.4,86.7,417.5,86.3,417.3,86 M363.3,39.3c-1.7,0.4-3.2,1.2-4.7,2.2c-1.7,1.2-3.2,2.5-4.4,4.1c-1.2,1.5-2.3,3.2-3.2,5.1
			c-0.8,1.8-1.5,3.6-1.8,5.4c-0.4,1.9-0.8,3.7-1.1,5.6c-0.4,2.2-0.8,4.4-1,6.7c-0.2,2.2-0.4,4.5-0.6,6.8c-0.1,2.1-0.2,4.1-0.2,6.2
			s0.1,4.1,0.3,6.2c0.1,1.4,0.2,2.7,0.5,4c0.2,1.3,0.5,2.6,0.8,4c0.5,2.1,1.2,4.1,2.2,5.9s2.4,3.3,4.4,4.5c1.5,0.9,2.9,1.6,4.4,2
			s3.1,0.5,4.9,0.2c0.9-0.2,1.8-0.4,2.7-0.7c0.9-0.3,1.6-0.8,2.3-1.5c0.4-0.4,0.8-0.8,1.2-1.2s0.8-0.8,1.2-1.3
			c0.7-0.9,1.4-1.8,2-2.7c0.6-0.9,1.2-1.9,1.6-3c0.5-1.1,0.9-2.3,1.2-3.5c0.3-1.2,0.5-2.4,0.7-3.6c0.1-0.9,0.1-1.7-0.1-2.5
			s-0.3-1.6-0.4-2.5c0-0.1,0-0.1,0-0.1v-0.1c-0.2-0.5-0.6-0.7-1-0.8c-0.5-0.1-0.9,0.1-1.2,0.4c-0.3,0.4-0.5,0.7-0.6,1.1
			s-0.3,0.8-0.3,1.2c-0.2,1.8-0.5,3.5-0.9,5.2c-0.4,1.6-0.9,3-1.6,4.4s-1.6,2.6-2.7,3.8c-0.4,0.5-0.8,0.7-1.3,0.8
			c-0.4,0.1-0.9,0.1-1.4-0.1c-0.3-0.1-0.6-0.2-0.8-0.3c-0.3-0.1-0.5-0.3-0.8-0.5c-0.8-0.6-1.5-1.4-2-2.2c-0.5-0.8-0.9-1.8-1.2-2.7
			c-0.3-0.8-0.5-1.6-0.6-2.5c-0.1-0.8-0.3-1.7-0.4-2.5c-0.3-1.8-0.5-3.6-0.7-5.4c-0.1-1.8-0.2-3.6-0.1-5.5c0-0.9,0-1.8,0.1-2.7
			c0-0.9,0.1-1.8,0.1-2.7c0.1-0.9,0.1-1.8,0.2-2.7c0.1-0.9,0.1-1.8,0.2-2.7c0.2-1.5,0.4-2.9,0.5-4.3c0.2-1.4,0.4-2.9,0.7-4.3
			c0.3-1.5,0.6-2.9,1.1-4.2c0.4-1.3,1-2.7,1.7-4s1.5-2.5,2.5-3.6c0.9-1.1,2.1-2,3.6-2.5c0.6-0.2,1.1-0.4,1.6-0.6s1.1-0.2,1.7,0
			c1,0.3,2,0.7,2.9,1.3s1.6,1.3,2.2,2.2c0.4,0.7,0.9,1.3,1.3,1.9c0.4,0.6,0.8,1.3,1.2,1.9c0.4,0.6,0.9,0.9,1.5,0.7
			c0.3-0.1,0.5-0.2,0.7-0.5c0.1-0.2,0.2-0.5,0.3-0.8c0-0.1,0.1-0.3,0.1-0.5c0.1-2.1-0.3-4-1.3-5.7c-1.4-2.5-3.2-4.4-5.4-5.6
			s-4.5-1.9-7.1-2.1C366.7,38.6,364.9,38.9,363.3,39.3 M287.4,94.4c-0.1-0.4-0.2-0.8-0.3-1.2c-0.2-1.1-0.3-2.3-0.3-3.4
			s0-2.3,0.2-3.4c0.1-0.7,0.1-1.4,0.2-2.1s0.2-1.3,0.4-2c0.2-0.8,0.4-1.5,0.6-2.3c0.3-0.8,0.5-1.5,0.8-2.2c0.2-0.4,0.4-0.9,0.6-1.3
			s0.4-0.9,0.6-1.3c0.5-1,1.1-1.9,1.9-2.6s1.6-1.5,2.5-2.2c1.1-0.8,2.3-1.6,3.5-2.3c1.2-0.7,2.4-1.3,3.7-2c0.3-0.2,0.6-0.3,1-0.4
			c0.3-0.1,0.7-0.2,1.1-0.3c0.1,0.5,0.1,0.9,0.1,1.3c-0.1,0.4-0.2,0.8-0.3,1.1c-0.4,1.2-0.8,2.4-1.3,3.6s-1,2.4-1.5,3.5
			c-0.4,0.9-0.8,1.8-1.3,2.7c-0.5,0.9-0.8,1.8-1.2,2.8c-0.4,1.2-1,2.3-1.6,3.4c-0.7,1-1.3,2.1-1.9,3.2c-0.3,0.6-0.6,1.2-0.9,1.8
			c-0.3,0.6-0.5,1.2-0.9,1.8c-1.1,2-2.6,3.6-4.5,4.7c-0.1,0.1-0.3,0.1-0.5,0.2H288C287.7,95.2,287.6,94.8,287.4,94.4 M314.2,107.9
			c0.3-0.1,0.6-0.3,1-0.4c0.3-0.2,0.6-0.4,0.9-0.6c0.4-0.4,0.6-0.7,0.8-1c0.2-0.3,0.2-0.7,0.1-1.2c-0.1-0.4-0.1-0.6-0.1-0.7
			c-0.3-0.8-0.6-1.6-0.8-2.5c-0.3-0.8-0.5-1.6-0.7-2.5c-0.4-1.5-0.8-2.9-1.1-4.4c-0.4-1.5-0.7-3-1-4.4c-0.6-2.5-1-5-1.4-7.5
			s-0.7-5-0.9-7.6c-0.2-2-0.2-4.1-0.1-6.1s0.1-4.1,0.3-6.1c0.1-0.8,0.1-1.6,0.2-2.5c0.1-0.8,0-1.7-0.2-2.5c-0.1-0.6-0.3-1.2-0.8-1.8
			c-0.4-0.6-1.1-1-2-1.1c-0.5-0.1-0.9,0-1.2,0.1c-0.3,0.2-0.5,0.4-0.6,0.8c-0.3,0.8-0.5,1.6-0.8,2.4c-0.2,0.8-0.5,1.6-0.8,2.5
			c-0.1,0-0.1,0-0.2,0.1c-0.1,0-0.1,0.1-0.3,0.1c-1.8,0.3-3.5,0.7-5.2,1.2s-3.4,1.2-5,2c-1.7,0.8-3.2,1.7-4.6,2.8
			c-1.4,1-2.8,2.2-4.1,3.4c-2.2,2.1-4,4.4-5.3,7c-0.6,1.1-1.1,2.2-1.4,3.4c-0.3,1.2-0.6,2.4-0.9,3.6c-0.4,1.7-0.6,3.3-0.8,5
			c-0.1,1.6-0.1,3.3,0.1,5c0.1,0.9,0.3,1.8,0.6,2.6c0.3,0.8,0.7,1.6,1.2,2.3c0.5,0.7,1.1,1.3,1.8,1.8c0.7,0.5,1.5,0.8,2.4,0.8
			c1.9,0.2,3.8-0.2,5.5-1.1c1.1-0.5,2.1-1.2,2.9-2s1.6-1.7,2.4-2.6c0.3-0.4,0.6-0.8,0.9-1.3c0.3-0.4,0.6-0.9,0.9-1.4
			c0.4-0.7,0.7-1.3,1-2s0.6-1.3,1-2c0.8-1.6,1.7-3.2,2.5-4.8c0.8-1.6,1.5-3.2,2.2-4.9c0.1-0.4,0.3-0.7,0.5-1.1
			c0.2-0.3,0.5-0.7,0.8-1.1c0.1,0.5,0.1,1,0.1,1.5s0,0.9,0.1,1.3c0.2,1.7,0.4,3.3,0.6,4.9s0.4,3.3,0.5,4.9c0.1,1.1,0.2,2.2,0.4,3.3
			c0.2,1.1,0.4,2.2,0.6,3.2c0.4,1.8,0.9,3.5,1.5,5.2s1.4,3.2,2.4,4.7c0.3,0.4,0.6,0.7,1,0.9c0.4,0.2,0.7,0.4,1,0.4
			c0.4,0.1,0.8,0.2,1.1,0.1C313.4,108.2,313.8,108,314.2,107.9 M249.5,89.4c-0.1-0.5-0.1-1-0.2-1.4c0-0.5-0.1-0.9-0.1-1.4
			c-0.1-1.6-0.1-3.1-0.2-4.7c-0.1-1.5-0.1-3.1-0.2-4.7c-0.1-1.5-0.1-2.9-0.2-4.3c-0.1-1.4-0.2-2.9-0.2-4.3c0-1-0.1-2-0.2-2.9
			c-0.1-0.9-0.2-1.9-0.4-2.9c-0.1-0.7-0.2-1.4-0.3-2s-0.2-1.3-0.3-2c-0.1-0.6-0.2-1.1-0.4-1.6s-0.4-0.9-0.8-1.4s-0.7-0.8-1.1-0.9
			c-0.4-0.1-0.9-0.1-1.3-0.1c-0.6,0-1,0.3-1.4,0.9c-0.4,0.5-0.7,1.1-0.8,1.7c-0.2,0.6-0.3,1.2-0.4,1.8c-0.2,2.1-0.4,4.2-0.5,6.1
			c-0.1,1.6-0.1,3.2-0.2,4.7c-0.1,1.6-0.1,3.1-0.1,4.7c0,2,0,4,0,6s0.1,4,0.2,6c0.1,1.7,0.3,3.3,0.5,5s0.4,3.3,0.6,5
			c0.2,1.5,0.4,2.9,0.7,4.3s0.7,2.8,1.3,4.2c0.4,0.9,1,1.8,1.7,2.6c0.2,0.2,0.4,0.3,0.6,0.3c0.2,0,0.5,0,0.8,0s0.5,0,0.8,0
			s0.5-0.1,0.8-0.2c0.3-0.2,0.6-0.3,0.7-0.5c0.2-0.1,0.3-0.4,0.4-0.6c0.3-0.6,0.6-1.2,0.7-1.9c0.1-0.4,0.2-0.8,0.3-1.3
			c0-0.4,0.1-0.9,0.2-1.3c0.1-0.5,0.2-1,0.3-1.5s0.2-1,0.3-1.5c0.2-1,0.3-2.1,0.4-3.2c0.1-1.1,0.2-2.1,0.5-3.1
			c0.2-0.7,0.4-1.4,0.5-2.1s0.3-1.4,0.6-2.1c0.4-1.3,0.8-2.7,1.3-4.1c0.4-1.4,0.9-2.7,1.3-4.1c0.2-0.5,0.4-1.1,0.5-1.6
			s0.4-1.1,0.6-1.5c0.5-1,1-2.1,1.4-3.1c0.5-1,0.9-2.1,1.4-3.1c0.3-0.7,0.7-1.5,1.1-2.2s0.8-1.3,1.2-2c0.4-0.7,0.8-1.3,1.2-2
			c0.4-0.6,0.7-1.2,1-1.8s0.7-1.2,1.1-1.8c0.7-1,1.5-1.8,2.6-2.6c0,0.3,0,0.5,0,0.7s0,0.4,0,0.6c-0.1,1.5-0.2,3-0.5,4.5
			c-0.3,1.5-0.5,3-0.8,4.4c-0.1,0.8-0.3,1.6-0.4,2.4s-0.3,1.6-0.4,2.4c-0.2,1-0.3,2-0.4,3s-0.2,2-0.3,3c-0.1,1.2-0.2,2.4-0.3,3.6
			c-0.1,1.2-0.2,2.4-0.3,3.6c-0.1,0.8-0.1,1.5-0.1,2.3s0,1.5,0,2.3c-0.1,3.9,0.2,7.8,0.9,11.6c0,0.1,0.1,0.3,0.1,0.4s0,0.3,0.1,0.4
			c0.1,0.2,0.1,0.4,0.1,0.5c0,0.2,0.1,0.3,0.2,0.5c0.5,0.6,1.1,1,1.8,1.3s1.5,0.2,2.2,0c0.5-0.2,0.9-0.4,1.4-0.6
			c0.4-0.2,0.8-0.4,1.3-0.6s0.8-0.4,1.2-0.7c0.3-0.3,0.5-0.7,0.4-1.3v-0.1c0,0,0,0,0-0.1c0.2-0.3,0.3-0.5,0.3-0.8s-0.1-0.5-0.1-0.8
			c-0.1-0.4-0.1-0.7-0.2-1s-0.1-0.7-0.2-1.1c-0.2-1.2-0.3-2.4-0.4-3.6s-0.1-2.4-0.2-3.6c-0.1-2.5-0.1-5.1-0.1-7.6
			c0.1-2.5,0.2-5.1,0.4-7.6c0.1-1.5,0.2-2.9,0.3-4.4c0.1-1.5,0.2-2.9,0.3-4.4c0.1-1.7,0.2-3.4,0.1-5.1s-0.3-3.4-0.6-5.1
			c-0.1-0.4-0.2-0.8-0.4-1.2c-0.2-0.4-0.4-0.7-0.6-1.1c-0.2-0.3-0.4-0.6-0.7-0.8c-0.2-0.3-0.6-0.4-1-0.4s-0.7,0-1-0.1
			c-0.3,0-0.7-0.1-1.1-0.1c-0.8,0-1.4,0.3-1.8,0.8c-0.2,0.3-0.5,0.5-0.7,0.8c-0.2,0.2-0.5,0.5-0.7,0.8c-0.4,0.5-0.8,1-1.3,1.4
			c-0.4,0.5-0.8,1-1.2,1.5c-0.6,0.8-1.1,1.6-1.6,2.4c-0.5,0.8-1,1.6-1.5,2.5c-0.6,1-1.2,2-1.7,3.1c-0.6,1-1.1,2.1-1.6,3.2
			c-0.6,1.2-1.2,2.4-1.7,3.7c-0.5,1.2-1.1,2.5-1.5,3.7c-0.5,1.1-0.9,2.2-1.3,3.4c-0.4,1.1-0.7,2.3-0.9,3.5c-0.2,0.7-0.4,1.4-0.6,2.1
			c-0.2,0.7-0.4,1.4-0.6,2.1L249.5,89.4L249.5,89.4z M236,59c-0.3-1.1-0.8-2.1-1.6-3c-0.2-0.2-0.4-0.5-0.6-0.7
			c-0.2-0.2-0.5-0.3-0.8-0.4c-0.8-0.1-1.5,0-2.2,0.1s-1.4,0.4-2,0.9c-0.3,0.2-0.5,0.5-0.8,0.6c-0.3,0.2-0.5,0.4-0.8,0.6
			c-1.2,0.9-2.2,2-3.2,3.1c-0.9,1.1-1.9,2.3-2.8,3.5c-1.1,1.5-2,3-2.7,4.6c-0.1,0.2-0.1,0.4-0.3,0.6c-0.1,0.2-0.2,0.5-0.4,0.7
			c0-0.2-0.1-0.3-0.1-0.3s0-0.1,0-0.2c-0.2-0.9-0.3-1.8-0.5-2.7c-0.2-0.9-0.4-1.8-0.6-2.7c-0.4-1.3-0.8-2.6-1.2-3.9
			c-0.5-1.3-1-2.5-1.7-3.6c-0.2-0.3-0.4-0.6-0.5-0.8s-0.4-0.4-0.8-0.4h-0.6c-0.2,0-0.4,0-0.6,0.1V55c0,0,0,0.1-0.1,0.1
			s-0.2,0-0.2,0.1c-0.2,0.1-0.5,0.1-0.9,0.2c-0.4,0.1-0.8,0.2-1.1,0.3c-0.4,0.1-0.7,0.2-1,0.4c-0.3,0.1-0.4,0.3-0.5,0.4
			c0,0.1,0,0.7,0.1,1.9s0.2,2.7,0.4,4.7c0.2,1.9,0.4,4.2,0.7,6.7s0.6,5.2,0.9,8c0.3,2.8,0.7,5.6,1.1,8.5c0.4,2.9,0.8,5.6,1.2,8.2
			s0.8,5,1.3,7.2c0.4,2.2,0.9,4,1.3,5.4c0.2,0.5,0.5,0.8,1,1s1.1,0.3,1.7,0.3c0.6,0,1.2-0.1,1.8-0.2s1.1-0.3,1.4-0.5
			c0.5,0,0.8-0.1,1.1-0.4l0.3-0.3c0.3-0.4,0.5-0.7,0.6-1.2c0.1-0.4,0.1-0.9,0.2-1.3c0-0.2,0.1-0.5,0.1-0.7s0-0.5-0.1-0.7
			c-0.1-0.3-0.1-0.6-0.2-0.9c-0.1-0.3-0.1-0.6-0.2-0.9c-0.1-0.7-0.2-1.4-0.3-2.1s-0.2-1.4-0.3-2.1s-0.1-1.4-0.2-2.1
			c-0.1-0.7-0.2-1.5-0.2-2.2c-0.1-0.3-0.1-0.6-0.2-0.9c-0.1-0.3-0.1-0.6-0.2-1c-0.2-1.1-0.3-2.3-0.4-3.4c-0.1-1.1-0.3-2.3-0.6-3.4
			c-0.2-0.9-0.3-1.8-0.4-2.7c-0.1-0.9-0.2-1.8-0.3-2.7v-0.6c0-0.2,0-0.4,0.1-0.6c0.4-1.6,0.9-3.1,1.5-4.5s1.3-2.9,2.2-4.2
			c0.9-1.5,1.9-2.8,3-4.1c1.1-1.3,2.2-2.5,3.4-3.7c0.3-0.3,0.6-0.5,0.9-0.8c0.3-0.2,0.7-0.5,1-0.8c0.1,0.3,0.3,0.5,0.4,0.8
			c0.1,0.2,0.2,0.5,0.3,0.7c0.2,0.7,0.4,1.5,0.6,2.2c0.2,0.8,0.3,1.5,0.4,2.2c0.1,1,0.2,2,0.3,3.1c0.1,1,0.1,2.1,0.3,3.1
			c0.1,1.4,0.7,2.7,1.7,4c0.2,0.4,0.5,0.5,0.7,0.6s0.5,0,0.9-0.2l0.3-3c0.1-0.3,0.1-0.6,0.2-0.9c0-0.3,0.1-0.6,0.1-0.9
			c0-1.5,0-2.9-0.1-4.3s-0.3-2.8-0.5-4.2C236.6,61.1,236.3,60,236,59 M177.1,94.4c-0.1-0.4-0.2-0.8-0.3-1.2
			c-0.2-1.1-0.3-2.3-0.3-3.4s0-2.3,0.2-3.4c0.1-0.7,0.1-1.4,0.2-2.1c0.1-0.7,0.2-1.3,0.4-2c0.2-0.8,0.4-1.5,0.6-2.3
			c0.3-0.8,0.5-1.5,0.8-2.2c0.2-0.4,0.4-0.9,0.6-1.3c0.2-0.4,0.4-0.9,0.6-1.3c0.5-1,1.1-1.9,1.9-2.6c0.8-0.7,1.7-1.5,2.6-2.2
			c1.1-0.8,2.3-1.6,3.5-2.3c1.2-0.7,2.4-1.3,3.7-2c0.3-0.2,0.6-0.3,1-0.4c0.3-0.1,0.7-0.2,1.1-0.3c0.1,0.5,0.1,0.9,0.1,1.3
			c-0.1,0.4-0.1,0.8-0.3,1.1c-0.4,1.2-0.8,2.4-1.3,3.6s-1,2.4-1.5,3.5c-0.4,0.9-0.8,1.8-1.3,2.7c-0.5,0.9-0.8,1.8-1.2,2.8
			c-0.4,1.2-1,2.3-1.6,3.4c-0.7,1-1.3,2.1-1.9,3.2c-0.3,0.6-0.6,1.2-0.9,1.8c-0.3,0.6-0.6,1.2-0.9,1.8c-1.1,2-2.6,3.6-4.5,4.7
			c-0.1,0.1-0.3,0.1-0.5,0.2h-0.3C177.4,95.2,177.2,94.8,177.1,94.4 M203.8,107.9c0.3-0.1,0.6-0.3,1-0.4c0.3-0.2,0.6-0.4,0.9-0.6
			c0.4-0.4,0.6-0.7,0.8-1s0.2-0.7,0.2-1.2c-0.1-0.4-0.1-0.6-0.2-0.7c-0.3-0.8-0.5-1.6-0.8-2.5c-0.3-0.8-0.5-1.6-0.7-2.5
			c-0.4-1.5-0.8-2.9-1.1-4.4c-0.4-1.5-0.7-3-1-4.4c-0.6-2.5-1-5-1.4-7.5s-0.7-5-0.9-7.6c-0.2-2-0.2-4.1-0.2-6.1
			c0.1-2,0.2-4.1,0.3-6.1c0.1-0.8,0.1-1.6,0.2-2.5s0-1.7-0.2-2.5c-0.1-0.6-0.3-1.2-0.8-1.8c-0.4-0.6-1.1-1-2-1.1
			c-0.5-0.1-0.9,0-1.2,0.1c-0.3,0.2-0.6,0.4-0.6,0.8c-0.3,0.8-0.5,1.6-0.8,2.4c-0.2,0.8-0.5,1.6-0.8,2.5c-0.1,0-0.1,0-0.2,0.1
			c-0.1,0-0.2,0.1-0.3,0.1c-1.8,0.3-3.5,0.7-5.2,1.2s-3.4,1.2-5,2c-1.7,0.8-3.2,1.7-4.6,2.8c-1.4,1-2.8,2.2-4.1,3.4
			c-2.2,2.1-4,4.4-5.3,7c-0.6,1.1-1.1,2.2-1.4,3.4c-0.3,1.2-0.6,2.4-0.9,3.6c-0.4,1.7-0.6,3.3-0.8,5c-0.2,1.6-0.1,3.3,0.1,5
			c0.1,0.9,0.3,1.8,0.6,2.6c0.3,0.8,0.7,1.6,1.2,2.3c0.5,0.7,1.1,1.3,1.8,1.8s1.5,0.8,2.4,0.8c1.9,0.2,3.8-0.2,5.5-1.1
			c1.1-0.5,2.1-1.2,2.9-2c0.8-0.8,1.6-1.7,2.4-2.6c0.3-0.4,0.6-0.8,0.9-1.3c0.3-0.4,0.6-0.9,0.9-1.4c0.4-0.7,0.7-1.3,1-2
			s0.6-1.3,1-2c0.8-1.6,1.7-3.2,2.5-4.8c0.8-1.6,1.5-3.2,2.2-4.9c0.1-0.4,0.3-0.7,0.6-1.1c0.2-0.3,0.5-0.7,0.8-1.1
			c0.1,0.5,0.1,1,0.1,1.5s0,0.9,0.1,1.3c0.2,1.7,0.4,3.3,0.6,4.9c0.2,1.6,0.4,3.3,0.5,4.9c0.1,1.1,0.2,2.2,0.4,3.3
			c0.2,1.1,0.4,2.2,0.6,3.2c0.4,1.8,0.9,3.5,1.5,5.2s1.3,3.2,2.4,4.7c0.3,0.4,0.6,0.7,1,0.9c0.4,0.2,0.7,0.4,1,0.4
			c0.4,0.1,0.8,0.2,1.1,0.1C203,108.2,203.4,108,203.8,107.9 M149.1,49.4c0,0.4-0.1,1-0.1,1.8c-0.1,0.8-0.1,1.7-0.2,2.8
			c-0.1,1-0.1,2.1-0.2,3.2c-0.1,1.1-0.1,2.2-0.2,3.2c-0.1,1-0.1,1.9-0.2,2.8c-0.1,0.8-0.1,1.4-0.1,1.8c-0.1,1.3-0.1,2.6-0.1,3.8
			c0,1.3,0,2.6-0.1,3.9v2.6c0,1.3,0,2.7,0.1,4.4c0,1.7,0.1,3.4,0.1,5.3s0.1,3.6,0.1,5.3c0.1,1.7,0.1,3.1,0.2,4.4
			c0.1,1.3,0.1,2.1,0.3,2.6c0.4,1.9,0.8,3.7,1.3,5.5s1.2,3.5,2.2,5.2c0.6,1.1,1.3,2.1,2.2,2.8c0.8,0.8,1.8,1.4,3,1.7
			c0.8,0.3,1.6,0.5,2.4,0.6c0.8,0.1,1.6,0.1,2.5-0.1c0.5-0.1,0.8-0.4,1-0.6s0.1-0.6-0.1-1.1c-0.3-0.5-0.6-1-0.8-1.4
			c-0.3-0.5-0.5-0.9-0.8-1.4c-0.1-0.2-0.3-0.5-0.4-0.8c-0.1-0.3-0.2-0.5-0.3-0.8c-0.1-0.2-0.1-0.4-0.1-0.6s-0.1-0.4-0.2-0.6
			c-0.5-1.2-0.8-2.5-1.1-3.7c-0.3-1.3-0.6-2.5-0.8-3.7c-0.2-0.8-0.3-2-0.4-3.6c-0.1-1.6-0.2-3.4-0.4-5.4c-0.1-2-0.2-4.1-0.3-6.3
			c-0.1-2.2-0.1-4.3-0.2-6.3c-0.1-2-0.1-3.8-0.1-5.4s-0.1-2.8-0.1-3.6v-7.3v-1.2c0-0.6,0-1.3,0-2.1s0-1.6,0-2.5s0-1.7,0-2.5
			s0-1.5,0-2v-1.2c0.2-0.1,0.3-0.1,0.4-0.1c0.1,0,0.2,0,0.3-0.1c1.1-0.1,2.3-0.1,3.4-0.2c1.1-0.1,2.3-0.2,3.4-0.2
			c0.8-0.1,1.6-0.1,2.3-0.1c0.8,0,1.5,0,2.3,0c0.4,0,0.8,0,1.1-0.1c0.4-0.1,0.7-0.3,1.1-0.7c-0.1-0.1-0.3-0.1-0.3-0.2
			c-0.1-0.1-0.2-0.2-0.3-0.2c-0.4-0.1-0.7-0.3-1-0.4c-0.3-0.1-0.7-0.2-1-0.3c-1.5-0.4-3.1-0.6-4.6-0.8c-1.5-0.1-3.1-0.2-4.6-0.2
			c-0.4,0-0.8-0.1-1.3-0.1h-1.3v-2.5c0-1,0.1-2,0.2-2.9c0.1-0.9,0.2-1.9,0.2-2.9c0-0.5,0-1,0-1.5s0-1,0.1-1.5c0.1-0.6,0-1.1-0.2-1.6
			c-0.3-0.4-0.6-0.8-1-1.1c-0.5-0.5-1-0.7-1.6-0.6c-0.6,0-1.2,0.1-1.7,0.3c-1.2,0.3-1.8,1.1-1.7,2.5v0.5c-0.1,0.5-0.1,1-0.3,1.6
			c-0.1,0.5-0.2,1-0.3,1.6c-0.2,1-0.3,1.9-0.5,2.8c-0.1,0.8-0.3,1.8-0.5,2.8c-0.1,0.5-0.1,1-0.2,1.5c-0.1,0.5-0.1,1-0.2,1.5
			c-0.1,0-0.2,0.1-0.4,0.1s-0.4,0-0.4,0c-1.5-0.1-2.9-0.1-4.4,0s-2.9,0.2-4.4,0.3c-0.9,0.1-1.8,0.2-2.8,0.3
			c-0.9,0.1-1.9,0.2-2.8,0.3c-0.8,0.1-1.3,0.5-1.4,1.3c0.3,0.1,0.5,0.3,0.8,0.4c0.2,0.1,0.5,0.3,0.8,0.4c0.3,0.1,0.6,0.2,1,0.3
			c0.3,0.1,0.6,0.1,1,0.1c0.6,0,1.2,0,1.8,0c0.6-0.1,1.2-0.1,1.8-0.1h7.8c0.2,0,0.4,0,0.7,0.1s0.5,0.1,0.7,0.1L149.1,49.4
			L149.1,49.4z M111.3,88.1c-0.3,0.7-0.6,1.5-0.8,2.2c-0.3,0.9-0.5,1.8-0.6,2.7c-0.1,0.9,0,1.8,0.2,2.8c0.6,2.2,1.5,4.3,3,6.1
			c0.6,0.7,1.2,1.4,1.8,2c0.6,0.7,1.3,1.3,2.1,1.8c2,1.4,4.2,2.1,6.7,2.3c0.8,0.1,1.6,0.1,2.3,0.1c0.8,0,1.5-0.2,2.3-0.5
			c1.8-0.8,3.2-1.8,4.3-3.2c1.1-1.3,1.8-2.9,2.3-4.8c0.5-1.6,0.8-3.1,1-4.7s0.2-3.2,0.1-4.9c-0.2-3.2-1-6.1-2.5-8.9
			c-0.6-1-1.1-2-1.8-3c-0.6-1-1.3-1.9-2-2.9c-0.9-1.3-1.7-2.5-2.5-3.8s-1.6-2.6-2.3-4c-0.2-0.4-0.4-0.8-0.5-1.3s-0.2-0.9-0.1-1.4
			c0.1-1,0.3-1.9,0.7-2.8s1-1.7,1.6-2.4c0.2-0.3,0.5-0.5,0.8-0.6s0.6-0.1,0.9,0c0.5,0.1,1,0.3,1.5,0.4c0.5,0.2,1,0.4,1.4,0.6
			c1,0.7,1.9,1.5,2.5,2.4c0.7,0.9,1.3,2,1.7,3.1c0.1,0.3,0.2,0.6,0.2,0.9c0.1,0.3,0.1,0.6,0.2,0.9c0,0.5,0.3,0.8,0.8,0.8
			c0.2,0.1,0.4,0.1,0.6-0.1c0.1-0.1,0.3-0.2,0.4-0.4c0.4-0.5,0.4-0.9,0.2-1.4c-0.2-0.4-0.3-0.7-0.5-1.1c-0.1-0.4-0.3-0.7-0.5-1.1
			c-0.3-0.6-0.5-1.2-0.8-1.7c-0.3-0.6-0.6-1.1-1-1.6c-1-1.5-2.2-2.8-3.4-4c-0.6-0.6-1.3-1-2.1-1.5c-0.8-0.4-1.6-0.7-2.5-0.9
			s-1.8-0.2-2.7-0.1c-0.9,0.1-1.8,0.4-2.6,0.9c-0.3,0.2-0.6,0.4-0.8,0.5c-0.3,0.2-0.6,0.4-0.8,0.5c-0.9,0.6-1.7,1.4-2.3,2.2
			c-0.6,0.9-1.1,1.8-1.5,2.8s-0.6,2.1-0.6,3.2c-0.1,1.1,0,2.1,0.3,3.2c0.4,1.4,0.8,2.7,1.4,4s1.3,2.5,2,3.7c0.6,1,1.2,2,1.9,2.9
			c0.7,0.9,1.4,1.9,2,2.9c0.6,0.9,1.1,1.8,1.6,2.7s0.9,1.9,1.1,2.9c0.5,1.7,0.7,3.3,0.6,4.9s-0.4,3.3-0.8,4.9
			c-0.2,0.6-0.4,1.1-0.8,1.6s-0.7,0.9-1.1,1.3c-0.3,0.2-0.6,0.4-1,0.4c-0.5,0-1,0-1.5-0.1s-0.9-0.3-1.3-0.6
			c-0.5-0.4-0.9-0.8-1.3-1.2c-0.4-0.4-0.8-0.9-1.2-1.4c-0.6-0.9-1-1.8-1.3-2.7c-0.3-1-0.5-1.9-0.7-2.9c-0.2-1.1-0.6-2.1-1.3-2.9
			c-0.7-0.8-1.4-1.6-2.3-2.3C111.9,86.6,111.7,87.4,111.3,88.1 M84.6,78c0.5-2.6,1.1-5.2,2-7.6c1.1-2.9,2.6-5.6,4.4-8
			c0.7-0.9,1.3-1.4,2-1.6c0.7-0.2,1.5-0.1,2.5,0.3c1.2,0.5,2.2,1.1,3,2c0.8,0.9,1.5,1.8,2.1,2.8c0.7,1.1,1.2,2.3,1.6,3.5
			c0.4,1.3,0.7,2.5,1,3.8c0.2,0.9,0.4,1.8,0.5,2.7c0.1,0.9,0.3,1.8,0.5,2.7c0.3,1.3,0.4,2.6,0.4,3.9s-0.1,2.6-0.2,3.9
			c-0.1,1.5-0.4,3-0.6,4.5c-0.3,1.5-0.8,2.9-1.5,4.4c-0.5,0.9-0.9,1.7-1.4,2.5s-1.2,1.4-2.1,1.9c-0.5,0.2-0.9,0.4-1.3,0.6
			c-0.5,0.2-0.9,0.3-1.4,0.4c-2,0.2-3.9-0.1-5.4-0.9c-1.6-0.8-2.9-2-4-3.7c-1-1.6-1.8-3.2-2.2-4.9c-0.4-1.6-0.6-3.1-0.7-4.3
			C83.9,83.6,84.1,80.6,84.6,78 M108.4,79.2c-0.1-1-0.3-2-0.4-3c-0.2-1.2-0.3-2.3-0.5-3.5c-0.1-1.1-0.4-2.3-0.6-3.4
			c-0.5-1.9-1-3.7-1.7-5.5c-0.7-1.8-1.6-3.5-2.9-5c-1.1-1.3-2.4-2.4-3.8-3.1c-1.4-0.7-3-1-4.8-0.9c-3.8,0.2-7.1,1.5-9.9,3.9
			c-2.2,1.8-3.9,3.9-5.4,6.2c-1.4,2.3-2.6,4.7-3.5,7.4c-0.6,1.8-1.1,3.6-1.5,5.4s-0.7,3.6-0.8,5.5c-0.2,2.5-0.2,5,0.1,7.4
			c0.3,2.4,1,4.8,2,7.1c1.1,2.6,2.7,4.8,4.6,6.6c1.9,1.8,4.4,2.9,7.3,3.5c0.6,0.1,1.2,0.2,1.8,0.3c0.6,0.1,1.2,0.2,1.8,0.2
			c1.4,0,2.7-0.1,4.1-0.4c1.3-0.3,2.5-0.9,3.6-1.8C98,106,98,106,98.1,106s0.1-0.1,0.2-0.1c0.8-0.6,1.6-1.2,2.4-1.9
			c0.8-0.7,1.4-1.5,2-2.4c0.5-0.9,1-1.8,1.6-2.7c0.5-0.9,1-1.8,1.5-2.8s0.9-2,1.2-3c0.3-1,0.6-2.1,0.9-3.1c0.3-1.2,0.5-2.5,0.6-3.8
			s0.1-2.8,0.1-4.4C108.6,81,108.6,80.2,108.4,79.2 M19.8,100c0.2-0.8,0.3-1.5,0.4-2.3c0.1-0.7,0.2-1.5,0.2-2.3
			c0.1-1.1,0.3-2.3,0.4-3.4s0.2-2.3,0.3-3.5l0.8-8.1c0.1-0.9,0.1-1.9,0.2-2.8s0.1-1.9,0.2-2.8c0.1-1.1,0.1-2.2,0.2-3.3
			c0.1-1.1,0.1-2.2,0.2-3.3c0-0.8,0-1.5,0-2.2s0-1.5,0-2.2c0.1-1.6,0.1-3.2,0-4.7c-0.1-1.6-0.2-3.1-0.3-4.7c0-0.2-0.1-0.4-0.1-0.6
			c0-0.2,0-0.5,0-0.7c0.1,0.1,0.3,0.2,0.3,0.3c0.1,0.1,0.2,0.1,0.2,0.2c0.7,0.7,1.5,1.4,2.2,2.1c0.7,0.7,1.4,1.4,2.1,2.1
			c0.7,0.8,1.4,1.5,2.1,2.3s1.4,1.5,2.1,2.3c0.9,1,1.7,1.9,2.6,2.9c0.8,1,1.7,1.9,2.6,2.9c0.3,0.3,0.5,0.6,0.8,0.8
			c0.2,0.3,0.5,0.6,0.8,0.8c0.3,0.3,0.5,0.6,0.7,0.9s0.4,0.6,0.8,0.8c0.3,0.2,0.5,0.4,0.7,0.6s0.4,0.5,0.6,0.6
			c0.3,0.2,0.6,0.5,0.9,0.6c0.3,0.2,0.6,0.4,1,0.6c0.2,0.1,0.3,0.1,0.5,0s0.3,0,0.5,0c0.4,0.1,0.8,0.1,1,0c0.3-0.1,0.6-0.4,0.8-0.6
			s0.4-0.4,0.6-0.6c0.2-0.2,0.4-0.4,0.6-0.6c0.3-0.3,0.6-0.6,1-0.8c0.4-0.3,0.7-0.6,1-0.9c0.7-0.8,1.3-1.6,1.9-2.5
			c0.6-0.8,1.3-1.6,1.9-2.5c0.4-0.6,0.9-1.1,1.4-1.7c0.8-0.9,1.5-1.8,2.3-2.7c0.7-0.9,1.5-1.7,2.3-2.6c0.1-0.2,0.2-0.3,0.4-0.5
			c0.1-0.1,0.3-0.3,0.5-0.5c-0.1,0.8-0.2,1.6-0.3,2.4c-0.1,0.8-0.2,1.5-0.3,2.3c-0.2,1.9-0.3,3.7-0.3,5.6c0,1,0,2.1,0,3.1
			s0,2.1-0.1,3.1c0,1.1-0.1,2.1-0.1,3.2c-0.1,1-0.1,2.1-0.2,3.1c-0.1,1.3-0.1,2.6-0.2,3.9c0,1.3-0.1,2.6-0.1,3.9c0,0.7,0,1.4,0.1,2
			c0,0.7,0.1,1.3,0.1,2v1.5c0,0.5,0,1-0.1,1.5v3.5c0,0.5,0,1-0.1,1.4c0,0.5,0,0.9,0.1,1.4c0.1,0.4,0.2,0.8,0.3,1.2
			c0.1,0.4,0.2,0.8,0.4,1.2c0.2,0.6,0.4,1.2,0.5,1.8c0.1,0.6,0.4,1.2,0.9,1.6c0.3,0.1,0.6,0.1,0.8,0.1c0.5,0.1,0.9,0.3,1.3,0.4
			c0.4,0.1,0.9,0.1,1.4,0.1c0.6-0.1,1.2-0.2,1.8-0.4c0.6-0.2,1.1-0.5,1.6-1c0.6-0.7,1-1.4,1.2-2.3c0.2-0.8,0.3-1.7,0.3-2.6
			c0-0.4,0-0.8,0-1.3c0-0.4,0-0.9,0-1.3v-4.3c0-0.8,0-1.6,0-2.3c0-0.8,0-1.5,0-2.3V83c0-0.6,0-1.2-0.1-1.7c0-0.6-0.1-1.1-0.1-1.7
			c0-0.7,0-1.4,0-2c0-0.7,0-1.3,0-2c0-0.4,0-0.8-0.1-1.1c0-0.4-0.1-0.8-0.1-1.1c0-0.5,0.1-1,0.1-1.4c0.1-0.4,0.1-0.9,0.1-1.4
			c0.1-1.1,0.1-2.2,0.1-3.4c0-1.1,0.1-2.3,0.2-3.4c0.1-1,0.1-2,0.2-2.9c0.1-1,0.2-1.9,0.2-2.9c0.1-1.5,0.2-2.9,0.3-4.4
			c0.1-1.5,0.2-2.9,0.2-4.4c0-0.7,0-1.5,0-2.2c-0.1-0.7-0.1-1.5-0.2-2.2c-0.1-0.9-0.3-1.8-0.5-2.7s-0.6-1.7-1.2-2.5
			c-0.7-0.9-1.5-1.2-2.5-0.8c-0.4,0.2-0.7,0.4-1,0.6c-0.3,0.2-0.6,0.5-0.9,0.7c-0.1,0.1-0.3,0.2-0.4,0.3c-0.1,0.1-0.3,0.3-0.4,0.4
			c-0.2,0.2-0.3,0.4-0.5,0.6c-0.1,0.2-0.3,0.4-0.5,0.6c-0.3,0.3-0.6,0.6-0.9,0.9c-0.3,0.3-0.6,0.6-0.9,1c-0.6,0.6-1,1.2-1.4,1.8
			s-0.9,1.3-1.5,1.8c-0.1,0.1-0.1,0.1-0.1,0.3c0,0.1-0.1,0.2-0.1,0.3s-0.1,0.1-0.1,0.2c0,0,0,0.1-0.1,0.1c-0.3,0.3-0.6,0.6-0.8,0.9
			c-0.3,0.3-0.5,0.6-0.8,0.9c-0.5,0.6-0.9,1.3-1.3,1.9s-0.8,1.2-1.3,1.8c-0.5,0.7-1,1.3-1.5,1.9c-0.5,0.6-1,1.3-1.5,1.9
			c-0.6,0.7-1.2,1.5-1.8,2.2s-1.2,1.5-1.8,2.2c-0.5,0.6-0.9,1.3-1.3,1.9c-0.4,0.7-0.8,1.3-1.3,2c-0.2-0.1-0.4-0.2-0.5-0.4
			c-0.3-0.4-0.6-0.7-0.9-1c-0.3-0.3-0.6-0.6-0.9-1c-0.2-0.2-0.4-0.4-0.6-0.6c-0.2-0.2-0.4-0.4-0.6-0.6c-0.5-0.6-1-1.2-1.5-1.8
			s-1-1.3-1.5-1.8c-0.7-0.7-1.3-1.4-2-2.1c-0.7-0.7-1.3-1.4-2-2.1c-0.7-0.7-1.4-1.4-2.2-2.1c-0.8-0.7-1.5-1.4-2.2-2.1
			c-0.6-0.5-1.2-1-1.7-1.5s-1.1-1-1.7-1.6s-1.2-1.2-1.7-1.9c-0.6-0.7-1.1-1.3-1.7-2c-0.1-0.1-0.3-0.3-0.4-0.4
			c-0.1-0.1-0.2-0.3-0.3-0.4c-0.1-0.4-0.4-0.6-0.7-0.8c-0.1,0-0.3-0.1-0.4-0.1c-0.1-0.1-0.3-0.1-0.4-0.2c-0.7-0.4-1.3-0.5-1.9-0.4
			s-1.2,0.5-1.7,1.1c-0.2,0.2-0.3,0.4-0.5,0.6c-0.1,0.2-0.2,0.5-0.1,0.7c0.2,1,0.2,1.9,0.1,2.8c-0.1,1-0.2,1.9-0.3,2.9
			c-0.1,0.9-0.2,1.9-0.3,2.9c-0.1,1.8-0.2,3.6-0.2,5.4c0,1.8-0.1,3.6-0.1,5.4c0,1-0.1,1.9-0.1,2.9c-0.1,1-0.1,1.9-0.1,2.9s0,2,0,3
			s0,2,0,3c0,1.1-0.1,2.2-0.1,3.3c0,1.1-0.1,2.2-0.2,3.2c0,0.8-0.1,1.5-0.1,2.3c0,0.7,0,1.5,0,2.3c0,1.5-0.1,2.9-0.1,4.3
			s-0.1,2.8-0.1,4.3c0,1.6,0,3.2,0,4.8c0,1.6,0,3.2,0.1,4.8c0,0.9,0.1,1.8,0.4,2.5c0.3,0.8,0.7,1.5,1.4,2.1c0.4,0.2,0.8,0.2,1.3,0.1
			c0.4-0.1,0.8-0.4,1.2-0.9c0.4-0.5,0.8-1.3,1.2-2.4C19,103.4,19.4,101.7,19.8,100"/>
		<path class="st0" d="M191,53.2c0.1-0.1,0.3-0.2,0.4-0.3l3.9-3.5c0.4-0.3,0.8-0.6,1.2-0.9c0.4-0.3,0.8-0.6,1.2-0.9l0,0
			c0.4-0.3,0.7-0.5,1-0.8c0.3-0.2,0.7-0.5,1-0.7c0.5-0.4,1-0.7,1.5-1.2c0.5-0.4,0.9-0.9,1.3-1.4c0.2-0.2,0.3-0.5,0.5-0.7
			c0.1-0.2,0.2-0.5,0.3-0.8c0-0.2,0.1-0.3,0.1-0.5s0-0.3-0.1-0.5c-0.1-0.5-0.4-0.9-0.9-1.2c-0.4-0.3-0.9-0.4-1.3-0.2
			c-0.3,0.1-0.6,0.2-0.9,0.4c-0.2,0.1-0.5,0.3-0.7,0.5s-0.4,0.3-0.7,0.5c-0.2,0.1-0.5,0.3-0.7,0.5c-0.2,0.1-0.5,0.3-0.7,0.4
			c-0.4,0.3-0.7,0.5-1.1,0.8c-0.4,0.3-0.7,0.5-1.1,0.8c-0.7,0.4-1.3,0.9-1.8,1.4c-0.6,0.5-1.1,1-1.7,1.6c-0.7,0.6-1.3,1.2-1.9,1.8
			c-0.6,0.6-1.3,1.2-1.9,1.8c-0.1,0.2-0.3,0.3-0.4,0.5c-0.1,0.2-0.3,0.4-0.4,0.5c-0.1,0.2-0.3,0.4-0.4,0.7c-0.2,0.4-0.3,0.9-0.3,1.3
			c0,0.5,0.1,1,0.5,1.5c0.2,0.4,0.5,0.6,0.7,0.7c0.3,0.1,0.6,0.1,0.9,0c0.1,0,0.3-0.1,0.5-0.3s0.5-0.4,0.7-0.6
			c0.3-0.3,0.6-0.5,0.9-0.8C190.7,53.4,190.9,53.3,191,53.2"/>
		<path class="st0" d="M578.2,53.2c0.1-0.1,0.3-0.2,0.4-0.3l3.9-3.5c0.4-0.3,0.8-0.6,1.2-0.9c0.4-0.3,0.8-0.6,1.2-0.9l0,0
			c0.4-0.3,0.7-0.5,1-0.8c0.3-0.2,0.7-0.5,1-0.7c0.5-0.4,1-0.7,1.5-1.2c0.5-0.4,0.9-0.9,1.3-1.4c0.2-0.2,0.3-0.5,0.5-0.7
			c0.1-0.2,0.2-0.5,0.3-0.8c0-0.2,0.1-0.3,0.1-0.5s0-0.3-0.1-0.5c-0.1-0.5-0.4-0.9-0.9-1.2c-0.4-0.3-0.9-0.4-1.3-0.2
			c-0.3,0.1-0.6,0.2-0.9,0.4c-0.2,0.1-0.5,0.3-0.7,0.5s-0.4,0.3-0.7,0.5c-0.2,0.1-0.5,0.3-0.7,0.5c-0.2,0.1-0.5,0.3-0.7,0.4
			c-0.4,0.3-0.7,0.5-1.1,0.8c-0.4,0.3-0.7,0.5-1.1,0.8c-0.7,0.4-1.3,0.9-1.8,1.4c-0.6,0.5-1.1,1-1.7,1.6c-0.7,0.6-1.3,1.2-1.9,1.8
			c-0.6,0.6-1.3,1.2-1.9,1.8c-0.1,0.2-0.3,0.3-0.4,0.5c-0.1,0.2-0.3,0.4-0.4,0.5c-0.1,0.2-0.3,0.4-0.4,0.7c-0.2,0.4-0.3,0.9-0.3,1.3
			c0,0.5,0.1,1,0.5,1.5c0.2,0.4,0.5,0.6,0.7,0.7c0.3,0.1,0.6,0.1,0.9,0c0.1,0,0.3-0.1,0.5-0.3s0.5-0.4,0.7-0.6
			c0.3-0.3,0.6-0.5,0.9-0.8C577.9,53.4,578,53.3,578.2,53.2"/>
		<path class="st0" d="M125.4,47.9c-0.1-0.1-0.1-0.3-0.2-0.4l-2.6-3.9c-0.2-0.4-0.5-0.8-0.7-1.1c-0.2-0.4-0.4-0.8-0.7-1.1l0,0
			c-0.2-0.3-0.4-0.7-0.5-1c-0.2-0.3-0.4-0.6-0.5-1c-0.2-0.5-0.5-1-0.8-1.4c-0.3-0.5-0.7-0.9-1.2-1.4c-0.2-0.2-0.4-0.4-0.6-0.5
			c-0.2-0.2-0.4-0.3-0.7-0.5c-0.1-0.1-0.3-0.1-0.5-0.2c-0.2-0.1-0.3-0.1-0.5-0.1c-0.5-0.1-1,0.1-1.4,0.3s-0.6,0.5-0.5,0.9
			c0,0.3,0.1,0.6,0.2,0.8s0.2,0.4,0.3,0.6c0.1,0.2,0.2,0.4,0.4,0.6c0.1,0.2,0.2,0.4,0.3,0.6c0.1,0.2,0.2,0.4,0.3,0.7
			c0.2,0.4,0.4,0.7,0.6,1c0.2,0.4,0.4,0.7,0.5,1c0.3,0.6,0.7,1.2,1,1.8c0.4,0.6,0.8,1.2,1.2,1.7c0.4,0.7,0.9,1.3,1.4,2
			c0.5,0.6,0.9,1.3,1.4,2c0.1,0.2,0.3,0.3,0.4,0.5c0.1,0.1,0.3,0.3,0.4,0.4c0.2,0.2,0.4,0.3,0.6,0.5c0.4,0.2,0.8,0.5,1.3,0.6
			s1,0.2,1.7,0.1c0.4-0.1,0.7-0.2,0.9-0.3s0.2-0.4,0.2-0.7c0-0.1-0.1-0.3-0.2-0.5s-0.3-0.5-0.5-0.7c-0.2-0.3-0.4-0.6-0.7-0.9
			C125.6,48.2,125.5,48,125.4,47.9"/>
		<path class="st0" d="M128.3,48.8c0.1-0.1,0.2-0.2,0.3-0.4l2.5-4c0.2-0.4,0.5-0.7,0.8-1.1c0.3-0.4,0.5-0.7,0.8-1.1l0,0
			c0.2-0.3,0.5-0.6,0.7-0.9c0.2-0.3,0.5-0.6,0.7-0.9c0.4-0.5,0.7-0.9,1-1.4s0.5-1,0.7-1.5c0.1-0.2,0.1-0.4,0.2-0.6
			c0.1-0.2,0.1-0.4,0-0.6c0-0.1-0.1-0.2-0.1-0.3c-0.1-0.1-0.1-0.2-0.3-0.3c-0.3-0.3-0.8-0.4-1.3-0.4c-0.6,0-1,0.1-1.3,0.4
			c-0.3,0.2-0.5,0.4-0.7,0.7c-0.2,0.2-0.3,0.4-0.5,0.6s-0.3,0.4-0.4,0.6c-0.2,0.2-0.4,0.4-0.5,0.6c-0.2,0.2-0.3,0.4-0.5,0.6
			c-0.3,0.3-0.5,0.7-0.7,1s-0.5,0.7-0.8,1c-0.5,0.6-0.9,1.2-1.2,1.7c-0.4,0.6-0.7,1.2-1.1,1.8c-0.4,0.7-0.8,1.3-1.2,2
			c-0.4,0.7-0.8,1.3-1.1,2c-0.1,0.2-0.1,0.3-0.2,0.5s-0.1,0.3-0.2,0.5s-0.1,0.4-0.1,0.6c0,0.4,0.1,0.7,0.3,1
			c0.2,0.3,0.5,0.6,1.1,0.8c0.4,0.1,0.7,0.2,1,0.1c0.3-0.1,0.6-0.2,0.9-0.4c0.1-0.1,0.2-0.2,0.4-0.4c0.1-0.2,0.3-0.5,0.4-0.7
			c0.2-0.3,0.4-0.6,0.5-0.9C128.1,49.1,128.2,49,128.3,48.8"/>
		<path class="st0" d="M363.9,30.2c-0.1-0.1-0.1-0.2-0.2-0.4l-2.6-3.8c-0.2-0.4-0.5-0.7-0.7-1.1s-0.4-0.7-0.7-1.1l0,0
			c-0.2-0.3-0.4-0.6-0.5-0.9c-0.2-0.3-0.4-0.6-0.5-0.9c-0.2-0.5-0.5-0.9-0.8-1.4c-0.3-0.4-0.7-0.9-1.2-1.3c-0.2-0.2-0.4-0.4-0.6-0.5
			c-0.2-0.2-0.4-0.3-0.7-0.5c-0.1-0.1-0.3-0.1-0.5-0.2s-0.3-0.1-0.5-0.1c-0.5-0.1-1,0-1.4,0.3c-0.4,0.2-0.6,0.5-0.5,0.8
			c0,0.3,0.1,0.5,0.2,0.8c0.1,0.2,0.2,0.4,0.3,0.6c0.1,0.2,0.2,0.4,0.4,0.6c0.1,0.2,0.2,0.4,0.3,0.6c0.1,0.2,0.2,0.4,0.3,0.6
			c0.2,0.3,0.4,0.7,0.6,1s0.4,0.7,0.5,1c0.3,0.6,0.7,1.2,1,1.7c0.4,0.6,0.8,1.1,1.2,1.7c0.4,0.6,0.9,1.3,1.4,1.9s0.9,1.3,1.4,1.9
			c0.1,0.1,0.3,0.3,0.4,0.4c0.1,0.1,0.3,0.3,0.4,0.4c0.2,0.2,0.4,0.3,0.6,0.5c0.4,0.2,0.8,0.4,1.3,0.6c0.5,0.1,1,0.2,1.7,0.1
			c0.4-0.1,0.7-0.2,0.9-0.3c0.2-0.2,0.2-0.4,0.2-0.6c0-0.1-0.1-0.3-0.2-0.5s-0.3-0.4-0.5-0.7c-0.2-0.3-0.4-0.6-0.7-0.9
			C364,30.4,364,30.3,363.9,30.2"/>
		<path class="st0" d="M366.7,31c0.1-0.1,0.2-0.2,0.3-0.4l2.5-3.8c0.2-0.4,0.5-0.7,0.8-1.1s0.5-0.7,0.8-1.1l0,0
			c0.2-0.3,0.5-0.6,0.7-0.9s0.5-0.6,0.7-0.9c0.4-0.4,0.7-0.9,1-1.4s0.5-0.9,0.7-1.4c0.1-0.2,0.1-0.4,0.2-0.6s0.1-0.4,0-0.6
			c0-0.1-0.1-0.2-0.1-0.3c-0.1-0.1-0.1-0.2-0.3-0.3c-0.3-0.3-0.8-0.4-1.3-0.4c-0.6,0-1,0.1-1.3,0.4c-0.3,0.2-0.5,0.4-0.7,0.7
			c-0.2,0.2-0.3,0.4-0.5,0.6c-0.1,0.2-0.3,0.4-0.4,0.6c-0.2,0.2-0.4,0.4-0.5,0.6c-0.2,0.2-0.3,0.4-0.5,0.6c-0.3,0.3-0.5,0.6-0.7,1
			c-0.2,0.3-0.5,0.6-0.8,1c-0.5,0.6-0.9,1.1-1.2,1.7c-0.4,0.6-0.7,1.1-1.1,1.7s-0.8,1.3-1.2,1.9s-0.8,1.3-1.1,1.9
			c-0.1,0.2-0.1,0.3-0.2,0.5s-0.1,0.3-0.2,0.5s-0.1,0.4-0.1,0.6c0,0.3,0.1,0.6,0.3,0.9c0.2,0.3,0.5,0.6,1.1,0.8
			c0.4,0.1,0.7,0.2,1,0.1c0.3-0.1,0.6-0.2,0.9-0.4c0.1-0.1,0.2-0.2,0.4-0.4s0.3-0.5,0.4-0.7c0.2-0.3,0.4-0.6,0.5-0.9
			C366.5,31.3,366.6,31.2,366.7,31"/>
		<path class="st0" d="M710.8,48.7c-0.1-0.1-0.1-0.2-0.2-0.4l-2.6-3.8c-0.2-0.4-0.5-0.7-0.7-1.1s-0.4-0.7-0.7-1.1l0,0
			c-0.2-0.3-0.4-0.6-0.5-0.9c-0.2-0.3-0.4-0.6-0.5-0.9c-0.2-0.5-0.5-0.9-0.8-1.4c-0.3-0.4-0.7-0.9-1.2-1.3c-0.2-0.2-0.4-0.4-0.6-0.5
			c-0.2-0.2-0.4-0.3-0.7-0.5c-0.1-0.1-0.3-0.1-0.5-0.2c-0.2-0.1-0.3-0.1-0.5-0.1c-0.5-0.1-1,0-1.4,0.3c-0.4,0.2-0.6,0.5-0.5,0.8
			c0,0.3,0.1,0.5,0.2,0.8c0.1,0.2,0.2,0.4,0.3,0.6c0.1,0.2,0.2,0.4,0.4,0.6c0.1,0.2,0.2,0.4,0.3,0.6c0.1,0.2,0.2,0.4,0.3,0.6
			c0.2,0.3,0.4,0.7,0.6,1c0.2,0.3,0.4,0.7,0.5,1c0.3,0.6,0.7,1.2,1,1.7c0.4,0.6,0.8,1.1,1.2,1.7c0.4,0.6,0.9,1.3,1.4,1.9
			c0.5,0.6,0.9,1.3,1.4,1.9c0.1,0.1,0.3,0.3,0.4,0.4c0.1,0.1,0.3,0.3,0.4,0.4c0.2,0.2,0.4,0.3,0.6,0.5c0.4,0.2,0.8,0.4,1.3,0.6
			c0.5,0.1,1,0.2,1.7,0.1c0.4-0.1,0.7-0.2,0.9-0.3c0.2-0.2,0.2-0.4,0.2-0.6c0-0.1-0.1-0.3-0.2-0.5c-0.1-0.2-0.3-0.4-0.5-0.7
			s-0.4-0.6-0.7-0.9C710.9,49,710.8,48.8,710.8,48.7"/>
		<path class="st0" d="M713.6,49.6c0.1-0.1,0.2-0.2,0.3-0.4l2.5-3.8c0.2-0.4,0.5-0.7,0.8-1.1c0.3-0.4,0.5-0.7,0.8-1.1l0,0
			c0.2-0.3,0.5-0.6,0.7-0.9c0.2-0.3,0.5-0.6,0.7-0.9c0.4-0.4,0.7-0.9,1-1.4s0.5-0.9,0.7-1.4c0.1-0.2,0.1-0.4,0.2-0.6
			c0.1-0.2,0.1-0.4,0-0.6c0-0.1-0.1-0.2-0.1-0.3c-0.1-0.1-0.1-0.2-0.3-0.3c-0.3-0.3-0.8-0.4-1.3-0.4c-0.6,0-1,0.1-1.3,0.4
			c-0.3,0.2-0.5,0.4-0.7,0.7c-0.2,0.2-0.3,0.4-0.5,0.6c-0.1,0.2-0.3,0.4-0.4,0.6c-0.2,0.2-0.4,0.4-0.5,0.6c-0.2,0.2-0.3,0.4-0.5,0.6
			c-0.3,0.3-0.5,0.6-0.7,1s-0.5,0.6-0.8,1c-0.5,0.6-0.9,1.1-1.2,1.7c-0.4,0.6-0.7,1.1-1.1,1.7c-0.4,0.6-0.8,1.3-1.2,1.9
			c-0.4,0.6-0.8,1.3-1.1,1.9c-0.1,0.2-0.1,0.3-0.2,0.5c-0.1,0.2-0.1,0.3-0.2,0.5c-0.1,0.2-0.1,0.4-0.1,0.6c0,0.3,0.1,0.6,0.3,0.9
			c0.2,0.3,0.5,0.6,1.1,0.8c0.4,0.1,0.7,0.2,1,0.1c0.3-0.1,0.6-0.2,0.9-0.4c0.1-0.1,0.2-0.2,0.4-0.4c0.1-0.2,0.3-0.5,0.4-0.7
			c0.2-0.3,0.4-0.6,0.5-0.9C713.4,49.8,713.5,49.7,713.6,49.6"/>
	</g>
</g>
</svg>
