<svg id="Layer_1" data-name="Layer 1" xmlns="http://www.w3.org/2000/svg" viewBox="0 0 2823.31 262.11"><defs><style>.cls-1{fill:#95c11f;}.cls-2{fill:#fff;}</style></defs><path class="cls-1" d="M93.32,225.39h.09s0-.07,0-.11l-.07,0Z"/><path class="cls-1" d="M98.77,221l-4.72.42c-.23,1.4-.43,2.63-.62,3.86l5.51-3.3C98.88,221.66,98.83,221.34,98.77,221Z"/><path class="cls-1" d="M91.1,224.41,86,227.07c2.47-.3,5.15,1.54,7.32-1.68C92.44,225.33,91.32,226.61,91.1,224.41Z"/><path class="cls-1" d="M1260.1,195.18l5.29.48C1261.27,194,1261.27,194,1260.1,195.18Z"/><path class="cls-1" d="M2599.64,160.11l5.29.47C2600.81,158.9,2600.81,158.9,2599.64,160.11Z"/><path class="cls-1" d="M2840.25,152.19l-4.17-5.74-7-268.53,4.56-8.28c-2.92,0-5.65-.16-8.36-.1-5.68.13-11.35.3-17,.59a9.18,9.18,0,0,0-2.82,1.21,7.08,7.08,0,0,0-3.37-1c-3.1,0-6.2,0-9.29.21-3.64.21-7.34-.63-10.89,1.24a1.8,1.8,0,0,1-1.56-.12,10.63,10.63,0,0,0-10.35.75c-.91-.53-1.78-1.47-2.63-1.48-3.57,0-7.13.19-10.69.36-4.11.19-8.21.48-12.32.61-2.46.08-4.93-.13-7.4-.1-5.85.07-11.7.19-17.55.33-.39,0-.78.4-1.27.66.26,1.1.48,2,.72,3.09l-4.37.11-1.38-3.2c-4.63-.06-9.18-.24-13.73-.14-5.4.11-10.8,1-16.19.6s-10.66.81-16,.6c-8.49-.34-17,.33-25.81.59l7.32,3.27c0-.42.08-1,.14-1.87l2.55.87c0,.33.08.65.12.93l-10.25.27c-.68-.3-1.36-.63-2-1-1-.5-2-1.47-3-1.78a18.6,18.6,0,0,0-3.8-.35l-.64,1.89c-5.46-3.34-10.79-1.88-16.2-1.45a8.72,8.72,0,0,1-.06,3.33l-1.34,0c-2.18-4.24-2.26-4.17-4.12-2.42a17.81,17.81,0,0,1,.24,2.52l-2.3.06c-.6-3-.91-3.37-3.06-3.39-2.64,0-5.28.11-7.93.17-3.75.08-7.51.13-11.26.24q-9.35.27-18.67.61a4.3,4.3,0,0,0-1.32.56c2,1.42,4,1.61,5.9,2.76l-3,.08-2.62-.65c-4-1-8-2.62-12-2.73-7.87-.22-15.74.41-23.61.7-7.14.27-14.28.49-21.41.89-1.08.06-2.12,1-3.18,1.58v.95l-4.83-2.47c-4.49,0-9.24,0-14,0-1.34,0-2.74-.32-3.72,1.66a14.43,14.43,0,0,0-3.75-1.11c-5.12-.07-10.25,0-15.38.12-7,.15-13.91.38-20.87.57-4.39.12-8.79.26-13.18.35s-9,.12-13.45.25c-5,.15-10.07.45-15.11.56-7.68.17-15.36.21-23,.34-6,.11-11.91.23-17.85.42a35,35,0,0,0-4.18.64c.13,1.44.22,2.49.3,3.48l-.54,0-4-4-.91,2.86c-.36-1.15-.62-2-.77-2.5l-4.42.51c0,.83.08,1.85.12,2.88-.73-2.83-2.08-3.25-3.53-3.25-1.92,0-3.84.07-5.77.12-6.5.16-13,.26-19.5.51a35.52,35.52,0,0,0-4.91.88c-2.41-2-5,.32-7.35-.4-.4,1.24-.66,2-1.06,3.26l-1.46-3.45L2259.4-116c-.25,1.6-.41,2.61-.62,3.93h-.1l-1.56-3.88-43.54,1,2.39,2.18c-5.34-1-10.56-3.25-16.12-1.28l8.25,3.27-19.42.51c-2.1-.91-4.2-1.78-6.31-2.55a53.7,53.7,0,0,0-7-1.63l-.09,1.18c1.54,1.6,3.65,1.48,5.07,3.22l-2.52.06-3.72-2,0-.1H2174l0,.06.06,0c.15.68.29,1.36.44,2.06l-13.72.36a1.52,1.52,0,0,0-1.86,0l-1.08,0c-2.42-2-4.9-2.39-7.68-2.57.28,1,.53,1.9.76,2.75l-2.73.07-.54-1.42c-.7-1.91-1.56-2.83-2.95-2.71-2.47.2-4.94.19-7.42.15-1,0-1.61.33-1.65,1.72.74.94,1.59,1.67,2.23,2.53l-16.52.43a38.68,38.68,0,0,0-2.42-3.25,2.05,2.05,0,0,0-2.32-.72c-3.84,2.25-7.82.14-11.71.71s-7.81,0-11.72-.06l0,.72,3,1.37c0,.32,0,.65-.08,1a19.33,19.33,0,0,1-2.2-.59c-2.13-.81-4.27-2.35-6.39-2.42-6-.2-12.08.14-18.11.4a4.7,4.7,0,0,0-1.68.48l-2.85.07a14.07,14.07,0,0,0-7.56.19l-7.26.18a1.63,1.63,0,0,0-1.37-.41c-.64.19-1.28.35-1.9.49l-5,.12.1-.27-4.69.3,0,.09-4,.09c-.47-.18-.93-.31-1.33-.45l-.33.49-2.37.06V-110l-.57.18-3.4.08-.09.33c-4-1.78-8.33-.38-12.54,0-3.21.31-6.37-.23-9.55,0-4.39.25-8.78.27-13.18.42-3.93.14-7.87.36-11.81.45-7.39.18-14.78.17-22.17.48-2.08.09-4.14,1-6.2,1.54a12.16,12.16,0,0,1-4.08.74l2.81-1.32c0-.17,0-.34,0-.52-1.9-.1-3.81-.33-5.71-.29-6,.13-11.9.34-17.85.55-7.68.27-15.36.58-23,.85-3.3.12-6.6,0-9.88.35a46.81,46.81,0,0,0-7.2,1.87c-2.68.76-5.36,1.56-8,2.32l-4.48.12-.28-.28,8.56-2.73,0-.9a6.56,6.56,0,0,0-1.61-.28c-3.66.26-7.32,1.05-11,.77-5.91-.45-11.45,2.21-17.1,4l-10.79.28.94-.45c-1.81-3.38-3.66-.38-5.56-1.25l1.23-2.22-16.69.69a1.79,1.79,0,0,1,0,.23l-19.13-.07c-.38,0-.75,0-1.12,0h0c-.6,0-1.2.07-1.79.08-9.71.11-19.42.48-29.13.76a3.14,3.14,0,0,0-1.36.18c-4.16,2.07-8.43.41-12.64.53-1.54,0-3.07.66-4.61.73-1.34.07-2.69-.42-4-.4-7.51.09-15,.21-22.53.4-9.53.24-19,.55-28.58.82a7,7,0,0,1-2.19.08c-1.85-.52-3.45,0-4.81,2.18-.3.48-.82.59-1.51,1.06-.16-1.21-.25-2-.39-3-1.82,0-3.64-.15-5.46-.12-2.65,0-5.31.34-8,.27s-5.3.23-7.31,3.75a3.32,3.32,0,0,1-.26.36l-3,.08c1.24-1.09,2.56-2.24,4-3.52-2-.19-3.28-.43-4.61-.44-3,0-6,0-9,.21a4.06,4.06,0,0,0-2.33,1L1646.25-96l-3,.08c1.34-1.16,2.7-2.38,4.18-3.66-1.85-.09-3.46-.26-5.06-.23-6.3.11-12.61.23-18.91.45-7.68.27-15.36.72-23,1-4.76.16-9.53,0-14.29.19-6,.2-12.07.53-18.1.87a12.78,12.78,0,0,0-2.74.84c-3.06-1.65-6.31-1-10-.12-.37-.17-1-.69-1.53-.68-5.22.09-10.43.47-15.64.32-2.18-.06-3.78,1.65-5.72,3.2l.15.74-3.1.08c.5-1.21,1-2.45,1.45-3.74l-8.07,2.57c0-.26-.14-.93-.31-2A19.74,19.74,0,0,0,1512.42-95c-1.89-2.14-4.37-1-6.76-1.09-2.11-.11-4.21.36-6.32.25a16.1,16.1,0,0,0-5.79.55c-2.73,0-5.29-.14-7.85-.09l-4.33.13c-1.65-.07-3.13-.15-4.59-.12-6,.14-12.08.28-18.12.54-2.19.09-4.37.31-6.56.51-2.55,0-5.13-.28-7.66.39h-5.69a10,10,0,0,0-4.83,0h-5.87a1.09,1.09,0,0,0-.26,0c-1.36,0-2.71,0-4.07.06l-4.56,0c-9.71.16-19.42.51-29.12.77l-29.39.82h-.85l-1.15.05c-5.43.14-10.87.28-16.31.51h0c-4.94-.12-9.82.84-14.76.65-8.49-.34-17,.33-25.81.59l7.32,3.27c0-.42.07-1,.14-1.87l2.55.86c0,.34.08.65.12.94l-10.25.27c-.68-.3-1.37-.63-2.05-1-1-.5-2-1.48-3-1.78a17.92,17.92,0,0,0-3.8-.35l-.64,1.89c-5.46-3.34-10.79-1.88-16.2-1.45a8.67,8.67,0,0,1-.06,3.32l-1.34,0c-2.18-4.24-2.26-4.18-4.12-2.42a16.27,16.27,0,0,1,.23,2.52l-2.29.06c-.6-3-.91-3.37-3.06-3.39-2.64,0-5.29.11-7.93.17-3.76.08-7.51.13-11.26.24q-9.35.25-18.67.61a4.3,4.3,0,0,0-1.32.56c1.95,1.42,4,1.6,5.9,2.76l-3,.08-2.62-.65c-4-1-8-2.63-12-2.74-7.87-.22-15.74.41-23.61.71-7.14.26-14.28.48-21.41.89-1.08.06-2.12,1-3.18,1.58v1l-4.83-2.47h-14c-1.34,0-2.74-.33-3.72,1.66a14.43,14.43,0,0,0-3.75-1.11c-5.13-.08-10.25,0-15.38.12-7,.15-13.91.37-20.87.57-4.4.12-8.79.25-13.18.35s-9,.12-13.45.25c-5,.15-10.07.45-15.11.56-7.68.17-15.36.21-23,.34-6,.1-11.91.22-17.86.41a37.44,37.44,0,0,0-4.17.65c.13,1.43.22,2.49.3,3.48h-.54l-4-4c-.38,1.17-.6,1.88-.91,2.85-.36-1.15-.62-2-.77-2.49l-4.42.5c0,.83.08,1.86.12,2.88-.73-2.83-2.08-3.24-3.53-3.24-1.92,0-3.84.07-5.77.12-6.5.15-13,.26-19.51.51a34.2,34.2,0,0,0-4.9.88c-2.41-2-4.95.32-7.35-.4-.4,1.24-.67,2-1.06,3.25L963-82.08l-43.17,1.16c-.26,1.61-.42,2.62-.62,3.94h-.1l-1.56-3.87-43.54,1,2.38,2.18c-5.33-1-10.55-3.26-16.11-1.28l8.25,3.27-19.43.51c-2.09-.91-4.19-1.79-6.3-2.56a55.09,55.09,0,0,0-7-1.62c0,.39-.05.78-.08,1.18,1.54,1.6,3.65,1.48,5.07,3.21l-2.53.07-3.71-2,0-.1h-.09l0,0,.06,0c.15.67.29,1.35.44,2.06l-13.72.36a1.53,1.53,0,0,0-1.86,0l-1.08,0c-2.42-2-4.9-2.38-7.68-2.56l.76,2.74-2.73.08c-.19-.48-.37-1-.54-1.42-.7-1.91-1.56-2.83-3-2.72a73.44,73.44,0,0,1-7.42.16c-1,0-1.61.33-1.65,1.72.74.94,1.59,1.66,2.23,2.53l-16.52.43c-.81-1.18-1.59-2.28-2.42-3.26a2.07,2.07,0,0,0-2.32-.72c-3.84,2.26-7.82.15-11.71.72s-7.81,0-11.72-.07l0,.73,3,1.36c0,.33,0,.66-.08,1-.73-.2-1.48-.32-2.2-.59-2.13-.82-4.27-2.35-6.39-2.42-6-.2-12.08.14-18.11.39a4.87,4.87,0,0,0-1.68.49l-2.86.07a13.94,13.94,0,0,0-7.55.19l-7.26.18a1.58,1.58,0,0,0-1.37-.41c-.64.19-1.28.35-1.9.49l-5,.12c0-.09.06-.18.1-.28l-4.69.31,0,.08-4,.1c-.47-.18-.93-.32-1.33-.45-.11.16-.22.33-.34.49l-2.36.06V-75l-.56.18-3.4.09-.09.33c-4-1.78-8.33-.38-12.54,0-3.21.31-6.37-.23-9.55,0-4.39.25-8.78.27-13.18.42-3.93.14-7.87.36-11.81.45-7.39.17-14.78.17-22.17.48-2.08.09-4.14,1-6.2,1.54a12.16,12.16,0,0,1-4.08.74l2.81-1.32c0-.17,0-.35,0-.52-1.91-.1-3.81-.33-5.72-.29-5.94.13-11.89.34-17.84.54-7.68.27-15.36.58-23,.86-3.3.11-6.61,0-9.89.35a47,47,0,0,0-7.19,1.87c-2.68.76-5.36,1.55-8.05,2.32l-4.48.11-.28-.28,8.56-2.72,0-.9A6.56,6.56,0,0,0,539.3-71c-3.66.26-7.32,1-11,.77-5.91-.45-11.45,2.21-17.1,4L500.44-66l.94-.45c-1.81-3.38-3.66-.38-5.56-1.25l1.23-2.22-16.69.69a1.79,1.79,0,0,1,0,.23l-19.13-.07a10.46,10.46,0,0,0-1.12,0h0c-.6,0-1.2.07-1.79.08-9.71.11-19.42.48-29.13.76a3.12,3.12,0,0,0-1.36.18c-4.16,2.06-8.43.41-12.64.52-1.54,0-3.07.67-4.61.74-1.34.06-2.69-.42-4-.4q-11.26.12-22.54.4c-9.52.24-19.05.54-28.57.82a7.35,7.35,0,0,1-2.19.08c-1.85-.52-3.45,0-4.82,2.17-.3.48-.81.6-1.5,1.07-.16-1.22-.25-2-.4-3-1.81,0-3.63-.16-5.45-.12-2.65,0-5.31.33-8,.27s-5.3.23-7.31,3.74a2.68,2.68,0,0,1-.26.37l-3.05.08c1.24-1.1,2.56-2.24,4-3.52-1.95-.2-3.28-.44-4.61-.44-3,0-6,0-9,.21a4.11,4.11,0,0,0-2.33,1l-3.81,3.17-3,.08c1.34-1.16,2.7-2.38,4.18-3.66-1.85-.09-3.46-.26-5.06-.23-6.31.11-12.61.22-18.91.45-7.68.27-15.36.71-23,1-4.76.17-9.53,0-14.29.2-6,.2-12.07.52-18.1.87a12.24,12.24,0,0,0-2.74.84c-3.06-1.66-6.31-1-10-.12-.37-.17-1-.69-1.53-.68-5.22.08-10.43.47-15.64.32-2.18-.06-3.78,1.65-5.73,3.2.05.24.11.49.16.74l-3.1.08c.5-1.21,1-2.46,1.45-3.74L183.36-59c0-.27-.15-.93-.31-2a19.64,19.64,0,0,0-10.17,1.08c-1.89-2.14-4.37-1-6.76-1.09-2.11-.11-4.21.36-6.32.25-3.51-.18-6.85.12-10,3.1a7.58,7.58,0,0,1-1.13.87l-5.18.14,2.24-1.24c-1.59-3.09-2.79.76-4.33-.28.4-.61.71-1.1,1.29-2-2-.06-3.71-.18-5.42-.14-6,.14-12.08.27-18.12.54-3.38.14-6.76.57-10.14.81-1.63.11-3.27.08-4.9.09-8.16,0-16.31-.06-24.46.08-9.71.16-19.42.5-29.12.77l-29.39.82C15-57,8.9-56.88,2.8-56.62a7.19,7.19,0,0,0-2.37.92c-2.63-.71-5.1-1.13-7.57.81-1.62-1.36-11.39-1.51-14.68,0l7.16,10.72L-7.88,214.6l-6.91.23c.15,5.73.22,8.3.39,14.39a11.52,11.52,0,0,0,3.22,1c6-.06,12.08,0,18.1-.55,2.12-.19,4.17-1.83,6.26-2.75a20.9,20.9,0,0,1,2.16-.7c.05.32.09.65.14,1l-2.91,1.52c0,.24,0,.48.07.72,3.9-.27,7.81-1,11.7-.67s7.78-1.95,11.73.1a2.07,2.07,0,0,0,2.28-.84c1.4-1.84,2.62-4.06,4.15-6.51l-.5-.38,16.66-.44a8.64,8.64,0,0,0-.82,2c-.48,1.67-1.78,2.66-2.82,4.13.12,1.38.78,1.7,1.74,1.63a73.47,73.47,0,0,1,7.42-.23c1.39,0,2.21-.93,2.8-2.87.49-1.59,1-3.14,1.68-4.95l1.67-.05.49.61-1.26,5.66c3-.35,5.62-.86,8.1-3.5,1.44,1.81,2.71.13,4-.76s2.28-1.59,3.41-2.39l17.38-.46-1.82.77c-.79,4.82-4,4-6,6.26l.15,1.18a57.18,57.18,0,0,0,6.88-2c3.69-1.57,7.33-3.48,11-5.3l2.48-1.25,20.19-.53L119.21,226c5.66,1.69,10.75-.84,16-2.12L133,226.22,176.5,225l1.41-4.14c.3,1.41.52,2.42.87,4.08l43.17-1.1c.33-.89.72-2,1.28-3.52.46,1.18.76,2,1.23,3.2,2.36-.85,5,1.33,7.32-.79a35,35,0,0,0,4.94.63c6.51-.1,13-.33,19.51-.52,1.92-.05,3.85-.07,5.77-.18,1.44-.08,2.77-.56,3.35-3.43,0,1,0,2.06,0,2.89l4.44.27c.12-.49.34-1.37.64-2.53.36.95.62,1.65,1.06,2.8l4.35-4.79c0,1.18-.08,2.37-.14,4.1a34.89,34.89,0,0,0,4.2.42c5.95-.12,11.9-.31,17.85-.52,7.68-.27,15.35-.63,23-.86,5-.15,10.08-.12,15.12-.23,4.48-.11,9-.32,13.44-.46s8.79-.23,13.18-.33c7-.18,13.92-.32,20.88-.53,5.12-.16,10.25-.34,15.36-.69a14,14,0,0,0,3.69-1.3c1.08,1.93,2.46,1.54,3.8,1.47,4.74-.27,9.49-.51,14-.74l4.69-2.72.06,1c1.08.49,2.17,1.41,3.25,1.41,7.14,0,14.29-.12,21.43-.23,7.87-.12,15.76.1,23.62-.53,4-.32,7.91-2.17,11.85-3.36,2.27-.69,4.54-1.44,6.86-1.95-2.07,2.29-4.68,2.26-7,4.15a4.42,4.42,0,0,0,1.35.49q9.34-.15,18.68-.37c3.75-.08,7.51-.23,11.26-.35,2.64-.08,5.29-.08,7.93-.25,2.22-.13,2.45-.53,2.92-3.87a6.13,6.13,0,0,0-2-3.1l3.62-.09a13.2,13.2,0,0,1,.52,6c2,1.73,2,1.73,4.26-3.23,1.61-.1,1.31,1.86,1.3,3.88,5.42.15,10.82,1.32,16.1-2.3.27.66.5,1.25.74,1.85a18,18,0,0,0,3.78-.54c1-.36,1.91-1.39,2.9-1.94a29.93,29.93,0,0,1,4.36-2.09c1.2-.41,2.4-.64,2.85-2.58l3.74-.1,1.42,1.66c0,.41-.1,1.39-.2,2.72l-2.49,1c-.12-.87-.19-1.44-.25-1.86l-7.13,3.65c8.83-.21,17.34,0,25.8-.76,5.35-.5,10.69.4,16-.24s10.8-.08,16.2-.25c4.55-.14,9.08-.56,13.7-.86l2.52-6.78,4.9-.13a10.45,10.45,0,0,0-.6,5l-1-2.79c-.3,1.66-.52,2.91-.8,4.46.5.24.91.61,1.3.59,5.85-.16,11.7-.34,17.55-.58,2.46-.1,4.92-.44,7.38-.49,4.11-.09,8.22,0,12.33,0,3.57,0,7.14,0,10.7-.21.85-.05,1.66-1,2.54-1.61,3.43,1.77,6.91,2.05,10.38.21a1.8,1.8,0,0,1,1.55-.2c3.65,1.68,7.3.65,10.94.67,3.1,0,6.2-.1,9.29-.28a7.08,7.08,0,0,0,3.32-1.17,9.13,9.13,0,0,0,2.87,1.06c5.67,0,11.35-.13,17-.29,2.23-.07,4.46-.26,6.8-.43a10.32,10.32,0,0,0,5-.67,7.41,7.41,0,0,0,2.42.79c6.1-.06,12.2-.24,18.3-.38l29.4-.73c9.71-.24,19.42-.41,29.12-.75,8.15-.29,16.29-.8,24.43-1.2,1.63-.08,3.27-.19,4.9-.17,3.39.06,6.78.31,10.17.28,6-.05,12.08-.23,18.12-.41,1.71-.05,3.42-.26,5.41-.43l-1.39-1.9c1.48-1.12,2.88,2.66,4.3-.51l-3.39-1.64a7.2,7.2,0,0,1,7.45,1.19c3.33,2.82,6.68,2.94,10.18,2.58,2.1-.22,4.22.14,6.32-.08,2.38-.25,4.92.79,6.7-1.45a19.52,19.52,0,0,0,10.21.55c.11-1,.18-1.7.21-2l8.19,2.14c-1.06-2.51-2.2-4.84-3.37-7.09l3.75-.09c.45.56.89,1.14,1.33,1.7-.13.89-.25,1.69-.37,2.49,2,1.44,3.71,3.07,5.88,2.89,5.2-.42,10.42-.31,15.63-.49.58,0,1.14-.57,1.5-.76,3.69.69,7,1.17,9.94-.64a12.24,12.24,0,0,0,2.78.69c6,0,12.08,0,18.12-.08,4.76-.09,9.52-.46,14.28-.55,7.69-.14,15.38-.1,23.07-.23,6.31-.11,12.61-.32,18.9-.54,1.61-.06,3.2-.31,5-.5-2.51-2-4.73-3.77-7-5.43l-1.86-1.36,3-.08q4.23,3.19,8.42,6.32a4.17,4.17,0,0,0,2.39.88c3,0,6-.1,9-.27,1.33-.07,2.64-.38,4.58-.68-3.19-2.54-5.78-4.52-8.3-6.67l6.52-.17,1.57,1.24-3.06.49c1.14,1,1.91,1.28,2.42,2.08,2.19,3.4,4.78,3.56,7.5,3.35s5.31-.05,8-.14c1.81-.06,3.62-.27,5.43-.41.09-1.09.14-1.82.24-3,.72.44,1.23.53,1.56,1,1.47,2.11,3.1,2.54,4.92,1.92a7.64,7.64,0,0,1,2.19,0c9.53-.22,19-.41,28.58-.67q11.26-.32,22.53-.78c1.34,0,2.67-.61,4-.61,1.54,0,3.1.53,4.64.49,4.21-.1,8.39-2,12.65-.14a3.16,3.16,0,0,0,1.37.11c9.71-.22,19.42-.36,29.13-.76.59,0,1.19,0,1.79,0h0a10.32,10.32,0,0,0,1.11-.06l19.11-1.07,0,.23,16.71-.18-1.35-2.15c1.85-1,3.85,1.92,5.49-1.55l-4.38-1.81c0-.41.09-.82.14-1.24,1.68.37,3.35.73,5,1.12a18.46,18.46,0,0,0,2.13.54,42.4,42.4,0,0,1,5.74.43c6.13,1.42,12.17,4.17,18.45,3.36,3.63-.47,7.33.13,11,.2a6.72,6.72,0,0,0,1.6-.37c0-.3,0-.6,0-.9l-8.69-2.27a2.1,2.1,0,0,1,2.13-1c3.59.77,7.18,1.67,10.77,2.49a47.16,47.16,0,0,0,7.29,1.49c3.29.21,6.59-.11,9.89-.17l8.82-.13a4,4,0,0,0,1.2.22c5.85-.06,11.71-.06,17.54-.52,4.45-.08,8.89-.17,13.34-.31,1.9-.06,3.79-.39,5.69-.59v0a27.27,27.27,0,0,0,3.91-.47,14.46,14.46,0,0,0,3.6.54c1,0,2,0,3-.06l.14.06a1.55,1.55,0,0,0,1.35-.09c4.75-.12,9.5-.32,14.26-.48l.28,10.51,72.55-.55s-.23-8.89.33-11.72h.11l.75.15a1.65,1.65,0,0,0,1.36-.48l6.14-.17-.23.23,2.25-.06a13.65,13.65,0,0,0,5.69-.17l8.55-.24a2.5,2.5,0,0,0,.47,0l26.57-.76c.45-1.31.84-2.46,1.42-4.13.29,1.4.51,2.41.86,4.08l43.17-1.11c.33-.89.72-2,1.28-3.52.46,1.18.76,2,1.23,3.2,2.36-.85,5,1.33,7.32-.79a35,35,0,0,0,4.94.63c6.51-.1,13-.33,19.51-.51,1.92-.06,3.85-.08,5.77-.19,1.44-.08,2.77-.56,3.35-3.42,0,1,0,2.05,0,2.88l4.44.27c.13-.49.35-1.36.64-2.53.36,1,.62,1.66,1.06,2.81l4.35-4.8c0,1.19-.08,2.37-.14,4.1a35.21,35.21,0,0,0,4.2.43c6-.12,11.9-.32,17.85-.52,7.68-.28,15.35-.63,23-.87,5-.15,10.08-.11,15.12-.23,4.48-.11,9-.32,13.44-.46s8.79-.22,13.18-.33c7-.18,13.92-.31,20.88-.53,5.12-.16,10.25-.34,15.36-.68a14.8,14.8,0,0,0,3.69-1.3c1.08,1.92,2.46,1.53,3.8,1.46,4.75-.27,9.49-.5,14-.74l4.7-2.71c0,.31,0,.63,0,.94,1.08.49,2.17,1.41,3.25,1.41,7.15,0,14.29-.12,21.43-.23,7.87-.11,15.76.1,23.62-.53,4-.32,7.91-2.17,11.85-3.36,2.28-.68,4.54-1.44,6.86-1.94-2.07,2.29-4.68,2.26-7,4.14a4.17,4.17,0,0,0,1.35.49q9.34-.13,18.68-.36c3.75-.09,7.51-.24,11.26-.35,2.64-.08,5.29-.09,7.93-.25,2.22-.14,2.45-.53,2.93-3.88a6.12,6.12,0,0,0-2-3.09l3.62-.1a13.22,13.22,0,0,1,.52,6c2,1.73,2,1.73,4.26-3.23,1.61-.09,1.31,1.87,1.3,3.88,5.42.15,10.82,1.33,16.11-2.3l.73,1.86a18,18,0,0,0,3.78-.55c1-.36,1.91-1.38,2.9-1.93a28,28,0,0,1,4.36-2.09c1.2-.42,2.4-.65,2.86-2.59l3.73-.1,1.42,1.66c0,.41-.1,1.39-.2,2.72l-2.49,1c-.12-.87-.19-1.44-.25-1.86l-7.13,3.65c8.83-.21,17.34,0,25.8-.76,5.35-.49,10.69.4,16-.24s10.8-.08,16.2-.24c4.55-.14,9.08-.56,13.71-.87.85-2.3,1.68-4.55,2.51-6.78l4.9-.13a10.47,10.47,0,0,0-.6,5c-.28-.8-.57-1.61-1-2.79-.3,1.66-.52,2.91-.8,4.47.5.24.91.6,1.3.59q8.78-.24,17.55-.59c2.46-.1,4.92-.44,7.38-.49,4.11-.08,8.22,0,12.33,0,3.57,0,7.14,0,10.7-.2.85-.06,1.67-1,2.54-1.62a10.6,10.6,0,0,0,10.38.21,1.82,1.82,0,0,1,1.56-.2c3.64,1.69,7.29.65,10.93.67,3.1,0,6.2-.1,9.29-.28a7.06,7.06,0,0,0,3.32-1.16,9.1,9.1,0,0,0,2.87,1.05c5.67,0,11.35-.12,17-.29,2.23-.07,4.46-.25,6.8-.43a10.2,10.2,0,0,0,5-.67,7.5,7.5,0,0,0,2.42.8c6.1-.07,12.2-.24,18.31-.39l29.39-.73c9.71-.24,19.42-.4,29.12-.75,8.15-.29,16.29-.8,24.43-1.2,1.63-.08,3.27-.19,4.91-.16,3.38.05,6.77.31,10.16.27,6,0,12.08-.23,18.12-.4,1.71,0,3.42-.27,5.41-.44l-1.39-1.9c1.48-1.12,2.88,2.66,4.3-.51l-3.39-1.64a7.18,7.18,0,0,1,7.45,1.2c3.33,2.81,6.68,2.93,10.18,2.57,2.1-.22,4.22.14,6.32-.08,2.38-.24,4.92.8,6.7-1.44a19.73,19.73,0,0,0,10.21.55c.11-1,.18-1.71.21-2l8.19,2.15c-1.06-2.51-2.19-4.85-3.37-7.09l3.75-.1,1.33,1.71-.37,2.48c2,1.45,3.71,3.07,5.88,2.9,5.2-.43,10.42-.31,15.64-.5.57,0,1.13-.57,1.49-.76,3.69.69,7,1.17,9.94-.64a12.24,12.24,0,0,0,2.78.69c6,0,12.08,0,18.12-.08,4.76-.09,9.52-.46,14.28-.55,7.69-.14,15.39-.1,23.08-.23,6.3-.1,12.6-.32,18.9-.54,1.6-.05,3.2-.31,5-.49-2.51-2-4.73-3.78-7-5.44l-1.86-1.36,3-.08q4.23,3.19,8.42,6.32a4.12,4.12,0,0,0,2.39.88c3,0,6-.1,9-.27,1.32-.07,2.63-.38,4.57-.67-3.18-2.55-5.78-4.53-8.3-6.68l6.52-.17,1.57,1.25-3.06.48c1.14.95,1.91,1.29,2.42,2.08,2.19,3.4,4.78,3.56,7.5,3.36s5.31-.06,8-.15c1.81-.06,3.62-.26,5.43-.4.09-1.09.15-1.83.24-3.05.72.43,1.23.52,1.56,1,1.48,2.12,3.1,2.54,4.92,1.93a7.29,7.29,0,0,1,2.19-.05c9.53-.21,19.06-.41,28.58-.67q11.27-.3,22.53-.78c1.34-.05,2.67-.6,4-.61,1.54,0,3.1.53,4.64.5,4.21-.11,8.39-2,12.65-.14a3.16,3.16,0,0,0,1.37.11c9.71-.23,19.43-.37,29.13-.77.59,0,1.19,0,1.79,0h0c.37,0,.74,0,1.11-.07l19.11-1.06,0,.22,16.71-.18-1.35-2.15c1.85-1,3.85,1.93,5.49-1.54l-4.38-1.81c0-.42.09-.83.14-1.24l5,1.11a16.62,16.62,0,0,0,2.13.54,42.4,42.4,0,0,1,5.74.43c6.13,1.42,12.17,4.17,18.45,3.36,3.63-.46,7.33.13,11,.2a6.61,6.61,0,0,0,1.6-.37c0-.3,0-.6,0-.9l-8.69-2.27a2.1,2.1,0,0,1,2.13-1c3.59.78,7.18,1.67,10.77,2.49a48.41,48.41,0,0,0,7.29,1.5c3.29.2,6.59-.12,9.89-.17,7.68-.13,15.37-.23,23-.36,6-.1,11.9-.2,17.85-.39,1.9-.06,3.79-.39,5.69-.59,0-.17,0-.35,0-.52l-2.88-1.17a12.26,12.26,0,0,1,4.12.53c2.09.46,4.2,1.23,6.28,1.21,7.39-.08,14.77-.47,22.16-.68,3.94-.12,7.88-.1,11.82-.17,4.39-.08,8.79-.29,13.18-.27,3.18,0,6.32-.69,9.53-.55,4.23.18,8.59,1.35,12.53-.64l.1.33,3.41-.09.57.15a1,1,0,0,1,0-.17l2.36-.06.36.47c.39-.16.84-.32,1.3-.52l4-.11,0,.08,4.7.06c0-.09-.08-.18-.11-.27l5-.14c.62.11,1.27.23,1.91.39a1.61,1.61,0,0,0,1.36-.48l7.26-.2a13.94,13.94,0,0,0,7.55-.21l6.84-.19a2.59,2.59,0,0,0,2.19-.06l10.26-.28h.88Zm-749.46,16.09-.16.69-1.8-.73-.45-.73,1.81,0ZM751.25,203.35l-.16.7-1.8-.74-.45-.72,1.81-.05ZM2783-125.78h-.44l.18-.65Zm-63.06.17a12,12,0,0,0,0,1.48h-.47C2719.7-124.66,2719.84-125.14,2720-125.61Zm-9-.57c.28.74.54,1.51.81,2.26l-.93,0A14.71,14.71,0,0,0,2711-126.18Zm-224.48,7.48c-.28.29-.51.52-.71.7l-1.4,0a18.28,18.28,0,0,1-1.15-2.15Zm-66.19,2c.07,0,.14.19.22.45l-5.05.13-.17-.32C2417.1-116.59,2418.71-116.73,2420.32-116.74Zm-26.8.28c1.13-.32,2.12-1,3.05-.8,5.36,1.29,10.81-.48,16.29,1.17l-18.76.49C2393.91-115.86,2393.71-116.14,2393.52-116.46Zm-83.77,3.07-1.21,0c-.15-.7-.29-1.41-.45-2.1A5,5,0,0,1,2309.75-113.39Zm-11.56-1.36.46-.24c.17.61.35,1.22.53,1.88l-.85,0C2298.29-113.65,2298.24-114.2,2298.19-114.75ZM2114-108.26l-2.19.05c0-.56,0-1.13.06-1.81C2112.6-109.47,2113.3-108.85,2114-108.26Zm-115.42,2.78-.15.24h-.18ZM1147-83.62l-.71.7-1.4,0a17.47,17.47,0,0,1-1.15-2.15Zm-66.19,2c.07,0,.14.19.22.45l-5,.13-.17-.32C1077.56-81.52,1079.17-81.66,1080.78-81.66Zm-26.8.28c1.13-.32,2.12-1,3-.8,5.36,1.29,10.81-.49,16.29,1.17l-18.76.49C1054.37-80.78,1054.17-81.07,1054-81.38Zm-83.77,3.07-1.21,0c-.15-.71-.29-1.41-.45-2.1A5,5,0,0,1,970.21-78.31Zm-11.56-1.36.46-.25.53,1.88-.85,0C958.75-78.57,958.7-79.12,958.65-79.67ZM774.46-73.19l-2.19.06c0-.56,0-1.13.06-1.81C773.06-74.39,773.76-73.77,774.46-73.19ZM659-70.4l-.15.24h-.18C658.82-70.24,658.93-70.33,659-70.4ZM122.25-56.11l-2.06.06,2-.64C122.2-56.49,122.23-56.3,122.25-56.11Zm-15.75.41-1.22,0c.61-.31,1.22-.6,1.84-.89ZM-7-52.72l-.82,0,.14-.29ZM38.86,222.14c-3-.6-5.18,2.38-7.72,4.53-.07-.8-.12-1.45-.18-2.11l-3.18.18-.15-1c1.23-.5,2.47-.92,3.68-1.53a13.92,13.92,0,0,0,1.47-.88l6.75-.18C39.34,221.43,39.13,221.73,38.86,222.14Zm26.67-1.52-.64.69-.57-.8,1.19,0Zm98.91.58L162.1,220c.16-.74.31-1.39.45-2l1,0c0,.5-.07,1-.1,1.42l1.21,1.15C164.6,220.72,164.52,221,164.44,221.2Zm4.17-3.38v0l.71,0,0,.31Zm48.85,3.82c0-1.67.1-3.33.16-5.14l1.54,0c-.52,2.24-.88,3.82-1.24,5.4Zm6.61-4-.36-1.33,2.11-.06.18.42Zm3.31,4.16c.32-1.87.56-3.81,1-5.61l1.56,0C229.41,218.39,229,220.66,227.38,221.83Zm45.53-6.53,0-.25,1.61,0a2.7,2.7,0,0,1,0,.28Zm129.63,2c1.37-3.23,1.39-3.21,3.18-1.59ZM340,215.74c-.18.63-.3,1.49-.45,1.49-1.61.08-3.22,0-5,0,.39-.81.59-1.24,1-2.05-6.44,4.52-13.22,1.9-19.66,3.81-.91.27-1.93-.38-3.08-.64a7.81,7.81,0,0,1,5-4.11l1.14-.4,20.05-.53a5.41,5.41,0,0,0-1.37,1.83Zm283.62-9.87.51,0-.41,1C623.65,206.47,623.62,206.16,623.59,205.87Zm8.38.52a46.15,46.15,0,0,0-1.69,5.06c0-1.93-.64-3.88-.79-5.74l2.88-.07C632.23,205.88,632.1,206.13,632,206.39Zm68.64-2.54,2.83-.07c-.5,1.42-1,2.74-1.45,4.16Zm15.12-.4.87,0-1.05.51Zm139.75-3.66,3.78-.09a42.35,42.35,0,0,1,3.77,4.21A27.57,27.57,0,0,1,855.48,199.79Zm22.59,3.47-5.48-1.43c0-.22,0-.43.07-.65l5.46,1.43C878.1,202.83,878.09,203,878.07,203.26ZM890,200c0-.32,0-.65,0-1l7-.08C894.69,202.35,892.36,199.27,890,200Zm40.41-2.15,1,0,0,.27,2.79,1.68C932.54,200.42,931.41,199.29,930.43,197.83Zm9.31.67a4.23,4.23,0,0,1-2.21-.85l1.89-.05Zm34.82-1.64-.08-.18h.11Zm123.7-3.42,4.56-.12a8.3,8.3,0,0,1,.63.68C1101.38,195.64,1099.75,194.89,1098.26,193.44ZM1279,188.7l.93,0A1.54,1.54,0,0,1,1279,188.7Zm41.1.58c1.21-1.37,2.38-1.14,3.44.9ZM1504,186.12l-2.35-1.24c.16-.73.31-1.39.45-2l1,0c0,.49-.07,1-.1,1.41l1.21,1.16C1504.14,185.64,1504.06,185.88,1504,186.12Zm4.16-3.38v0h.71l0,.31Zm48.85,3.82c0-1.67.1-3.33.16-5.14l1.54,0c-.52,2.24-.88,3.83-1.24,5.4Zm6.62-4c-.13-.45-.25-.89-.37-1.33l2.11,0c.06.14.12.27.18.42Zm3.3,4.16c.32-1.87.56-3.8,1-5.61l1.56,0C1569,183.31,1568.49,185.58,1566.92,186.75Zm45.53-6.53,0-.25,1.61,0a2.89,2.89,0,0,1,0,.29Zm129.63,2c1.37-3.24,1.4-3.22,3.18-1.59Zm-62.57-1.57c-.18.62-.3,1.48-.45,1.49-1.61.08-3.22,0-5,0,.39-.81.59-1.24,1-2-6.43,4.51-13.22,1.89-19.65,3.8-.92.27-1.94-.38-3.09-.64a7.81,7.81,0,0,1,5-4.11l1.14-.4,20-.53a5.41,5.41,0,0,0-1.37,1.83Zm283.62-9.88h.51l-.41.95C1963.19,171.4,1963.16,171.09,1963.13,170.79Zm8.38.52a48.38,48.38,0,0,0-1.69,5.06c0-1.93-.63-3.87-.79-5.73l2.88-.08C1971.77,170.81,1971.64,171.05,1971.51,171.31Zm68.64-2.54,2.83-.07c-.5,1.42-1,2.74-1.45,4.16C2041,171.39,2040.61,170.12,2040.15,168.77Zm15.12-.39.87,0-1,.51C2055.15,168.69,2055.21,168.54,2055.27,168.38ZM2195,164.72l3.78-.1a42.35,42.35,0,0,1,3.77,4.21A27.53,27.53,0,0,1,2195,164.72Zm22.59,3.46-5.47-1.43.06-.64,5.46,1.43C2217.65,167.75,2217.63,168,2217.61,168.18Zm11.95-3.28c0-.32,0-.64,0-1l7-.09C2234.23,167.27,2231.9,164.2,2229.56,164.9Zm40.41-2.14,1,0,.05.27,2.79,1.68C2272.08,165.34,2271,164.22,2270,162.76Zm9.31.67a4.24,4.24,0,0,1-2.21-.86l1.89,0C2279.07,162.82,2279.17,163.11,2279.28,163.43Zm34.82-1.65-.08-.18h.11Zm123.7-3.42,4.56-.12a8.3,8.3,0,0,1,.63.68C2440.92,160.56,2439.29,159.81,2437.8,158.36Zm180.75-4.73.92,0A1.59,1.59,0,0,1,2618.55,153.63Zm41.09.57c1.21-1.37,2.38-1.14,3.44.9Zm90.52-3.61a4.33,4.33,0,0,1-.47-.4l2.2-.05,2.57,3.64C2753,152.87,2751.58,151.61,2750.16,150.59Zm81-2.53h.44c0,.14.07.29.11.43Zm5.09,2.91-3.44-2.95,1.95-.05,1.8,2.08C2836.43,150.36,2836.32,150.67,2836.22,151Z"/><path class="cls-2" d="M1440.69,143.51a1.81,1.81,0,0,0-2.87,0Zm1.5-1.52c1.26,2.34,3.19,1.47,5,1.5-1.32-2.15-2.65-2.52-5-1.5m-13.57,2c.29-1.55-.21-2.21-1.78-2.49-1.84-.34-3.19.74-3.61,3l5.39-.5m-25.17,8.24h8.24c-1.87-3.45-5.58-3.57-8.24,0m8,10.41a3.28,3.28,0,0,0-4.15-1.1c-2.06.73-2.89,1.79-3,3.75l4.83.85,2.27-3.5m-.74,9c-1.06-2.78-2.8-4.16-5.09-4.14-2.11,0-3.92,1.57-4.74,4.14Zm24-29.54c-3.25-.59-4-.31-4.19,1.67,1.34-.07,2.67-.17,4-.19a2.35,2.35,0,0,0,1.91-.87,4.07,4.07,0,0,1,4-1.34c.32.05.64.06,1,.09-.24-2.82-1.7-4.36-3.93-4.23a2,2,0,0,0-2.11,1.81c-.21,1-.43,1.95-.68,3.06m-30.32,6.42c-1.48-2.83-3.61-3.19-5.17-.69a11.27,11.27,0,0,1,1.16,1.13c.45.58,1.11,1.27.37,2s-1.09-.22-1.53-.68c-2.42-2.58-6.31-1.64-7.37,1.89,1.57.82,3.17.07,4.73.09s3.37,0,4.71,0l3.1-3.72m45.21,19.26,2.3,3.39h8.15a4.75,4.75,0,0,0-2.31-4.94,6.81,6.81,0,0,0-8.14,1.55m-30.74,3.87a9.55,9.55,0,0,1,2.79-6.75c-1.44-2-2.8-2.45-5.36-2-2.83.5-4.8,2-5.47,4.68l2,4.07Zm16.67,0c.1-4.18-3-7.53-6.66-7.53a7.73,7.73,0,0,0-8,7.53Zm15.72-7.89a6.42,6.42,0,0,0-5.82-4.49c-3.13-.27-5.52,1-6.73,3.5a17.5,17.5,0,0,1-.71,1.71,1.16,1.16,0,0,1-1,.48,1.18,1.18,0,0,1-.62-.91,4,4,0,0,1,.3-1.59c.33-.91.83-1.79-.14-2.62a3.1,3.1,0,0,0-2.81-.8,5.54,5.54,0,0,0-3.83,3c5,1.32,7.2,4.79,7.85,9.48,4.13.35,10.35.08,11.9-.6a20.32,20.32,0,0,0-2.39-2,8.82,8.82,0,0,0-5.63-1.27c-.61.07-1.36.45-1.85-.69a5.61,5.61,0,0,1,1.35-1c2.39-.8,4.62.1,6.62.82l3.47-3.09m-12.06,28,.41.49c-2.95.32-5.89.77-8.85.93-4,.21-8,.15-12,.29A209.83,209.83,0,0,1,1397,193c-1.11-.08-2.23,0-3.44,0v10.61c11.67-1.12,23.35-1.24,35-1.62s23.44-.43,35.28-.63v-8.91h-12a3.74,3.74,0,0,1-3.11-1c2.54-1.29,5.12-.85,7.63-.9s5.07,0,7.68,0c.28-2.51.56-5,.86-7.69-5.63,0-11.08-.12-16.53,0-9.92.27-19.84.72-29.76,1-3.91.12-7.83.17-11.74.13a9.47,9.47,0,0,1-4.95-1c10.51-.81,21-1.43,31.51-2a228.46,228.46,0,0,1,31.72.12l1.55-7.27c-.53,0-1-.11-1.46-.11-5.88,0-11.75,0-17.62,0q-26.13.22-52.27.5c-.64,0-1.28,0-1.73,0,.08,1.69.2,3.19.21,4.69,0,3.77,0,7.54,0,11.46,1.72.12,3.52.28,5.34.39,10,.6,20,.31,30,.26,3.37,0,6.73.48,10.09.73M1391.4,149l1.37-1.11-1.32-.62c-2.82-.84-4,0-4,2.79l3,.41c.26-.44.57-.95.87-1.47m74.92,48.45q-.06,3.1-.13,6.22l-1.43.31c-3.77,0-7.55.17-11.33.12-10.13-.14-20.24.28-30.35.73-8.16.36-16.32.58-24.48.81a28.58,28.58,0,0,1-4.43-.37c-.4-.06-.75-.44-1.11-.7-.14-.1-.24-.41-.34-.4-1.91.12-1.78-1.25-1.77-2.51.07-6.76.16-13.52.23-20.28,0-.87,0-1.75,0-2.74l-12.7.33V174c0-4.83-.06-9.65-.07-14.48,0-1.17.07-2.34.11-3.51h.62c.22,2,.44,3.94.66,5.94l6,.71c-1.81,1.41-3.91,1-6,1.32.1,1.6.2,3.15.31,4.79,3.2.34,6.36.2,9.42,1-3,1.15-6,.8-9.22.88v6.47l10.86-1c.24-.57.53-1.24.84-2-.23-.35-.5-.71-.74-1.1a1.18,1.18,0,0,1,.34-1.79c2.4-1.62,4.83-3.21,7.4-4.91-.22,1.91-.36,2.11-3.59,5.31h3.47c.37-2.38,1.84-4,3.85-5.4-.88-2,.23-3.6,1.54-5.34h-3.68c1.18-1.18,1.24-1.18,7.14-1.7,2.49-.22,5-.49,7.39-.72-.29-1.47-.57-2.87-.88-4.38-2.75,0-5.56,0-8.38,0q-11.34.09-22.67.18a9.78,9.78,0,0,1-1.2-.13c.64-1.21,1.88-.77,2.85-1.06a15.62,15.62,0,0,1,2.57-.39c.79-.09,1.59-.13,2.83-.22a4.11,4.11,0,0,0-4-.32c-.42.15-1,.43-1.28.26-1.29-.88-2.73-.51-4.09-.69,1-1.42,2.37-1.32,3.79-1,.43.08.85.24,1.48.43-.32-2.47,0-4.51,2.36-5.47a4.69,4.69,0,0,1,5.78,1.39h3.5a4.1,4.1,0,0,1,4.29-2.32,4,4,0,0,1,3.62,3,29,29,0,0,1,4.78,1.09,5.8,5.8,0,0,1,3.08,3.65l2.92.27c.47,1.89.73,3.68-.39,5.46l1.08,1.4c-1.63,1-3.31.26-5,.66l1,1.54a10.51,10.51,0,0,1,7.9-.33,25.4,25.4,0,0,1,1.38-3.4,9.25,9.25,0,0,1,1.91-2.1,1.83,1.83,0,0,1,2.26-.25c.83.52.76,1.41.49,2.23a10.18,10.18,0,0,1-2.57,4.61c-.29-.14-.86-.31-.84-.41a9.56,9.56,0,0,1,.46-2c.24-.68.56-1.32,1-2.38-2.07,2.12-2.42,3.68-1.5,5.78l1.43-.66,3.06-.94a6.41,6.41,0,0,1,4.4-4.7c2.45-.88,4.49-.13,6.25,1.91,1.63-1.08,3.36-2.12,5.36-1.95s3.79.65,5.8,1c-.12-1.32-.25-2.73-.4-4.31-2.31-.15-4.63.74-7.33-.07,2.43-1.46,4.88-1.3,7.16-1.94V149.4c-4.46-.32-8.9.91-13.36.19,4.26-1.71,8.74-1.94,13.24-2,.15-.79.27-1.46.43-2.32-9.16,0-18.24.35-27.3.93-.32,1.17-.62,2.26-1,3.49a3.82,3.82,0,0,1-.35-4.94,2.15,2.15,0,0,0,.44-.83c1.33-4,4.31-5.16,7.89-2.93.11.07.25.1.08,0l4.06-.91c.35-.92.5-2.19,1.2-2.9a5.93,5.93,0,0,1,3-1.37c2.28-.41,4.15,1.23,5.2,4.33,2.55,0,5,.35,6,3.32l2.12.2c.08,4.67.17,9.27.19,13.87,0,.46-.47.92-.72,1.39l3.08,4.46c5.78.11,8.24,2.51,8.64,7.9H1464c-.36-.71-.68-1.34-1.24-2.42l6.56,3c0,.44-.08,1-.13,1.47-.07.23-.15.45-.22.68-.17,1-.34,2-.5,3-.42.23-.54.49-.1.82l-1.12,6.64c-.41.22-.54.49-.09.82-.11.83-.22,1.66-.32,2.49-.43.24-.51.51-.07.83-.09,1.45-.19,2.89-.28,4.34l-.06,1.92c0,.27,0,.53,0,.8a1.06,1.06,0,0,0,0,1.64"/><path class="cls-2" d="M1326.49,151.05c.09.89.17,1.71.28,2.92,1-1.56,1.86-2.77,2.66-4a1.94,1.94,0,0,0,.17-.53c-.5-.05-1.46.45-3.11,1.61m4-3.56c4.5,1.18,8.47-.86,9.54-4.89a12.22,12.22,0,0,1-7.71,1.81l-1.83,3.08m-12.1,7.21c.12,3.13.29,6.29.35,9.46.08,4.14.14,8.28.08,12.42a21.13,21.13,0,0,1-.72,4c-.07.35-.39.64-.88,1.39a10.47,10.47,0,0,1-.45-1.82c-.11-4.49-.16-9-.26-13.46-.08-3.45-.2-6.89-.31-10.34A13.25,13.25,0,0,0,1316,155c-1,.19-1.19,1-1.61,1.55a18.07,18.07,0,0,1-2.22,2.88,26,26,0,0,1-11.58,5.59,16.93,16.93,0,0,1-3.58,0c-.19,7.59.35,15,3.23,22.42.35-.67.52-1,.69-1.36l.56-1.12c1.14,2.64,1.48,4.93.37,7.4-1.38-.17-1.93-1.14-2.5-2a22.8,22.8,0,0,1-2.94-7.22c-2.23-9.67-2.65-19.37-.29-29.09a26.43,26.43,0,0,1,4.67-9.55,17.55,17.55,0,0,1,2.14-2.08l.44.3a38.94,38.94,0,0,1-1.63,4.13,33.92,33.92,0,0,0-3.75,9.77c-.35,1.95-.6,3.91-.93,6.11a22.34,22.34,0,0,0,3.65-.23,24,24,0,0,0,13.22-7.47,8.64,8.64,0,0,1,4.24-2.43c5.31-1.74,10-4.52,12.25-10.23a13.59,13.59,0,0,0,.76-7.52c-.25-1.34-.54-2.69-.72-4a2.87,2.87,0,0,1,.25-1.53c1.58-3.32,1.31-5.77-1-8.52a14.29,14.29,0,0,0-5.58-3.62c-.93-.4-1.86-.79-2.78-1.21a6.24,6.24,0,0,1-.76-.63l2.26-.68a10.83,10.83,0,0,0-.72-10.85A22.6,22.6,0,0,0,1310.18,94a13.53,13.53,0,0,0-10.47.41c-2.44,1.17-4.08.33-5.76-1.11a11.77,11.77,0,0,0-4.47-2.3,8.38,8.38,0,0,0-6.8,1c-1.13.65-1.16.6-2.2.11l-.61,1.37c-.27,0-.5.07-.65,0-5-2.85-13.71-.79-16.54,7.45a32,32,0,0,0-1,5.67,5,5,0,0,0,0,1.44c.51,3.76-.91,6.43-4,8.61a24.36,24.36,0,0,0-5.3,5.33c-1,1.29-1.22,3.13-1.72,4.76a9.3,9.3,0,0,0,0,2.12c-.62-.55-1-.74-1.16-1.06a5.94,5.94,0,0,1,.27-4.81,20.6,20.6,0,0,1,5.43-7.62c.72-.62,1.44-1.26,2.21-1.81a4.26,4.26,0,0,0,1.78-3.74,36.33,36.33,0,0,1,0-4.55c.73-6.38,3.46-11.46,9.46-14.09a11.33,11.33,0,0,1,11.66,1.07c1.77-3.41,4.8-4.29,8.3-3.81,3.3.46,6.26,1.63,7.9,5.07,2.6-1.33,5.2-2.66,8.21-2.58,1.89-3.82,5-5.8,9-6.71a9.77,9.77,0,0,1,7,1,3,3,0,0,0,2.87.22,7.22,7.22,0,0,1,7,.72,15.55,15.55,0,0,1,7.2,10.3,5.71,5.71,0,0,1,.07,2.06,1.09,1.09,0,0,1-.75.74,1.17,1.17,0,0,1-.86-.65,18.35,18.35,0,0,1-.43-2,14.65,14.65,0,0,0-4.76-7.75,7.4,7.4,0,0,0-5.16-2,3,3,0,0,0-1.38.22c-1.65.95-3.17.59-4.83-.09a10.22,10.22,0,0,0-11.9,3c-.16.2-.29.43-.52.79.67.18,1.22.36,1.78.47,6.37,1.36,11.12,5.15,14.7,10.51,2.71,4,3.64,8.43,1.34,13.19l1.85.86a12.18,12.18,0,0,1,6.4,6.31,8.32,8.32,0,0,1-1.05,8.76c2,3.53,1.72,7.26.91,11.2.76,0,1.35,0,1.91-.13,4.8-.88,10-6.24,9.64-11.72a9.26,9.26,0,0,0-1.77-5c-1.07-1.49-1-2.09.4-3.31.36-.31.78-.55,1.14-.86,5.17-4.42,6.08-12.53-.43-17.4-1.72-1.28-3.34-2.84-5.57-3.25-.13,0-.21-.28-.33-.46,3.09-.58,6.64,1.2,9.83,4.55a2.73,2.73,0,0,1,2.41-2.62,10.28,10.28,0,0,1,11.68,5.64,6.42,6.42,0,0,1,0,5.58,16,16,0,0,1-.82,1.66,3.46,3.46,0,0,0,.06,3.53c.86,1.86,1.69,3.75,2.42,5.67a8.84,8.84,0,0,1,.37,5.09c-.73,3.24-3.14,4.43-6.36,2.91.43-.32.71-.68,1.06-.77,2.61-.63,3.51-1.64,3.23-4.3a23.56,23.56,0,0,0-1.26-4.76,12.69,12.69,0,0,0-1.15-2.41,6,6,0,0,1,0-6.42,6,6,0,0,0-2.79-8.6,8.46,8.46,0,0,0-6.69-.45c-.61.21-1.24.36-2,.58a12.78,12.78,0,0,1,2.16,10.11,13.58,13.58,0,0,1-5.79,8.5c.21.32.38.6.57.87a10.73,10.73,0,0,1,1.36,10,11.36,11.36,0,0,1-1.5,3.14,20.35,20.35,0,0,0-3.65,7.11c-1,3.71-4.2,5.15-7.78,5.58a22.15,22.15,0,0,1-2.59,0c-1.21,2.75-2.48,5.48-3.62,8.27a5.94,5.94,0,0,0-.4,2.61c.38,4.68.85,9.34,1.3,14,.12,1.23.32,2.46.49,3.77l4.65.55c0,.14,0,.29,0,.43a4.39,4.39,0,0,1-1.14.58c-1.66.3-3.33.6-5,.74a1.88,1.88,0,0,1-1.52-.67c-.46-.82.34-1.18.71-1.39-.54-4.47-1.22-8.82-1.57-13.2s-.38-8.69-.55-13.14l-6,2"/><path class="cls-2" d="M1538.05,143c-2,2.81-3.11,6.05-4.31,9.25-.48,1.29-.83,2.62-1.28,3.92a1.59,1.59,0,0,0,.8,2.08,4.1,4.1,0,0,0,.71.39c5.31,2.11,10.68,2.74,16.18.77a15.81,15.81,0,0,0,10.23-15.54,11.06,11.06,0,0,1,.28-3.21c2.12,1.2,1.66,3.32,1.85,5.27a4.46,4.46,0,0,0,2.7-1.41,13.63,13.63,0,0,0,4.07-6.54,9.68,9.68,0,0,0-5.47-11.75c-.37-.17-.84-.2-1.11-.46s-.81-.85-.77-1.23c.08-.74.79-.91,1.42-.76a11.72,11.72,0,0,1,1.7.66c.31.13.61.28,1,.47a9.13,9.13,0,0,0,1-4.31c.58-7-4.56-14.6-11.11-16.45a12.27,12.27,0,0,0-7.55.41c-.93.33-1.91.5-2.92.75,0-2.11.46-2.47,4.86-3.69a29.72,29.72,0,0,0,0-3.4c-.49-4.12-4.37-6.72-8.14-5.19-1.64.66-2.75-.17-4.08-.48-.29-.08-.54-.58-.72-.94a5.49,5.49,0,0,0-5.84-3.18,5.4,5.4,0,0,0-1.21.12,5.51,5.51,0,0,1-5.07-.78,10.27,10.27,0,0,0-7.43-1.26,7.85,7.85,0,0,0-5.94,4.2,31.11,31.11,0,0,0-1.77,4.16,13.59,13.59,0,0,1-3.94,5.91c-1.59,1.38-3.07,2.9-4.58,4.38a3.85,3.85,0,0,1-2.76,1.48,4,4,0,0,1,1.32-3.28c1.54-1.55,3.13-3,4.75-4.51a8.75,8.75,0,0,0,2.91-4.78,8.05,8.05,0,0,1-1.41-.8c-5.42-4.76-12.92-1.46-15.25,4.85a15.53,15.53,0,0,0-.6,2.82c-.17.93-.26,1.88-.39,2.85-1.47-.57-1.73-1.34-1.86-5.14a3.43,3.43,0,0,0-3.62,1.47,8.82,8.82,0,0,0-1.8,6c0,.68.18,1.37.15,2.06,0,.34-.31.91-.53.94a1.39,1.39,0,0,1-1.16-.43,6.19,6.19,0,0,1-.8-2.3,10.59,10.59,0,0,1,2.37-7.7,5.39,5.39,0,0,1,6.13-2.08c2.38-4.58,5.83-7.67,11.06-7.9,3.18-.13,6.17.67,8.39,3.66,1.6-4,4-7.15,8.36-8a13.62,13.62,0,0,1,11.4,2.66,7.88,7.88,0,0,1,6.75-.55,7.75,7.75,0,0,1,4.74,4.94c3.54-2,6.94-1.75,10,.88a8.09,8.09,0,0,1,2.52,9c6.21.17,10.74,3.31,14,8.38a17.1,17.1,0,0,1,1.62,16.51c3.54,3.48,4.92,7.81,3.38,12.72-1.45,4.57-4.1,8.2-9.08,9.56-.18.56-.36,1.22-.6,1.85-2.73,7.09-7.79,11.2-15.15,12.41-5.12.84-9.88-.38-14.79-2.5a28.06,28.06,0,0,0-.39,2.9q-.26,9.42-.43,18.84a8.22,8.22,0,0,0,1.27,4.75l1.63-3.86.55.06c.15.89.33,1.77.43,2.66.16,1.44.24,2.89.39,4.32.08.75,0,1.44-.73,1.72a1.24,1.24,0,0,1-1.76-.89c-.21-.75-.7-.95-1.27-1.32-2-1.29-2.6-3.43-2.93-5.66a15.73,15.73,0,0,1-.11-2.48c0-7.17-.16-14.36.86-21.49a37.22,37.22,0,0,1,4-12.07,12.77,12.77,0,0,1,4.47-4.95l.38.25"/><path class="cls-2" d="M1506.52,174.63a15.12,15.12,0,0,1-1.22-3c-.7-3.7-.34-7.43-.18-11.15.06-1.38.16-2.75.24-4.26l-4.28-1.33c-.06,2.4-.06,4.63-.17,6.85s-.25,4.41-.49,6.6-.61,4.49-.94,6.82a5.52,5.52,0,0,1,1.41.27,1.31,1.31,0,0,1,.69.87c0,.31-.35.66-.6.95a.76.76,0,0,1-.56.18,16.14,16.14,0,0,1-5.37-1c2.16-.55,2.24-2,2.52-3.44a95.22,95.22,0,0,0,1.31-19.15l-4.57-3.66a6.81,6.81,0,0,1-5.08.67,53.55,53.55,0,0,1-5.38-1.78c0,.83,0,1.74,0,2.65s0,1.77,0,2.85c1.09-.2,2-.26,2.26,1,.19,1.09-.34,1.84-1.75,2.47.1,1.7.2,3.41.31,5.11l-.36.22a3.67,3.67,0,0,1-.82-.8c-1.51-3-1.78-6.19-2-9.43a22.78,22.78,0,0,1,0-4.13c.25-1.91-.64-3.06-2.24-4.26-.12,5,.77,9.82-.89,14.46-1.11-.21-1-.87-1-1.49-.15-3.72-.32-7.44-.45-11.17,0-1.12,0-2.22-1.6-2.82l2.35-1.81c-1.71-3.18-1.13-6.38.45-9.53.49-1,1-2,1.45-2.95a5.54,5.54,0,0,0,0-5.16c-.77-1.61-1.64-3.18-2.27-4.85a6,6,0,0,1,1.78-7.08,3.89,3.89,0,0,1,1.62-.72,1.24,1.24,0,0,1,1,.51c.14.18,0,.67-.11.94a5,5,0,0,1-.82.9,4.2,4.2,0,0,0-1,5.39c.53,1.18,1.13,2.34,1.76,3.48a8.25,8.25,0,0,1,.13,7.92c-.63,1.3-1.24,2.61-1.83,3.92a7,7,0,0,0,.77,7.4,14.79,14.79,0,0,0,7.88,6.14,8.28,8.28,0,0,0,4.38.11c-.42-1-.78-1.83-1.16-2.68-1.21-2.67-2.07-5.42-1.36-8.4.25-1.05.68-2.06,1-3.09-6.57-7.39-4.07-15.19,5.66-17.39-.82-3.48-.74-6.76,2.4-9.31.87,1.18-.1,2.06-.17,3s-.4,2.18-.41,3.26a19.82,19.82,0,0,0,.39,3l2.15,1.07c-2.07.6-4.07,1.08-6,1.77-5.55,2-7,7.55-3.23,12.23.64.8,1.31,1.56,1.93,2.3-1,2.16-2.07,4.18-1.6,6.59a16.34,16.34,0,0,0,4,8.2,16.17,16.17,0,0,0,10.61,5,8.88,8.88,0,0,0,6.29-1.73l-2.85-4.91a24.42,24.42,0,0,1-2.41-5.22c1.09-.2,1.46.45,1.87.93,3.47,4,5.79,8.73,8,13.56s2.15,9.73,2.49,14.7a39.52,39.52,0,0,1-1.55,13.5,58.63,58.63,0,0,1-2.16,5.57c1.45.26,3.16-.56,4.7.74a9.6,9.6,0,0,1-1.84.88c-1.44.36-2.9.62-4.36.86-1.17.19-2.35-.8-3.56,0a2.61,2.61,0,0,1-1.09-1.19c-.45-1.46,0-7.33.53-8.94,2.35,2.33,1.62,5.44,2.24,8.32.36-.28.78-.43.92-.73a39.43,39.43,0,0,0,3.85-18,73.59,73.59,0,0,0-.92-10.71c-.45-2.45-1.74-4.73-2.59-6.94l-7.16,2.19c-.29,5.47-.72,11.23,0,17l-1,.78"/><path class="cls-2" d="M1252.87,143.24a13.68,13.68,0,0,0,2.44,7.31,15.34,15.34,0,0,0,8.52,5.87c-.1-1.53-1.12-2.95.24-4.48.49.83,1,1.58,1.43,2.4,1.65,3.4,4,6.07,7.59,7.3,2.66.9,5.27,1.2,7.61-.92a4.41,4.41,0,0,1,1.17-.55q-1.66-3.46-3.32-6.91l.37-.36a4.09,4.09,0,0,1,1,.57,24.45,24.45,0,0,1,6,11.74,29.15,29.15,0,0,1,.64,5.11,90.59,90.59,0,0,1-.65,20,3.61,3.61,0,0,1-.37,1.38c-.23.33-.76.71-1.08.65a1.45,1.45,0,0,1-.8-1,5.4,5.4,0,0,1,.14-1.63,93.72,93.72,0,0,0,.16-23.31,15.52,15.52,0,0,0-.54-2.41c-.21-.72-.5-1.42-.81-2.26-2.63,3.52-6.08,3.58-9.71,2.49a13.59,13.59,0,0,1-8.51-6.86c-1,1.21-2.13,1-3.25.51a17.11,17.11,0,0,1-9.15-8.91,11.85,11.85,0,0,1-.7-4,1.54,1.54,0,0,1,1.53-1.71Z"/><path class="cls-2" d="M1360.57,148.72l2-1.2c-.86-3.6-.13-7.2-.19-10.8l-1.79-.76c.62-.55,1-1,1.46-1.28,1.09-.8,2.21-1.56,3.3-2.37.6-.44,1.26-.67,1.82-.08s.24,1.39-.31,2c-.32.34-.67.65-1,1,.46.9,1.14.81,1.91.7a16.35,16.35,0,0,1,3.2-.21c3.67.18,5.81-1.9,5.49-5.63a14.4,14.4,0,0,0-1.1-3.72,30.75,30.75,0,0,0-1.4-2.74,3.88,3.88,0,0,1,0-3.91,5.46,5.46,0,0,0,.56-4.55c-1-3.08-5.08-4.24-7.19-3-.27.16-.57.28-1,.46a1.91,1.91,0,0,1,1.17-2.59,6.21,6.21,0,0,1,4.73-.19,6.93,6.93,0,0,1,4.22,9.58,4.18,4.18,0,0,0,.22,4.25,20,20,0,0,1,1.89,4.32,7.85,7.85,0,0,1-7.91,10.17,15,15,0,0,0-2,.05c-1.18.07-2.35.18-3.73.29-.24,2.7-.5,5.69-.77,8.78.57,0,1.36,0,2.15,0a2.85,2.85,0,0,1,1.33.34,1.34,1.34,0,0,1,.51,1c0,.23-.36.58-.64.7-1.34.6-5.34.24-6.94-.62"/><path class="cls-2" d="M1518,135.46c-4.92-1.56-6.59-3-6.17-5.78.8.51,1.53.93,2.2,1.41a8.13,8.13,0,0,0,6.65,1.68,4.11,4.11,0,0,0,.78-.34c-1.16-2.2-3.09-4-2.91-6.78.56.71,1.14,1.41,1.67,2.14a24.09,24.09,0,0,0,9.46,7.53,7.61,7.61,0,0,0,5.9.44,19.13,19.13,0,0,1,2.19-.43c-1,1.91-1.73,3.51-2.66,5-1.15,1.78-2.47,3.45-3.73,5.15a5.7,5.7,0,0,1-1.08,1.21,1.7,1.7,0,0,1-2.24,0c-1.4-1.09-1.78-4.14-.7-5.83,1.31.54,1.21,2,2.05,3.1l3.74-5.09a16.9,16.9,0,0,1-9.55-4.47l-3.69,1.17a33.66,33.66,0,0,1,4.43,14.23,29.4,29.4,0,0,1,0,3c-1.29-1.35-2.22-2.35-2.44-3.72a63.05,63.05,0,0,0-3.45-12.07c-.18-.51-.27-1.05-.4-1.54"/><path class="cls-2" d="M1291.5,149.15c1-1.54,1.92-2.75,2.71-4a67.58,67.58,0,0,1,8.56-11c.44-.45.79-1.17,1.85-.87a38.62,38.62,0,0,1-2.17,3.23,68.35,68.35,0,0,0-7.56,11.23,12.55,12.55,0,0,1-1.87,2.67c-1.36,1.45-2.74,1.35-3.9-.29a13.36,13.36,0,0,1-1.48-2.92c-.61-1.59-1.1-3.24-1.69-5a7.69,7.69,0,0,1-6.26-.56,22.3,22.3,0,0,1,3.38-1.3,14.87,14.87,0,0,0,7.54-4.58,14.81,14.81,0,0,1,4.19-2.83c.11,2.25-1,3.66-6.52,8.07.94,2.57,1.48,5.34,3.22,8.15"/><path class="cls-2" d="M1411.84,134c-.34-1.15-.95-1.64-1.84-1.47a1.16,1.16,0,0,0-1.06,1.47Zm8.88,0c.43-.79.66-1.59-.06-2.1a2.32,2.32,0,0,0-1.71-.18c-.36.08-.66.61-.89,1-.39.66-.85.83-1.49.39-.32-.21-.66-.39-1-.57-.66.39-1.32.62-1.23,1.46Zm-7.55-1.31c1.09-1.26,2.24-2,3.78-1.13,1.23-1.3,2.57-2,4.22-1.13.46.23,1,.59,1.19,1a34.16,34.16,0,0,1,.8,3.71h-15a3.64,3.64,0,0,0-.27.65,3.07,3.07,0,0,0,0,.66h14.84v1.65a1.51,1.51,0,0,1-.42.16c-4.38,0-8.76,0-13.15,0a1.94,1.94,0,0,0-2.21,1.45c-.19-1.91-.37-3.31-.46-4.72a2.12,2.12,0,0,1,.39-1c.18-.35.48-.64.66-1,1.4-2.73,3.57-2.94,5.63-.32"/><path class="cls-2" d="M1461.09,132.37a3,3,0,0,1-3.68.32c-2-1.11-3.55-2.54-3.63-5.06a2.61,2.61,0,0,0-1-1.91c-2.62-2.45-3-4.7-1.41-7.92,1.93-3.77,4.9-6.07,9.31-5.3a4.28,4.28,0,0,1,1.75.86,1.15,1.15,0,0,1,.07,1.09,1,1,0,0,1-1,.38,5,5,0,0,0-5,.46,8.4,8.4,0,0,0-3.53,4.36,3.39,3.39,0,0,0,.69,4,6.91,6.91,0,0,1,2.12,4.31,3.85,3.85,0,0,0,2.23,2.76c.91.53,1.86,1,3,1.66"/><path class="cls-2" d="M1348.85,142.35a9.8,9.8,0,0,1-1.73-.51,1,1,0,0,1-.43-.8,1.07,1.07,0,0,1,.61-.69,4,4,0,0,1,1.2,0,6.35,6.35,0,0,0,6.4-6.47c0-.62,0-1.24,0-1.86,0-.12.12-.23.22-.4.94-.29,1.27.35,1.5,1.12a7,7,0,0,1-.75,5.37,8.08,8.08,0,0,1-4.9,4c0,3.08-.07,6.16-.14,9.24s.26,6.12-.27,9.62a6.22,6.22,0,0,1-1.38-3.6c-.15-4.2-.25-8.39-.35-12.59,0-.75,0-1.5,0-2.37"/><path class="cls-2" d="M1466.41,133c-3.47-2.78-4-4.19-2.84-6.75s3-3.64,5.4-3.07a6.26,6.26,0,0,0-3.22,3.56c-.62,1.79-.57,2.23.8,3.4.21.18.43.33.65.5,1.73,1.42,1.75,1.72,1.16,3.86a12.1,12.1,0,0,0-.59,4,6.65,6.65,0,0,0,3.81,5.69c.28.14.55.33,1,.59a2.34,2.34,0,0,1-2.8.61,5,5,0,0,1-2.77-2.28,9.81,9.81,0,0,1-1.23-8.1c.18-.66.41-1.31.65-2"/><path class="cls-2" d="M1469.28,121.69a4.69,4.69,0,0,1-1.43.07c-2.13-.8-4.93-4.66-3.64-7.89,1.83-4.56,4.87-7.94,9.6-9.34a11.45,11.45,0,0,1,4,0,1.11,1.11,0,0,1,1.06,1.28c-.1.76-.7,1-1.36.87-5.06-.72-7.82,2.5-10.27,6.24a4.34,4.34,0,0,0-.1,5c.68,1.1,1.31,2.23,2.18,3.73"/><path class="cls-2" d="M1346.2,163c2.14-.09,4.4-1.13,7.08.18-.84.51-1.26,1-1.69,1-2.69,0-5.33,1-8.13.74a86.4,86.4,0,0,0,.89-14.84,5.34,5.34,0,0,1,.1-1.84,1.7,1.7,0,0,1,1.09-.92c.25-.06.77.47.91.84a4.22,4.22,0,0,1,.16,1.63c-.12,4.33-.26,8.65-.41,13.22"/><path class="cls-2" d="M1379.42,114.53a4.71,4.71,0,0,1,5.87-.71c2.29,1.41,4.18,5.36,3.66,8a7.34,7.34,0,0,1-1.42,2.63c-.19.27-.83.2-1.27.28-.07-.44-.32-1-.18-1.3a8.29,8.29,0,0,0,.48-4,5.17,5.17,0,0,0-4.58-4.88c-.73-.07-1.46,0-2.56,0"/><path class="cls-2" d="M1252.88,143.28c-.13-.18-.22-.42-.39-.52-3.68-2.29-5.56-5.92-5-9.79a4,4,0,0,1,2.38-3.53,12.07,12.07,0,0,1,0,2.58c-.81,3.25.48,5.76,2.56,8,.19.2.39.38.58.57,1.35,1.35,1.35,1.41-.14,2.63,0,0,0,0,0,0"/><path class="cls-2" d="M1275.16,143.1a25.7,25.7,0,0,1,9.53,7.58,1.18,1.18,0,0,1,.07,1.67,1,1,0,0,1-1.6-.06c-2.8-2.94-5.58-5.9-8.36-8.85l.36-.34"/><path class="cls-2" d="M1313.1,182.16c-.28-.67-.73-1.22-.69-1.72.29-3.45,0-7,1.08-10.71a9.69,9.69,0,0,1,1.3,4.59c0,1.64.06,3.28.08,4.93a2.88,2.88,0,0,1-1.77,2.91"/><path class="cls-2" d="M1461.94,145.6a6.73,6.73,0,0,1-.8-1.67c-.26-2.31-.5-4.62-.6-6.94,0-.43.61-1.06,1.07-1.26.26-.11,1.11.43,1.17.76.47,2.91.81,5.84-.84,9.11"/><path class="cls-2" d="M1279.56,184.8c0-1-.1-2.06-.14-3.08a2.71,2.71,0,0,1,0-1,5.53,5.53,0,0,1,.73-1.1,4,4,0,0,1,1,.84,2.36,2.36,0,0,1,.25,1.19q.12,3.39.18,6.78a1.78,1.78,0,0,1-.22,1c-.21.28-.66.66-.89.59a1.43,1.43,0,0,1-.87-.88,8.05,8.05,0,0,1,0-1.84V184.8h0"/><path class="cls-2" d="M1538.45,184.35a20.5,20.5,0,0,1,.43,6.55c0,.66-.47,1.25-1.17,1.11a1.64,1.64,0,0,1-1.12-.95,8.93,8.93,0,0,1,.94-6.34c.12-.18.46-.2.92-.37"/><path class="cls-2" d="M1380,139.78a12.55,12.55,0,0,1-.52-2.07c-.13-1.42-.18-2.86-.21-4.3,0-.76.33-1.38,1.15-1.39s1.18.64,1.23,1.37a12.31,12.31,0,0,1-1.08,6.16c0,.08-.23.1-.57.23"/><path class="cls-2" d="M1413.41,139.35c2.53,0,5.06,0,7.59,0,.41,0,.82.44,1.38.76-1.69.89-6.88.58-9-.79"/><path class="cls-2" d="M1275.43,181.88c1.89,2,2.52,5.42,1.32,7.49-.36-.48-.8-.82-.91-1.25-.47-2-1.2-3.93-.41-6.24"/><path class="cls-2" d="M1506.52,174.63l1-.78c.75.23.49-.41.55-.71.21-1,.2-2.18,1.19-3,1.2.43,1,1.57,1.13,2.41a7.19,7.19,0,0,1-.4,2.57.93.93,0,0,1-.84.38c-.5-.2-.91-.78-1.4-.84s-.83.81-1.26,0"/><path class="cls-2" d="M1385,125.52c1.1-.38,1.67,0,1.89.82a3.48,3.48,0,0,1-.84,3.41,2.64,2.64,0,0,1-3.27.7c1.89-1.24,2.88-2.78,2.22-4.93"/><path class="cls-2" d="M1305.32,186.58a8.6,8.6,0,0,1,.24,5,1.36,1.36,0,0,1-.91.88,1.39,1.39,0,0,1-1.11-.61c-.63-1.19.44-4.34,1.78-5.26"/><path class="cls-2" d="M1342.3,162.43a7.43,7.43,0,0,1-.34,1.83,1.48,1.48,0,0,1-1,.75c-.22,0-.71-.47-.75-.79a18.37,18.37,0,0,1-.19-3.47c0-.42.58-.8.9-1.19.36.35.85.65,1,1.08a7.1,7.1,0,0,1,.35,1.79"/><path class="cls-2" d="M1309.42,187.6c.89,1.25,1.06,3.35.28,4.37a1.26,1.26,0,0,1-1,.47,1.65,1.65,0,0,1-1-.88,3.73,3.73,0,0,1,1.67-4"/><path class="cls-2" d="M1541.53,188.73c1,1.26,1.23,3.18.51,4.21a1.41,1.41,0,0,1-1.13.59,1.58,1.58,0,0,1-.92-.91c-.49-1.19.2-2.91,1.54-3.89"/><path class="cls-2" d="M1310,175a5.67,5.67,0,0,1,1.41,4.28c-.06.63-.29,1.21-1.07,1.23s-1-.56-1.12-1.19A9.37,9.37,0,0,1,1310,175"/><path class="cls-2" d="M1388.5,197.62a3.66,3.66,0,0,1,1.26,3.48,1.53,1.53,0,0,1-1,1,1.55,1.55,0,0,1-1.15-.87c-.45-1.26.06-2.36.92-3.62"/><path class="cls-2" d="M1356.05,172.4a11,11,0,0,1-.49,1.87.72.72,0,0,1-1.38-.12,7,7,0,0,1-.26-2.61c0-.38.63-.84,1.06-1,.21-.06.65.54.9.9a2.57,2.57,0,0,1,.17.93"/><path class="cls-2" d="M1473.85,158.39c-1.29-.81-1.15-2.07-.89-3.28a1.3,1.3,0,0,1,1-.75,1.39,1.39,0,0,1,1,.73c.57,1.16.11,2.36-1.15,3.3"/><path class="cls-2" d="M1466.38,195l.06-1.92c.23.42.4.57.85.14s1.14-.56,1.29-.4a3.45,3.45,0,0,1,.62,1.55,1.06,1.06,0,0,1-.18.77,11.46,11.46,0,0,1-1,1.13,5.53,5.53,0,0,1-.85-1c-.22-.42-.25-1-.83-.3"/><path class="cls-2" d="M1321.24,178.36a1.67,1.67,0,0,1,1.19,1.94c-.08.48-.65.88-1,1.32-.4-.38-1-.69-1.17-1.14a1.72,1.72,0,0,1,1-2.12"/><path class="cls-2" d="M1359.39,173.43c-.07.64,0,1.47-1,1.7-.66.18-1.14-.62-1.14-1.78,0-.72.08-1.41.92-1.58.66-.13,1.15.55,1.17,1.66"/><path class="cls-2" d="M1474.76,196.26a2.15,2.15,0,0,1-.65-2.66,1.13,1.13,0,0,1,.86-.64,1.11,1.11,0,0,1,.76.73,2.19,2.19,0,0,1-1,2.57"/><path class="cls-2" d="M1471.54,157.59c-.25.25-.61.85-1.13,1.09s-1.26-.74-1.19-1.52a1.17,1.17,0,0,1,1.1-1.21c.66-.06,1.23.54,1.22,1.64"/><path class="cls-2" d="M1471.23,193.21a4,4,0,0,1,.71,1.22c.16.75-.48,1.54-1,1.35a1.63,1.63,0,0,1-.91-1.05c-.2-.84.26-1.45,1.25-1.52"/><path class="cls-2" d="M1273.17,188.47c-.76.41-1.26.9-1.57.8a1.54,1.54,0,0,1-.87-1.14c0-.35.69-1,.93-1,.46.13.81.67,1.51,1.32"/><path class="cls-2" d="M1379.14,156h-.62c0-.56.1-1.13.14-1.7l.48,0Z"/><path class="cls-2" d="M1466.32,197.4a1.06,1.06,0,0,1,0-1.64c0,.55,0,1.09,0,1.64"/><path class="cls-2" d="M1538.05,143l-.38-.25,1-.77.15.19-.74.83"/><path class="cls-2" d="M1464.76,203.93l1.43-.31-1.43.31"/><path class="cls-2" d="M1466.72,188.7c-.45-.32-.36-.59.07-.83Z"/><path class="cls-2" d="M1467.11,185.38c-.45-.34-.32-.6.09-.82l-.09.82"/><path class="cls-2" d="M1468.32,177.92c-.44-.33-.32-.59.1-.82l-.1.82"/><path class="cls-2" d="M1468.92,174.07c.07-.23.15-.45.22-.68-.07.23-.15.45-.22.68"/><path class="cls-2" d="M1441.58,164.85c-.38-.58-.76-.91-.8-1.29a.76.76,0,0,1,1-.89,1.23,1.23,0,0,1,.68,1c0,.33-.45.66-.86,1.21"/><path class="cls-2" d="M1430.79,169.56c-.76.51-1.13.92-1.56,1s-1.17-.24-1-.89a1.53,1.53,0,0,1,1-1c.38-.06.83.42,1.63.89"/><path class="cls-2" d="M1414.45,167.36c-.55.29-.91.63-1.26.62s-.68-.68-.61-.79a1.79,1.79,0,0,1,1-.77c.17,0,.48.47.92.94"/><path class="cls-2" d="M1455.78,169.38c-.41-.53-.89-.88-.87-1.21a1.29,1.29,0,0,1,.81-.92.81.81,0,0,1,1,.95c0,.36-.51.66-1,1.18"/><path class="cls-2" d="M1395.72,151.15a2.5,2.5,0,0,1-.91.3c-.27,0-.53-.26-.79-.4.2-.28.35-.66.62-.8s.5.23.76.37l.32.53"/><path class="cls-2" d="M1437.89,140.17c-.42.25-.66.49-.91.52s-.53-.37-.5-.46c.11-.27.32-.63.55-.68s.46.31.86.62"/><path class="cls-2" d="M1425.79,143.49a2,2,0,0,1-.72.2.83.83,0,0,1-.47-.45c0-.09.18-.41.3-.42a1.71,1.71,0,0,1,.61.19l.28.48"/><path class="cls-2" d="M1391.16,147.5l.24,1.46a1.66,1.66,0,0,0-.52-.13c-.59,0-1.14-.14-1-.82s.69-.86,1.32-.51"/><path class="cls-2" d="M1531.7,41.15c0,.21,0,.43,0,.66s0,.45,0,.68c0,.65-.07,1.31-.1,2s-.06,1.3-.08,2,0,1.06,0,1.58,0,1.06,0,1.59c-.05.72-.09,1.44-.14,2.15s-.11,1.43-.19,2.14a13.75,13.75,0,0,1-.48,2.38,6.83,6.83,0,0,1-.51,1.28,3.85,3.85,0,0,1-2,1.81,2.61,2.61,0,0,1-1.37.1,3.09,3.09,0,0,1-1.86-1.06,5.65,5.65,0,0,1-1.15-2,4.54,4.54,0,0,1,0-2.35l.06-.2a.61.61,0,0,0,0-.19,1.59,1.59,0,0,0-.07-.2.34.34,0,0,0-.12-.16.19.19,0,0,0-.15,0l-.19.07-.21.16-.19.16-.52.43a1.69,1.69,0,0,0-.44.51,3.79,3.79,0,0,1-.29.45,1.49,1.49,0,0,0-.22.48,5,5,0,0,0-.16,1.13,3.65,3.65,0,0,0,.17,1.13,8.89,8.89,0,0,0,1,2.14,6.25,6.25,0,0,0,1.61,1.72,5.67,5.67,0,0,0,1.89,1,4.75,4.75,0,0,0,2.13.07,7.15,7.15,0,0,0,4.72-3.09,7.82,7.82,0,0,0,.72-1.34c.15-.36.29-.73.41-1.1a7,7,0,0,0,.3-1.13q.18-.95.3-1.89c.08-.63.14-1.27.17-1.92,0-1.14.07-2.27.06-3.4s-.06-2.27-.12-3.41q-.09-1.4-.21-2.76a21.77,21.77,0,0,0-.42-2.75l-.18-.64c-.07-.21-.14-.42-.23-.64a.54.54,0,0,0-.38-.33.71.71,0,0,0-.51.11,3.23,3.23,0,0,1-.5.24,3,3,0,0,0-.51.25,1.4,1.4,0,0,0-.42.38l-.26.3a3.24,3.24,0,0,0-.24.31,14,14,0,0,0-1.4,2.38c-.38.83-.75,1.67-1.09,2.52-.21.5-.39,1-.56,1.51s-.34,1-.52,1.51a.75.75,0,0,0-.07.12l-.08.15c-.05-.15-.1-.29-.14-.42a1.86,1.86,0,0,1-.1-.37c-.12-.55-.23-1.09-.32-1.63s-.18-1.09-.23-1.65-.07-.94-.12-1.41-.09-.94-.12-1.41-.1-1-.18-1.42a5.07,5.07,0,0,0-.45-1.38,1.33,1.33,0,0,0-.54-.56.56.56,0,0,0-.52-.09.58.58,0,0,0-.35.39,1.81,1.81,0,0,0-.09.44c0,.26,0,.52-.06.78s0,.53,0,.8q0,.84,0,1.68c0,.56.07,1.12.13,1.68s.11,1.18.16,1.75a11.77,11.77,0,0,0,.31,1.74c.11.42.22.83.34,1.24a6.83,6.83,0,0,0,.48,1.2,1.74,1.74,0,0,0,1,.87c.12,0,.23.1.35.15a.44.44,0,0,0,.39,0,2.53,2.53,0,0,0,.7-.41,1.78,1.78,0,0,0,.48-.65c.11-.24.21-.47.31-.71l.29-.71c.1-.28.2-.56.29-.84s.19-.56.3-.84q.38-.9.75-1.77c.24-.59.5-1.17.76-1.75a6.08,6.08,0,0,1,.44-.84c.17-.26.33-.53.49-.81l.08,0M1521.59,48l-.37-.33a4,4,0,0,0-.39-.29l-1-.67-1-.65-1.39-.92-1.42-.91-1.6-1-1.63-1-.21-.2.48-.14a3.66,3.66,0,0,0,.43-.15l1.75-.65,1.75-.67.74-.27c.24-.1.48-.21.71-.33a2,2,0,0,0,.5-.35,1.29,1.29,0,0,0,.33-.52.75.75,0,0,0-.84-.24l-1.48.44-1.48.45c-.68.19-1.34.39-2,.59s-1.32.39-2,.57a5.18,5.18,0,0,1-.66.14l-.7.13a2.56,2.56,0,0,1,0-.27l0-.26c-.12-.81-.24-1.61-.35-2.41s-.25-1.59-.38-2.4c-.08-.55-.18-1.09-.29-1.63a11.72,11.72,0,0,0-.43-1.59c-.12-.34-.26-.68-.41-1a2.84,2.84,0,0,0-.64-.88,1.75,1.75,0,0,0-1.12-.45.6.6,0,0,0-.64.57,6.21,6.21,0,0,0-.08,1.21c0,.4,0,.8.08,1.21s.11,1,.17,1.52.13,1,.2,1.5q.12,1.09.27,2.19c.09.72.18,1.45.28,2.19.12,1,.25,1.94.39,2.89s.23,1.62.36,2.43l.36,2.44c.09.54.16,1.08.23,1.6s.14,1.07.22,1.62a13.19,13.19,0,0,0,.27,1.31A4.26,4.26,0,0,0,1509,54l.08.15a.57.57,0,0,0,.11.11,3,3,0,0,0,1,0,2,2,0,0,0,.81-.38,1.68,1.68,0,0,0,.57-.95c0-.39,0-.78,0-1.17a7.67,7.67,0,0,0-.08-1.17c-.13-1-.26-2-.4-3s-.29-2-.44-3l-.09-.68c0-.22-.07-.45-.12-.69a.56.56,0,0,1,.35,0l.27.15,2.18,1.39c.72.47,1.44.92,2.18,1.38l2.08,1.26,2.08,1.24.79.43q.39.19.78.42a1,1,0,0,0,.53,0,.55.55,0,0,0,.34-.25.9.9,0,0,0,.08-.67,1.89,1.89,0,0,0-.51-.74m-15.16-7.47a2,2,0,0,0-.19-.87,2,2,0,0,0-.4-.52l-.49-.46a3.24,3.24,0,0,0-1-.58,6.22,6.22,0,0,0-1.13-.28l-.69-.07a2.52,2.52,0,0,0-.68,0,5.26,5.26,0,0,0-2.58,1.18,7.46,7.46,0,0,0-1.73,2.26,11,11,0,0,0-.68,1.63c-.17.56-.33,1.13-.47,1.71a22.54,22.54,0,0,0-.41,2.39,11,11,0,0,0,0,2.43,7.84,7.84,0,0,0,.53,2.08,5,5,0,0,0,1.23,1.74,3.78,3.78,0,0,0,2.42,1.17,3.9,3.9,0,0,0,2.51-.86,5.05,5.05,0,0,0,.92-.87,7.09,7.09,0,0,0,.71-1.07,8.34,8.34,0,0,0,.47-1.06c.13-.37.25-.74.37-1.12a1,1,0,0,0,.06-.41,1.69,1.69,0,0,0-.08-.39.33.33,0,0,0-.26-.27.43.43,0,0,0-.37.1,1.55,1.55,0,0,0-.37.48l-.26.54c-.08.17-.17.35-.24.52a3.67,3.67,0,0,1-.26.48,4.64,4.64,0,0,1-.46.61,2.08,2.08,0,0,1-.59.47.82.82,0,0,1-.3.09,3.33,3.33,0,0,1-.46,0,3.19,3.19,0,0,1-.45,0,.47.47,0,0,1-.29-.09,4,4,0,0,1-.36-.33l-.32-.38a1.84,1.84,0,0,1-.48-1c0-.36-.09-.74-.13-1.13a10.81,10.81,0,0,1,0-2.2,20.56,20.56,0,0,1,.3-2.19,7.38,7.38,0,0,1,.76-2.25,20.26,20.26,0,0,1,1.25-2,.46.46,0,0,1,.2-.13l.32-.1a2.41,2.41,0,0,1,.35-.07l.27,0,.34,0a1.41,1.41,0,0,1,.35,0,2.37,2.37,0,0,1,.93.45c.27.22.54.44.8.68l.06.11.13.24a.32.32,0,0,0,.11.12.43.43,0,0,0,.17,0l.29,0a1.39,1.39,0,0,0,.32-.85m-19.06,6.88c0-.11,0-.23,0-.35a8.94,8.94,0,0,1,0-1.27,10.92,10.92,0,0,1,.18-1.26,8.3,8.3,0,0,1,.75-2.22,4.69,4.69,0,0,1,.76-1.1,3.62,3.62,0,0,1,1.09-.8,2,2,0,0,1,1.43-.17,2.32,2.32,0,0,1,1.22.8,1.66,1.66,0,0,1,.36.68,2,2,0,0,1,0,.77,5.77,5.77,0,0,1-.54,1.66,4.55,4.55,0,0,1-1.06,1.39c-.22.21-.44.4-.66.59l-.71.56a6.44,6.44,0,0,1-1,.59,4.68,4.68,0,0,1-1.07.38,1.91,1.91,0,0,1-.33.06l-.38,0q0-.2-.06-.36m7.57,0a.46.46,0,0,0-.18-.21.75.75,0,0,0-.34-.1.77.77,0,0,0-.49.25,2.28,2.28,0,0,0-.3.49,10.81,10.81,0,0,1-.55,1.2,12.23,12.23,0,0,1-.68,1.14,7.62,7.62,0,0,1-.56.8,5.71,5.71,0,0,1-.68.71l-.35.23a.63.63,0,0,1-.39.09,2.73,2.73,0,0,1-1-.24,2.38,2.38,0,0,1-.83-.63,3.84,3.84,0,0,1-.67-1.13,7.61,7.61,0,0,1-.34-1.31l.15,0a5.2,5.2,0,0,0,1.64-.33,7.16,7.16,0,0,0,1.48-.76,9.58,9.58,0,0,0,1-.73c.3-.26.6-.54.89-.82a6.3,6.3,0,0,0,1.89-3.44,4,4,0,0,0,0-1.19,2.8,2.8,0,0,0-.39-1.1,8.34,8.34,0,0,0-.67-1,3.52,3.52,0,0,0-.86-.77l-.28-.17a2.61,2.61,0,0,1-.27-.19,2.7,2.7,0,0,0-1.08-.47,5.51,5.51,0,0,0-1.15-.06,4.37,4.37,0,0,0-1,.18,6.71,6.71,0,0,0-1,.4,6,6,0,0,0-1,.67,5.76,5.76,0,0,0-.85.86,7.33,7.33,0,0,0-1,1.7,14.87,14.87,0,0,0-.68,1.87,12.71,12.71,0,0,0-.3,1.33,10,10,0,0,0-.15,1.34c0,.44,0,.88,0,1.31a9.55,9.55,0,0,0,.08,1.3,9.92,9.92,0,0,0,.29,1.66,8.63,8.63,0,0,0,.61,1.57,5,5,0,0,0,1.42,1.7,4.2,4.2,0,0,0,2.07.76,3.86,3.86,0,0,0,2.06-.3,4.91,4.91,0,0,0,1.6-1.27,11.46,11.46,0,0,0,.88-1.1,10,10,0,0,0,.74-1.21c.24-.44.46-.88.67-1.32s.42-.89.62-1.34a.43.43,0,0,0,0-.37m-16.3-6.68a.74.74,0,0,1,.09-.36c.24-.56.5-1.12.76-1.67a14.85,14.85,0,0,1,.9-1.6l.29-.43.29-.42c.22-.32.45-.62.69-.92a7.74,7.74,0,0,1,.81-.81,6.58,6.58,0,0,1,.78-.58,1.19,1.19,0,0,1,.26-.11.69.69,0,0,1,.29,0,.46.46,0,0,1,.34.36c0,.09,0,.17,0,.25a2,2,0,0,1,0,.25c0,.33,0,.67-.06,1a5.13,5.13,0,0,1-.21,1,5.19,5.19,0,0,1-.24.59c-.09.18-.2.36-.31.54s-.31.42-.46.62a4.38,4.38,0,0,1-.51.55l-.38.34a4.27,4.27,0,0,1-.41.29l-.91.54c-.3.18-.61.35-.92.52s-.35.19-.52.27l-.58.25a2.17,2.17,0,0,1,0-.41m-.22-1.87-.09-.55-.09-.55c0-.26-.11-.53-.16-.79s-.11-.53-.16-.8a5.88,5.88,0,0,0-.2-.67,1,1,0,0,0-1-.67c-.17,0-.28.06-.32.19l-.09.27a1.57,1.57,0,0,0-.06.28c0,.19,0,.39,0,.59a3.88,3.88,0,0,0,0,.59c0,.51,0,1,.08,1.56s.07,1,.1,1.55.08,1.16.11,1.74.08,1.16.13,1.74c0,.35,0,.71.08,1.06s.06.71.1,1.07.07.69.11,1,.09.7.13,1l.1.68c0,.36.1.71.14,1.06s.08.69.14,1,.07.47.12.69a4.1,4.1,0,0,1,.12.7,6.36,6.36,0,0,0,.18,1.09,4,4,0,0,0,.42,1,.82.82,0,0,0,.26.29l.33.18a.2.2,0,0,0,.29-.13.8.8,0,0,1,.08-.16l.07-.15c.06-.16.13-.32.2-.48a2.64,2.64,0,0,0,.17-.47,3.6,3.6,0,0,0,.08-.56c0-.19,0-.37,0-.56s0-.56,0-.84,0-.56,0-.84q-.09-.69-.15-1.38c0-.46-.1-.91-.16-1.36s-.12-.92-.2-1.37-.15-.91-.2-1.38a6.93,6.93,0,0,1-.1-.78c0-.26,0-.53-.07-.78l0-.36,0-.35c.06,0,.1-.07.11-.09l.73-.21.71-.22a6.7,6.7,0,0,0,1.37-.6,11.38,11.38,0,0,0,1.25-.84,10.8,10.8,0,0,0,1.22-1.12,7.36,7.36,0,0,0,1-1.35l.1-.16a1.19,1.19,0,0,0,.08-.16,6.66,6.66,0,0,0,.28-1.13,4.4,4.4,0,0,0,0-1.15c0-.34-.09-.68-.16-1a3.56,3.56,0,0,0-.36-.95,1.5,1.5,0,0,0-.76-.67,1.24,1.24,0,0,0-1,0,4.19,4.19,0,0,0-1.24.76,9.76,9.76,0,0,0-2.17,2.67c-.25.44-.48.88-.72,1.31a14.44,14.44,0,0,0-.62,1.38l-.06.13a.76.76,0,0,0-.07.13,1.89,1.89,0,0,1-.06-.21m-18.84,8.54c0-.11,0-.23,0-.35a10.73,10.73,0,0,1,0-1.27,11,11,0,0,1,.19-1.26,8.65,8.65,0,0,1,.74-2.22,4.73,4.73,0,0,1,.77-1.1,3.62,3.62,0,0,1,1.09-.8,2,2,0,0,1,1.43-.17,2.36,2.36,0,0,1,1.22.8,1.53,1.53,0,0,1,.35.68,1.67,1.67,0,0,1,0,.77,5.47,5.47,0,0,1-.53,1.66,4.59,4.59,0,0,1-1.07,1.39c-.21.21-.43.4-.66.59s-.46.38-.71.56a5.89,5.89,0,0,1-1,.59,5,5,0,0,1-1.07.38,1.91,1.91,0,0,1-.33.06l-.38,0c0-.13,0-.25-.06-.36m7.57,0a.63.63,0,0,0-.18-.21.61.61,0,0,0-.83.15,1.69,1.69,0,0,0-.3.49,13,13,0,0,1-.55,1.2c-.21.38-.43.77-.68,1.14a7.62,7.62,0,0,1-.56.8,6.54,6.54,0,0,1-.68.71l-.35.23a.66.66,0,0,1-.4.09,2.82,2.82,0,0,1-1-.24,2.58,2.58,0,0,1-.83-.63,3.8,3.8,0,0,1-.66-1.13,7.61,7.61,0,0,1-.34-1.31l.15,0a5.26,5.26,0,0,0,1.64-.33,6.84,6.84,0,0,0,1.47-.76,8.66,8.66,0,0,0,1-.73c.3-.26.59-.54.88-.82a6.17,6.17,0,0,0,1.89-3.44,3.68,3.68,0,0,0,0-1.19,3.15,3.15,0,0,0-.39-1.1,9.78,9.78,0,0,0-.67-1,3.39,3.39,0,0,0-.87-.77l-.28-.17a2.48,2.48,0,0,1-.26-.19,2.68,2.68,0,0,0-1.09-.47,5.42,5.42,0,0,0-1.14-.06,4.28,4.28,0,0,0-1,.18,6.71,6.71,0,0,0-1,.4,6,6,0,0,0-1,.67,5.83,5.83,0,0,0-.86.86,7.68,7.68,0,0,0-1,1.7,14.83,14.83,0,0,0-.67,1.87,12.78,12.78,0,0,0-.31,1.33,11.93,11.93,0,0,0-.14,1.34c0,.44,0,.88,0,1.31a9.53,9.53,0,0,0,.07,1.3,11.06,11.06,0,0,0,.3,1.66,8.63,8.63,0,0,0,.61,1.57,4.88,4.88,0,0,0,1.42,1.7,4.2,4.2,0,0,0,2.06.76,3.83,3.83,0,0,0,2.06-.3,4.84,4.84,0,0,0,1.61-1.27,13.25,13.25,0,0,0,.88-1.1,10,10,0,0,0,.74-1.21c.23-.44.46-.88.67-1.32s.41-.89.62-1.34a.47.47,0,0,0,.05-.37m-19.72,1.08c0-.15,0-.3,0-.45l0-.44-.06-1.45c0-.47,0-1-.07-1.44s0-.9-.07-1.34-.05-.89-.07-1.34,0-.62-.06-.91-.07-.58-.12-.88-.07-.43-.1-.63-.06-.4-.08-.62a1.85,1.85,0,0,0-.12-.49,2.39,2.39,0,0,0-.24-.44.54.54,0,0,0-.33-.28,1.17,1.17,0,0,0-.42,0,.6.6,0,0,0-.44.28,1.5,1.5,0,0,0-.26.52,3.35,3.35,0,0,0-.11.55c-.07.65-.11,1.29-.15,1.9s0,1-.07,1.47,0,1,0,1.45,0,1.25,0,1.87,0,1.23,0,1.85.09,1,.15,1.55l.18,1.55c0,.45.12.9.21,1.33a6.87,6.87,0,0,0,.38,1.3,2.61,2.61,0,0,0,.54.81.24.24,0,0,0,.18.1h.49a.59.59,0,0,0,.23-.05,1.17,1.17,0,0,0,.22-.15.78.78,0,0,0,.14-.19,2.49,2.49,0,0,0,.22-.58,1.35,1.35,0,0,0,.08-.4c0-.13,0-.27.05-.41a3.58,3.58,0,0,1,.09-.45,3.58,3.58,0,0,0,.09-.45c.05-.33.09-.65.11-1a5.08,5.08,0,0,1,.17-1c.06-.22.11-.44.16-.66a4.77,4.77,0,0,1,.17-.65c.13-.42.27-.84.4-1.26s.27-.84.41-1.26c.06-.16.11-.33.16-.49s.12-.33.18-.48c.15-.32.3-.64.44-1l.45-1a7.18,7.18,0,0,1,.34-.68l.36-.61c.13-.21.25-.41.36-.62l.32-.55a6.32,6.32,0,0,1,.33-.56,3.28,3.28,0,0,1,.81-.81,1.62,1.62,0,0,0,0,.23,1.21,1.21,0,0,1,0,.19,10.71,10.71,0,0,1-.16,1.4c-.09.46-.17.92-.25,1.38,0,.25-.08.49-.13.74s-.09.5-.12.74-.1.63-.14.94-.07.63-.11.94-.06.75-.1,1.13-.07.75-.09,1.13a5.51,5.51,0,0,0,0,.7v.7a17.12,17.12,0,0,0,.29,3.59.25.25,0,0,1,0,.12.5.5,0,0,0,0,.12,1.24,1.24,0,0,1,0,.16.25.25,0,0,0,0,.15,1.2,1.2,0,0,0,.58.39,1.13,1.13,0,0,0,.68,0l.42-.17.41-.17a1.59,1.59,0,0,0,.36-.23.44.44,0,0,0,.12-.4s0,0,0,0,0,0,0,0a.4.4,0,0,0,.09-.25c0-.08,0-.16,0-.25s0-.21-.06-.31,0-.21-.06-.33a11.12,11.12,0,0,1-.12-1.13c0-.38,0-.76,0-1.13,0-.79,0-1.57,0-2.36s.06-1.57.11-2.36q0-.67.09-1.35c0-.46.07-.91.11-1.36s0-1.07,0-1.59a8.68,8.68,0,0,0-.21-1.58,2.29,2.29,0,0,0-.12-.37,1.08,1.08,0,0,0-.2-.34,2.32,2.32,0,0,0-.21-.25.5.5,0,0,0-.3-.14h-.32l-.33,0a.7.7,0,0,0-.57.25,2.57,2.57,0,0,1-.21.24l-.22.23-.4.45a4.06,4.06,0,0,0-.36.46c-.17.25-.34.49-.49.74l-.45.76-.54.95c-.18.33-.35.65-.51,1s-.36.75-.52,1.14-.33.76-.48,1.13a11.16,11.16,0,0,0-.39,1.05c-.1.35-.2.7-.29,1.07-.05.22-.11.43-.17.65s-.13.44-.2.66Zm-11.38-1.09c0-.11,0-.23,0-.35a8.94,8.94,0,0,1,0-1.27q.06-.63.18-1.26a8.67,8.67,0,0,1,.75-2.22,4.69,4.69,0,0,1,.76-1.1,3.62,3.62,0,0,1,1.09-.8,2,2,0,0,1,1.43-.17,2.32,2.32,0,0,1,1.22.8,1.55,1.55,0,0,1,.36.68,2,2,0,0,1,0,.77,6.08,6.08,0,0,1-.53,1.66,4.75,4.75,0,0,1-1.07,1.39c-.22.21-.44.4-.66.59l-.71.56a5.89,5.89,0,0,1-1,.59,4.94,4.94,0,0,1-1.08.38,1.91,1.91,0,0,1-.33.06l-.38,0c0-.13,0-.25,0-.36m7.56,0a.46.46,0,0,0-.18-.21.72.72,0,0,0-.34-.1.77.77,0,0,0-.49.25,2.28,2.28,0,0,0-.3.49,10.81,10.81,0,0,1-.55,1.2c-.2.38-.43.77-.67,1.14a9.55,9.55,0,0,1-.57.8,5.06,5.06,0,0,1-.68.71l-.34.23a.68.68,0,0,1-.4.09,2.77,2.77,0,0,1-1-.24,2.47,2.47,0,0,1-.83-.63,3.8,3.8,0,0,1-.66-1.13,6.8,6.8,0,0,1-.34-1.31l.14,0a5.2,5.2,0,0,0,1.64-.33,6.91,6.91,0,0,0,1.48-.76,9.58,9.58,0,0,0,1-.73c.3-.26.6-.54.89-.82a6.3,6.3,0,0,0,1.89-3.44,3.67,3.67,0,0,0,0-1.19,2.8,2.8,0,0,0-.39-1.1,7.26,7.26,0,0,0-.67-1,3.52,3.52,0,0,0-.86-.77l-.28-.17-.27-.19a2.59,2.59,0,0,0-1.08-.47,5.51,5.51,0,0,0-1.15-.06,4.37,4.37,0,0,0-1,.18,6.71,6.71,0,0,0-1,.4,6.9,6.9,0,0,0-1,.67,5.76,5.76,0,0,0-.85.86,7.33,7.33,0,0,0-1,1.7,13.41,13.41,0,0,0-.67,1.87,12.78,12.78,0,0,0-.31,1.33,11.94,11.94,0,0,0-.15,1.34c0,.44,0,.88,0,1.31a9.55,9.55,0,0,0,.08,1.3,9,9,0,0,0,.3,1.66,7.92,7.92,0,0,0,.6,1.57,5,5,0,0,0,1.42,1.7,4.2,4.2,0,0,0,2.07.76,3.84,3.84,0,0,0,2.06-.3,5,5,0,0,0,1.61-1.27c.31-.35.6-.72.88-1.1a10,10,0,0,0,.73-1.21c.24-.44.46-.88.67-1.32s.42-.89.62-1.34a.43.43,0,0,0,0-.37m-16.06,3.68,0-.08c-.23-.52-.45-1-.68-1.54s-.45-1-.66-1.53-.4-1-.59-1.44l-.57-1.44c-.19-.4-.37-.82-.54-1.23s-.36-.83-.55-1.24l-.71-1.76c-.24-.59-.5-1.18-.79-1.76a6.31,6.31,0,0,0-.4-.65,2.17,2.17,0,0,0-.55-.54.54.54,0,0,0-.55-.1.61.61,0,0,0-.35.45.58.58,0,0,0,0,.16,1.09,1.09,0,0,1,0,.17,2.33,2.33,0,0,1-.07.25,1,1,0,0,0,0,.25q0,.31,0,.66a4.58,4.58,0,0,0,.08.66,17.62,17.62,0,0,0,.48,2.06c.2.67.41,1.35.64,2,.09.24.18.5.27.75s.2.51.29.77.3.81.45,1.21.29.81.44,1.22c.24.59.47,1.16.71,1.73l.71,1.73c.26.58.54,1.16.83,1.74a1.56,1.56,0,0,0,.43.54.73.73,0,0,0,.83.11.17.17,0,0,1,.12,0h.12a1.26,1.26,0,0,1,.27,0,.69.69,0,0,0,.28-.08.55.55,0,0,0,.2-.15.35.35,0,0,1,.23-.12s0,0,0,0a.05.05,0,0,1,0,0c.14-.23.27-.46.41-.68s.27-.46.39-.7a10.66,10.66,0,0,0,.61-1.34c.17-.45.33-.91.48-1.39.23-.77.43-1.55.6-2.32s.34-1.55.53-2.33c.13-.51.24-1,.34-1.54a12.44,12.44,0,0,1,.42-1.53c.05-.16.1-.32.14-.48s.09-.32.15-.49l.21-.7c.07-.23.15-.47.22-.72l.06-.27a2.3,2.3,0,0,1,.06-.28l.09-.63a.5.5,0,0,0,0-.12.76.76,0,0,1,0-.15.51.51,0,0,0-.34,0,.66.66,0,0,0-.28.16,1.23,1.23,0,0,0-.33.36,3.3,3.3,0,0,0-.19.43c-.15.46-.3.92-.44,1.38l-.43,1.4c-.11.33-.21.67-.31,1s-.19.68-.29,1-.21.8-.32,1.19-.2.79-.3,1.2c-.18.74-.39,1.45-.62,2.15s-.49,1.41-.75,2.12a2.07,2.07,0,0,1-.15.34,4.23,4.23,0,0,0-.2.38.64.64,0,0,0-.06-.14M1419.46,39a2.61,2.61,0,0,0-.49-.93,2,2,0,0,0-.18-.21.46.46,0,0,0-.24-.12,2.63,2.63,0,0,0-.69,0,1.39,1.39,0,0,0-.62.28l-.25.2-.24.19a6.42,6.42,0,0,0-1,1c-.29.35-.58.71-.86,1.08a6.5,6.5,0,0,0-.82,1.44l-.08.18-.11.22a.29.29,0,0,0,0-.1s0,0,0-.06l-.15-.84a8.45,8.45,0,0,0-.19-.84,11.92,11.92,0,0,0-.37-1.2,5.4,5.4,0,0,0-.53-1.11c-.06-.1-.12-.18-.16-.26a.27.27,0,0,0-.24-.11h-.17l-.19,0h0l-.06,0-.27.07-.35.09a2.09,2.09,0,0,0-.3.11c-.09,0-.13.08-.15.12s0,.21,0,.58.07.85.13,1.45.13,1.3.21,2.08.18,1.62.28,2.48.21,1.75.33,2.64.24,1.73.37,2.55.26,1.56.4,2.23a14.83,14.83,0,0,0,.41,1.68.52.52,0,0,0,.31.32,1.46,1.46,0,0,0,.52.09,2.15,2.15,0,0,0,.56-.07,2,2,0,0,0,.43-.14A.47.47,0,0,0,1415,54l.1-.09a.84.84,0,0,0,.17-.37c0-.13,0-.27.06-.41l0-.22a.58.58,0,0,0,0-.23l-.06-.29c0-.1,0-.2-.07-.29l-.09-.66c0-.23-.07-.45-.1-.67s0-.43-.07-.66-.06-.45-.08-.68a2.5,2.5,0,0,1-.05-.29l-.06-.3c0-.36-.1-.71-.14-1.07a7.19,7.19,0,0,0-.17-1c0-.28-.1-.56-.13-.83s-.08-.55-.11-.83v-.21a.52.52,0,0,1,0-.18,11.06,11.06,0,0,1,.46-1.41,10.64,10.64,0,0,1,.67-1.3,12,12,0,0,1,.92-1.29,14.56,14.56,0,0,1,1.07-1.15,2.09,2.09,0,0,1,.28-.24,3.19,3.19,0,0,0,.32-.23,2.42,2.42,0,0,0,.12.23,1,1,0,0,1,.09.22c0,.23.11.46.17.69a5.79,5.79,0,0,1,.13.68,7.61,7.61,0,0,1,.09,1c0,.32.05.64.09,1a2.39,2.39,0,0,0,.52,1.23.39.39,0,0,0,.22.18.45.45,0,0,0,.28,0l.1-.92c0-.09,0-.18,0-.28a2.81,2.81,0,0,0,0-.29,11.5,11.5,0,0,0,0-1.32c0-.43-.09-.87-.15-1.31s-.13-.7-.22-1m-16.79,8.38c0-.11,0-.23,0-.35a8.94,8.94,0,0,1,0-1.27,10.92,10.92,0,0,1,.18-1.26,8.65,8.65,0,0,1,.74-2.22,4.73,4.73,0,0,1,.77-1.1,3.62,3.62,0,0,1,1.09-.8,2,2,0,0,1,1.43-.17,2.32,2.32,0,0,1,1.22.8,1.66,1.66,0,0,1,.36.68,2,2,0,0,1,0,.77,5.77,5.77,0,0,1-.54,1.66,4.72,4.72,0,0,1-1.06,1.39c-.22.21-.44.4-.67.59s-.46.38-.71.56a5.89,5.89,0,0,1-1,.59,4.86,4.86,0,0,1-1.07.38,1.91,1.91,0,0,1-.33.06l-.38,0q0-.2-.06-.36m7.57,0a.53.53,0,0,0-.18-.21.75.75,0,0,0-.34-.1.77.77,0,0,0-.49.25,2.28,2.28,0,0,0-.3.49,10.81,10.81,0,0,1-.55,1.2,12.23,12.23,0,0,1-.68,1.14,7.62,7.62,0,0,1-.56.8,5.71,5.71,0,0,1-.68.71l-.35.23a.63.63,0,0,1-.39.09,2.73,2.73,0,0,1-1-.24,2.38,2.38,0,0,1-.83-.63,3.63,3.63,0,0,1-.67-1.13,7.61,7.61,0,0,1-.34-1.31l.15,0a5.2,5.2,0,0,0,1.64-.33,7.16,7.16,0,0,0,1.48-.76,9.58,9.58,0,0,0,.95-.73c.3-.26.6-.54.89-.82a6.3,6.3,0,0,0,1.89-3.44,4,4,0,0,0,0-1.19,3,3,0,0,0-.39-1.1,8.34,8.34,0,0,0-.67-1,3.52,3.52,0,0,0-.86-.77l-.29-.17a2.48,2.48,0,0,1-.26-.19,2.7,2.7,0,0,0-1.08-.47,5.51,5.51,0,0,0-1.15-.06,4.28,4.28,0,0,0-1,.18,6.71,6.71,0,0,0-1,.4,6,6,0,0,0-1,.67,5.32,5.32,0,0,0-.85.86,7.73,7.73,0,0,0-1,1.7,16.58,16.58,0,0,0-.67,1.87,10.6,10.6,0,0,0-.3,1.33,10,10,0,0,0-.15,1.34c0,.44,0,.88,0,1.31a11.45,11.45,0,0,0,.07,1.3,11.06,11.06,0,0,0,.3,1.66,8.63,8.63,0,0,0,.61,1.57,5,5,0,0,0,1.42,1.7,4.2,4.2,0,0,0,2.07.76,3.86,3.86,0,0,0,2.06-.3,4.91,4.91,0,0,0,1.6-1.27,13.25,13.25,0,0,0,.88-1.1,10,10,0,0,0,.74-1.21c.23-.44.46-.88.67-1.32s.42-.89.62-1.34a.47.47,0,0,0,0-.37m-16.79-14.48a4.45,4.45,0,0,0-1.45.67,6.07,6.07,0,0,0-1.36,1.26,8.13,8.13,0,0,0-1.56,3.27c-.12.57-.24,1.16-.35,1.75s-.24,1.38-.32,2.07-.13,1.39-.18,2.1-.06,1.29,0,1.93,0,1.28.09,1.93a10.23,10.23,0,0,0,.14,1.24l.24,1.23a7.35,7.35,0,0,0,.68,1.82,3.62,3.62,0,0,0,1.36,1.39,5.29,5.29,0,0,0,1.38.62,3.45,3.45,0,0,0,1.51.08,7.38,7.38,0,0,0,.84-.22,1.79,1.79,0,0,0,.73-.48c.11-.13.24-.25.36-.38s.24-.25.36-.39a8.36,8.36,0,0,0,.63-.84,4.79,4.79,0,0,0,.5-.92,6.88,6.88,0,0,0,.37-1.08,10.52,10.52,0,0,0,.21-1.12,1.71,1.71,0,0,0,0-.78,4.08,4.08,0,0,1-.11-.77s0,0,0,0,0,0,0,0a.41.41,0,0,0-.31-.25.38.38,0,0,0-.38.14,1.12,1.12,0,0,0-.2.33,1.41,1.41,0,0,0-.11.38,11.75,11.75,0,0,1-.29,1.61,6.21,6.21,0,0,1-.5,1.37,4.72,4.72,0,0,1-.84,1.18.81.81,0,0,1-.39.26.79.79,0,0,1-.43,0,1.06,1.06,0,0,1-.25-.09,1.65,1.65,0,0,1-.25-.15,2.19,2.19,0,0,1-.61-.68,4.93,4.93,0,0,1-.36-.85,4.83,4.83,0,0,1-.2-.77c0-.26-.08-.52-.13-.78q-.14-.84-.21-1.68c0-.56,0-1.13,0-1.7,0-.28,0-.55,0-.83l0-.83c0-.28,0-.55.06-.82s0-.55.07-.83c.06-.45.11-.9.17-1.35s.12-.89.21-1.34a9,9,0,0,1,.33-1.31,6.06,6.06,0,0,1,.54-1.23,7.25,7.25,0,0,1,.76-1.11,2.83,2.83,0,0,1,1.11-.8l.51-.17a.77.77,0,0,1,.52,0,3,3,0,0,1,.89.38,2.66,2.66,0,0,1,.7.68c.14.21.27.41.41.6s.26.39.38.6a.41.41,0,0,0,.47.22.34.34,0,0,0,.21-.14,1.17,1.17,0,0,0,.09-.24.54.54,0,0,0,0-.15,3.27,3.27,0,0,0-.4-1.78,4.42,4.42,0,0,0-1.67-1.73,5.48,5.48,0,0,0-2.19-.66,8,8,0,0,0-1.7.24M1369.91,50c0-.12-.06-.24-.09-.36a6.46,6.46,0,0,1-.1-1.07,6.28,6.28,0,0,1,.06-1.06l.06-.64a4.23,4.23,0,0,1,.11-.62c.06-.24.12-.48.2-.71s.17-.46.26-.68a3,3,0,0,1,.18-.41c.07-.14.14-.28.2-.42a2.67,2.67,0,0,1,.6-.81,10.33,10.33,0,0,1,.79-.67,9.57,9.57,0,0,1,1.08-.71c.37-.22.75-.42,1.13-.62a1.94,1.94,0,0,1,.3-.13A2,2,0,0,1,1375,41a.83.83,0,0,1,0,.38c0,.12,0,.24-.08.36a10.41,10.41,0,0,1-.39,1.11l-.45,1.1q-.18.42-.39.84a9.28,9.28,0,0,0-.37.86,4.86,4.86,0,0,1-.51,1c-.21.32-.4.65-.59,1-.09.18-.18.37-.26.55s-.17.36-.27.55a3.69,3.69,0,0,1-1.41,1.47l-.14.06h-.08a.92.92,0,0,1-.19-.33m8.3,4.19.29-.14a.8.8,0,0,0,.29-.2,1.5,1.5,0,0,0,.24-.3.58.58,0,0,0,0-.36c0-.11,0-.18,0-.23-.09-.25-.17-.51-.25-.76s-.15-.5-.22-.75c-.12-.46-.24-.91-.35-1.37s-.23-.92-.33-1.38c-.17-.77-.32-1.55-.44-2.32s-.22-1.55-.28-2.35a14.91,14.91,0,0,1-.05-1.89c0-.63.05-1.27.08-1.9,0-.25,0-.5,0-.76a2.76,2.76,0,0,0,0-.76,1.25,1.25,0,0,0-.24-.57.74.74,0,0,0-.6-.33.59.59,0,0,0-.38,0,.35.35,0,0,0-.2.25c-.09.24-.17.49-.25.73s-.15.5-.24.77h-.06a.11.11,0,0,1-.08,0,12.15,12.15,0,0,0-1.61.37,11.24,11.24,0,0,0-1.56.62,8.94,8.94,0,0,0-1.44.85,12.63,12.63,0,0,0-1.27,1.07,8.1,8.1,0,0,0-1.65,2.18,5.74,5.74,0,0,0-.43,1.06c-.1.36-.19.73-.28,1.1a11.94,11.94,0,0,0-.23,1.54,6.19,6.19,0,0,0,0,1.55,4.05,4.05,0,0,0,.17.8,2.22,2.22,0,0,0,.38.73,2.3,2.3,0,0,0,.55.57,1.42,1.42,0,0,0,.74.25,3,3,0,0,0,1.71-.33,3.23,3.23,0,0,0,.9-.63,9.71,9.71,0,0,0,.75-.81l.29-.4a4.5,4.5,0,0,0,.27-.43,5.12,5.12,0,0,0,.31-.62,6,6,0,0,1,.31-.62l.76-1.48a12,12,0,0,0,.67-1.51,1.71,1.71,0,0,1,.17-.33l.25-.33a3.75,3.75,0,0,1,0,.45l0,.42c0,.52.11,1,.17,1.53s.11,1,.17,1.53c0,.34.07.68.13,1s.11.67.19,1c.13.55.28,1.09.45,1.6a5.38,5.38,0,0,0,.75,1.47,1.16,1.16,0,0,0,.31.28,1.89,1.89,0,0,0,.31.13.74.74,0,0,0,.36,0l.36-.11m-20.06-5.73a3.44,3.44,0,0,1-.05-.45l0-.44c0-.48,0-1-.07-1.45l-.06-1.44c0-.45,0-.9-.08-1.34s0-.89-.07-1.34,0-.62-.06-.91a6.87,6.87,0,0,0-.12-.88q0-.33-.09-.63a5.82,5.82,0,0,1-.08-.62,2.34,2.34,0,0,0-.13-.49,1.86,1.86,0,0,0-.23-.44.56.56,0,0,0-.34-.28,1.17,1.17,0,0,0-.42,0,.58.58,0,0,0-.43.28,1.5,1.5,0,0,0-.26.52,3.37,3.37,0,0,0-.12.55c-.06.65-.11,1.29-.14,1.9s0,1-.07,1.47,0,1,0,1.45v1.87c0,.62,0,1.23.06,1.85s.08,1,.15,1.55.12,1,.17,1.55.13.9.21,1.33a7.74,7.74,0,0,0,.39,1.3,2.76,2.76,0,0,0,.53.81.28.28,0,0,0,.19.1h.48a.69.69,0,0,0,.24-.05,1.64,1.64,0,0,0,.22-.15.78.78,0,0,0,.13-.19,2.13,2.13,0,0,0,.23-.58,1.77,1.77,0,0,0,.08-.4c0-.13,0-.27.05-.41a3.58,3.58,0,0,1,.09-.45l.09-.45c0-.33.09-.65.11-1a4.38,4.38,0,0,1,.16-1A5.28,5.28,0,0,0,1359,49a3.69,3.69,0,0,1,.18-.65c.13-.42.26-.84.4-1.26s.27-.84.41-1.26c0-.16.1-.33.16-.49a3.41,3.41,0,0,1,.18-.48c.15-.32.3-.64.44-1l.44-1a7.18,7.18,0,0,1,.34-.68c.12-.2.24-.41.37-.61l.36-.62.32-.55a6.32,6.32,0,0,1,.33-.56,3.23,3.23,0,0,1,.8-.81c0,.09,0,.16,0,.23a.61.61,0,0,1,0,.19,9.23,9.23,0,0,1-.16,1.4l-.24,1.38c0,.25-.09.49-.14.74s-.09.5-.12.74-.1.63-.14.94-.07.63-.1.94-.07.75-.11,1.13-.06.75-.08,1.13a5.54,5.54,0,0,0,0,.7c0,.23,0,.47,0,.7a16.48,16.48,0,0,0,.29,3.59.5.5,0,0,1,0,.12.49.49,0,0,0,0,.12.53.53,0,0,1,0,.16.34.34,0,0,0,.06.15,1.17,1.17,0,0,0,1.26.39l.42-.17.4-.17a1.93,1.93,0,0,0,.37-.23.44.44,0,0,0,.12-.4s0,0,0,0v0a.31.31,0,0,0,.09-.25,1.18,1.18,0,0,0,0-.25c0-.1,0-.21-.05-.31l-.06-.33a7.35,7.35,0,0,1-.12-1.13l-.06-1.13c0-.79,0-1.57,0-2.36s.05-1.57.11-2.36q0-.67.09-1.35c0-.46.07-.91.1-1.36a14.19,14.19,0,0,0,0-1.59,7.86,7.86,0,0,0-.2-1.58,2.29,2.29,0,0,0-.12-.37,1.68,1.68,0,0,0-.2-.34l-.21-.25a.53.53,0,0,0-.31-.14h-.31l-.34,0a.69.69,0,0,0-.56.25l-.22.24-.22.23-.39.45a3.24,3.24,0,0,0-.37.46c-.17.25-.33.49-.48.74l-.45.76c-.19.31-.37.63-.54.95s-.35.65-.51,1-.36.75-.53,1.14l-.47,1.13a11.16,11.16,0,0,0-.39,1.05c-.11.35-.21.7-.29,1.07-.06.22-.11.43-.18.65s-.13.44-.19.66ZM1354,39a2.46,2.46,0,0,0-.49-.93.91.91,0,0,0-.18-.21.39.39,0,0,0-.24-.12,2.64,2.64,0,0,0-.69,0,1.44,1.44,0,0,0-.62.28,2.19,2.19,0,0,1-.25.2,2.11,2.11,0,0,0-.23.19,6.06,6.06,0,0,0-1,1c-.29.35-.57.71-.85,1.08a6.54,6.54,0,0,0-.83,1.44,1.26,1.26,0,0,1-.08.18l-.11.22,0-.1a.13.13,0,0,1,0-.06c-.06-.28-.11-.56-.16-.84a8.39,8.39,0,0,0-.18-.84c-.11-.41-.23-.81-.37-1.2a5.43,5.43,0,0,0-.54-1.11l-.16-.26a.25.25,0,0,0-.24-.11h-.17l-.18,0h0l-.07,0-.27.07-.35.09a2.09,2.09,0,0,0-.3.11c-.08,0-.13.08-.14.12s0,.21,0,.58.07.85.13,1.45.13,1.3.21,2.08.17,1.62.27,2.48.21,1.75.33,2.64.25,1.73.38,2.55.26,1.56.39,2.23.27,1.24.41,1.68a.53.53,0,0,0,.32.32,1.4,1.4,0,0,0,.51.09,2.1,2.1,0,0,0,.56-.07,2.29,2.29,0,0,0,.44-.14.49.49,0,0,0,.34-.12l.09-.09a.74.74,0,0,0,.17-.37,2.7,2.7,0,0,0,.06-.41l0-.22a.59.59,0,0,0,0-.23c0-.1-.05-.19-.07-.29l-.06-.29c0-.22-.07-.44-.1-.66s-.07-.45-.1-.67,0-.43-.07-.66,0-.45-.07-.68l-.06-.29c0-.09,0-.2-.06-.3,0-.36-.1-.71-.13-1.07s-.1-.71-.17-1-.1-.56-.14-.83-.07-.55-.1-.83v-.21a.52.52,0,0,1,0-.18,9.68,9.68,0,0,1,.46-1.41,9.4,9.4,0,0,1,.67-1.3,10.76,10.76,0,0,1,.92-1.29,14.44,14.44,0,0,1,1.06-1.15,1.68,1.68,0,0,1,.29-.24l.31-.23c0,.09.09.16.12.23a1,1,0,0,1,.09.22c.06.23.11.46.17.69a5.87,5.87,0,0,1,.14.68c0,.32.07.63.09,1a7.45,7.45,0,0,0,.09,1,2.29,2.29,0,0,0,.51,1.23c.08.1.15.17.22.18a.44.44,0,0,0,.28,0l.1-.92a2.33,2.33,0,0,0,0-.28,2.83,2.83,0,0,0,0-.29,11.48,11.48,0,0,0-.05-1.32c0-.43-.08-.87-.15-1.31a8.71,8.71,0,0,0-.22-1m-18.3,11a2.37,2.37,0,0,1-.09-.36,6.46,6.46,0,0,1-.1-1.07,7.53,7.53,0,0,1,0-1.06c0-.22,0-.43.07-.64a4.23,4.23,0,0,1,.11-.62c.06-.24.12-.48.2-.71s.17-.46.25-.68.12-.28.19-.41.14-.28.2-.42a2.67,2.67,0,0,1,.6-.81,10.33,10.33,0,0,1,.79-.67,9.45,9.45,0,0,1,1.07-.71c.38-.22.76-.42,1.14-.62a1.94,1.94,0,0,1,.3-.13,1.59,1.59,0,0,1,.33-.09,1,1,0,0,1,0,.38c0,.12,0,.24-.08.36a10.41,10.41,0,0,1-.39,1.11l-.45,1.1q-.18.42-.39.84a9.28,9.28,0,0,0-.37.86,4.86,4.86,0,0,1-.51,1,11,11,0,0,0-.59,1c-.1.18-.18.37-.27.55s-.17.36-.26.55a3.76,3.76,0,0,1-1.41,1.47l-.14.06h-.08a.92.92,0,0,1-.19-.33m8.29,4.19.3-.14a.8.8,0,0,0,.29-.2,2,2,0,0,0,.24-.3.58.58,0,0,0,0-.36c0-.11,0-.18,0-.23-.09-.25-.17-.51-.25-.76s-.16-.5-.22-.75L1344,50.1c-.11-.46-.22-.92-.32-1.38-.17-.77-.32-1.55-.44-2.32s-.22-1.55-.29-2.35a14.91,14.91,0,0,1,0-1.89c0-.63,0-1.27.08-1.9,0-.25,0-.5,0-.76a2.76,2.76,0,0,0,0-.76,1.37,1.37,0,0,0-.24-.57.74.74,0,0,0-.6-.33.59.59,0,0,0-.38,0,.32.32,0,0,0-.2.25c-.09.24-.17.49-.25.73s-.15.5-.24.77H1341a.12.12,0,0,1-.08,0,12.15,12.15,0,0,0-1.61.37,11.24,11.24,0,0,0-1.56.62,8.53,8.53,0,0,0-1.44.85,12.63,12.63,0,0,0-1.27,1.07,8.1,8.1,0,0,0-1.65,2.18,5.12,5.12,0,0,0-.43,1.06c-.1.36-.19.73-.28,1.1a11.94,11.94,0,0,0-.23,1.54,6.19,6.19,0,0,0,0,1.55,3.45,3.45,0,0,0,.17.8,2.4,2.4,0,0,0,.37.73,2.53,2.53,0,0,0,.56.57,1.42,1.42,0,0,0,.74.25A3,3,0,0,0,1336,52a3.39,3.39,0,0,0,.9-.63,9.71,9.71,0,0,0,.75-.81l.29-.4c.09-.13.18-.28.27-.43a5.12,5.12,0,0,0,.31-.62,5.86,5.86,0,0,1,.3-.62l.77-1.48a13.59,13.59,0,0,0,.67-1.51,1.29,1.29,0,0,1,.17-.33c.07-.1.15-.21.25-.33a3.75,3.75,0,0,1,0,.45l0,.42c0,.52.11,1,.17,1.53s.11,1,.17,1.53c0,.34.07.68.12,1s.12.67.2,1c.13.55.28,1.09.45,1.6a5.64,5.64,0,0,0,.74,1.47,1.37,1.37,0,0,0,.32.28,1.89,1.89,0,0,0,.31.13.74.74,0,0,0,.36,0l.35-.11M1327,36c0,.13,0,.32,0,.58s0,.53-.06.85,0,.65-.07,1,0,.67-.06,1,0,.6-.06.85,0,.45,0,.58c0,.4,0,.79,0,1.18s0,.8,0,1.21v.81c0,.4,0,.85,0,1.37s0,1.06,0,1.65,0,1.13,0,1.64,0,1,.06,1.37a6.27,6.27,0,0,0,.08.81c.12.58.26,1.15.41,1.71a8,8,0,0,0,.67,1.62,4.08,4.08,0,0,0,.67.88,2.46,2.46,0,0,0,1,.54,4.14,4.14,0,0,0,.73.19,2.24,2.24,0,0,0,.77,0,.46.46,0,0,0,.3-.2.34.34,0,0,0,0-.33l-.25-.44c-.08-.14-.17-.28-.25-.43s-.08-.16-.12-.24l-.09-.25a1.17,1.17,0,0,1,0-.2,1.17,1.17,0,0,0,0-.2,9.5,9.5,0,0,1-.35-1.15c-.09-.38-.17-.77-.25-1.16a8.48,8.48,0,0,1-.13-1.12q-.06-.75-.12-1.68c0-.62-.06-1.27-.09-1.95s0-1.33,0-2,0-1.19,0-1.68,0-.87,0-1.13V39.1c0-.17,0-.39,0-.63s0-.51,0-.79,0-.53,0-.78v-1l.13,0,.1,0,1.06-.07,1.06-.07.71,0c.24,0,.47,0,.72,0a2,2,0,0,0,.35,0,.61.61,0,0,0,.33-.21.26.26,0,0,1-.1-.07l-.09-.07-.32-.13a1.86,1.86,0,0,0-.31-.1,8.93,8.93,0,0,0-1.42-.23q-.72-.06-1.44-.06l-.39,0h-.39V34a6.67,6.67,0,0,1,.06-.92,6.52,6.52,0,0,0,.06-.91c0-.15,0-.31,0-.47a2.47,2.47,0,0,1,0-.47.69.69,0,0,0-.07-.48,1.53,1.53,0,0,0-.32-.36.69.69,0,0,0-.49-.2,2.54,2.54,0,0,0-.54.09.66.66,0,0,0-.52.78v.14a4.53,4.53,0,0,1-.08.49c0,.16-.06.32-.08.48s-.1.6-.15.86-.1.56-.15.87c0,.15,0,.3-.07.45l-.06.45-.13,0h-.13a10.29,10.29,0,0,0-1.36,0l-1.37.09-.86.09-.87.09a.43.43,0,0,0-.42.4l.24.14a1.15,1.15,0,0,0,.25.12l.29.08a1.77,1.77,0,0,0,.3,0,5.56,5.56,0,0,0,.58,0,5.07,5.07,0,0,1,.55,0h2.41l.22,0,.22,0Zm-11.71,12a5.6,5.6,0,0,0-.26.68,4.27,4.27,0,0,0-.17.85,2.51,2.51,0,0,0,.07.86,5.06,5.06,0,0,0,.92,1.91c.19.22.38.43.58.63a6,6,0,0,0,.65.57,4.15,4.15,0,0,0,2.07.72,5.88,5.88,0,0,0,.72,0,2.22,2.22,0,0,0,.71-.16,3.41,3.41,0,0,0,1.34-1,4.09,4.09,0,0,0,.72-1.48,6.74,6.74,0,0,0,.29-1.46,10.73,10.73,0,0,0,0-1.51,6.65,6.65,0,0,0-.78-2.76c-.17-.32-.36-.64-.55-.94s-.4-.6-.61-.89-.53-.77-.79-1.17-.48-.8-.7-1.23a2.27,2.27,0,0,1-.16-.39,1.27,1.27,0,0,1,0-.44,2.24,2.24,0,0,1,.23-.86,3.5,3.5,0,0,1,.5-.75.5.5,0,0,1,.26-.17.57.57,0,0,1,.29,0l.47.14a1.54,1.54,0,0,1,.43.2,3.1,3.1,0,0,1,.79.74,4.1,4.1,0,0,1,.54,1,1.76,1.76,0,0,1,.07.27,1.5,1.5,0,0,0,.06.29.23.23,0,0,0,.24.24.17.17,0,0,0,.17,0,.37.37,0,0,0,.12-.13.4.4,0,0,0,.06-.44c0-.12-.1-.23-.14-.34s-.09-.22-.15-.34l-.25-.54a3.39,3.39,0,0,0-.3-.51,8.31,8.31,0,0,0-1-1.22A2.75,2.75,0,0,0,1321,38a3.53,3.53,0,0,0-.79-.28,2.36,2.36,0,0,0-.84,0,2.13,2.13,0,0,0-.8.28l-.25.16-.26.17a3,3,0,0,0-.72.69,3.24,3.24,0,0,0-.47.88,3.63,3.63,0,0,0-.2,1,3.23,3.23,0,0,0,.08,1,7.18,7.18,0,0,0,.44,1.23c.19.39.4.77.63,1.15a10.71,10.71,0,0,0,.59.9l.63.89a8,8,0,0,1,.5.83,5,5,0,0,1,.55,2.45,6.29,6.29,0,0,1-.26,1.52,1.35,1.35,0,0,1-.24.48,3.25,3.25,0,0,1-.35.39.82.82,0,0,1-.33.13,1.71,1.71,0,0,1-.45,0,1,1,0,0,1-.42-.18,5,5,0,0,1-.42-.37,3.08,3.08,0,0,1-.37-.42,3,3,0,0,1-.4-.85,7.06,7.06,0,0,1-.21-.91,2,2,0,0,0-.42-.91,7.93,7.93,0,0,0-.7-.73c-.08.25-.18.49-.27.71m-8.3-3.14a13.45,13.45,0,0,1,.63-2.36A9.75,9.75,0,0,1,1309,40.1a1.29,1.29,0,0,1,.61-.5,1.33,1.33,0,0,1,.78.09,2.71,2.71,0,0,1,.92.62,4.85,4.85,0,0,1,.66.87,5.25,5.25,0,0,1,.51,1.1,11.34,11.34,0,0,1,.31,1.18,8.28,8.28,0,0,1,.16.84l.15.84a5.29,5.29,0,0,1,.13,1.19,9.93,9.93,0,0,1-.07,1.21,13.27,13.27,0,0,1-.19,1.41,5.64,5.64,0,0,1-.45,1.35q-.21.41-.45.78a1.53,1.53,0,0,1-.65.58l-.42.18a2.18,2.18,0,0,1-.44.11,3.09,3.09,0,0,1-1.68-.29,3.35,3.35,0,0,1-1.26-1.15,5,5,0,0,1-.67-1.51,6.2,6.2,0,0,1-.21-1.35,17,17,0,0,1,.25-2.72m7.39.37c0-.3-.08-.61-.13-.92s-.11-.73-.16-1.09a9.87,9.87,0,0,0-.2-1.06,14.64,14.64,0,0,0-.52-1.71,5.65,5.65,0,0,0-.9-1.55,3.54,3.54,0,0,0-1.17-1,2.79,2.79,0,0,0-1.48-.29,5,5,0,0,0-3.08,1.21,8.18,8.18,0,0,0-1.67,1.92,10.86,10.86,0,0,0-1.08,2.28,14.33,14.33,0,0,0-.47,1.67,16,16,0,0,0-.26,1.71,10.3,10.3,0,0,0,0,2.29,7.33,7.33,0,0,0,.63,2.21,5.77,5.77,0,0,0,1.43,2.05,4.54,4.54,0,0,0,2.26,1.1l.55.11a2.62,2.62,0,0,0,.55,0,6.56,6.56,0,0,0,1.26-.12,2.38,2.38,0,0,0,1.13-.57l.06,0,.06,0a8.1,8.1,0,0,0,.74-.6,3.13,3.13,0,0,0,.61-.74l.49-.84c.16-.28.31-.57.47-.86a6.79,6.79,0,0,0,.37-.94c.09-.32.19-.64.27-1a5.7,5.7,0,0,0,.18-1.17c0-.41,0-.87.05-1.38a3.4,3.4,0,0,0,0-.76m-27.52,6.44a4.46,4.46,0,0,0,.12-.7c0-.23,0-.47.08-.72s.08-.71.11-1.07.06-.71.1-1.08l.24-2.52.06-.87c0-.29,0-.58.07-.87s0-.69.05-1l.06-1q0-.36,0-.69c0-.23,0-.46,0-.68,0-.5,0-1,0-1.47s0-1-.11-1.46a1.11,1.11,0,0,1,0-.19,1.48,1.48,0,0,1,0-.22l.11.08.07.06.68.65q.33.31.66.66c.21.24.43.47.65.71l.66.71.8.9c.26.31.53.61.8.91a2.85,2.85,0,0,1,.23.26l.23.26a.9.9,0,0,1,.21.27.61.61,0,0,0,.26.24.67.67,0,0,1,.21.2,1,1,0,0,0,.2.21l.29.2.3.17a.3.3,0,0,0,.16,0,.19.19,0,0,1,.15,0,.36.36,0,0,0,.32,0,.75.75,0,0,0,.26-.19l.18-.18.19-.18.32-.25a2.76,2.76,0,0,0,.3-.29l.59-.76c.2-.26.39-.52.59-.76a4.79,4.79,0,0,1,.42-.52c.23-.28.47-.55.7-.82l.7-.81.11-.15.15-.14c0,.26-.07.5-.1.73s-.06.47-.08.71c-.05.58-.08,1.16-.1,1.74,0,.32,0,.65,0,1s0,.64,0,1,0,.66,0,1,0,.64,0,1,0,.79,0,1.19,0,.8-.05,1.2c0,.21,0,.42,0,.63s0,.41,0,.61v.47a3.62,3.62,0,0,1,0,.47v1.08c0,.15,0,.29,0,.43a2.17,2.17,0,0,0,0,.44c0,.13.05.26.09.38s.07.24.11.36a5.32,5.32,0,0,1,.16.57,1,1,0,0,0,.27.5l.25.05.4.11a1.17,1.17,0,0,0,.42,0,2.9,2.9,0,0,0,.57-.12,1.1,1.1,0,0,0,.5-.32,1.68,1.68,0,0,0,.36-.7,4.07,4.07,0,0,0,.1-.8v-.4c0-.13,0-.26,0-.39V50.08c0-.25,0-.49,0-.73s0-.48,0-.73V46.49c0-.18,0-.36,0-.54s0-.36,0-.54,0-.43,0-.63,0-.41,0-.63,0-.24,0-.36,0-.23,0-.35,0-.3,0-.44,0-.28,0-.43c0-.35,0-.7,0-1s0-.71.05-1.05,0-.62.07-.91,0-.6.07-.92.07-.9.09-1.35,0-.91.08-1.36c0-.23,0-.45,0-.69s0-.46-.07-.68-.1-.56-.16-.83a2.09,2.09,0,0,0-.36-.79.6.6,0,0,0-.76-.26,1.45,1.45,0,0,0-.32.2l-.29.22-.13.11-.12.12a1.15,1.15,0,0,0-.14.17,1.22,1.22,0,0,1-.15.17,3.58,3.58,0,0,1-.27.29c-.1.1-.2.2-.29.31a2.71,2.71,0,0,0-.44.57,2.22,2.22,0,0,1-.45.56.12.12,0,0,0,0,.08.2.2,0,0,1,0,.08l0,0a0,0,0,0,1,0,0l-.26.28a3,3,0,0,0-.24.28,7.16,7.16,0,0,0-.42.59,5.34,5.34,0,0,1-.41.56c-.15.21-.3.4-.45.6l-.47.58-.55.68-.55.68c-.15.19-.29.39-.42.59l-.4.62a.48.48,0,0,1-.16-.12l-.29-.31-.28-.3-.19-.18c-.07-.06-.12-.13-.18-.19l-.46-.57c-.15-.2-.31-.39-.48-.58l-.61-.63c-.2-.21-.41-.43-.63-.64s-.44-.43-.67-.64l-.69-.64-.54-.47c-.17-.15-.35-.31-.52-.48s-.36-.38-.53-.58l-.54-.62-.12-.12a.38.38,0,0,1-.09-.13.35.35,0,0,0-.22-.25.22.22,0,0,1-.12,0l-.13-.06a.94.94,0,0,0-.59-.14.8.8,0,0,0-.52.35,1.57,1.57,0,0,0-.15.19.27.27,0,0,0,0,.21,2.64,2.64,0,0,1,0,.88c0,.3,0,.59-.08.88s-.07.59-.09.89c0,.56-.06,1.12-.07,1.67s0,1.12,0,1.68c0,.3,0,.6,0,.89s0,.6,0,.9,0,.62,0,.93,0,.63,0,.94l0,1c0,.33,0,.67,0,1l0,.7c0,.23,0,.47,0,.7,0,.46,0,.9,0,1.34s0,.88,0,1.33v1.49l0,1.48a2.45,2.45,0,0,0,.12.78,1.4,1.4,0,0,0,.44.64.45.45,0,0,0,.39,0,.81.81,0,0,0,.37-.26,2.1,2.1,0,0,0,.37-.74,11.06,11.06,0,0,0,.39-1.58"/><path class="cls-2" d="M1340,37.24l.12-.1,1.22-1.07a4.57,4.57,0,0,1,.36-.29l.36-.29h0a3.55,3.55,0,0,0,.31-.23l.32-.22a4.06,4.06,0,0,0,.46-.36,4.19,4.19,0,0,0,.39-.45l.14-.21a.64.64,0,0,0,.1-.24.77.77,0,0,0,0-.15.43.43,0,0,0,0-.16.6.6,0,0,0-.27-.37.46.46,0,0,0-.4-.07,1,1,0,0,0-.28.13,1.1,1.1,0,0,0-.21.14l-.2.16a1.64,1.64,0,0,0-.22.14l-.22.13-.33.25a2.62,2.62,0,0,1-.34.24,6.26,6.26,0,0,0-.57.45l-.54.48-.59.56-.59.56-.13.15-.12.17a.65.65,0,0,0-.11.22,1.16,1.16,0,0,0-.09.41.87.87,0,0,0,.14.48.46.46,0,0,0,.23.21.45.45,0,0,0,.28,0,.64.64,0,0,0,.16-.11l.22-.19c.08-.08.18-.17.27-.27l.13-.09"/><path class="cls-2" d="M1460.15,37.24l.12-.1,1.22-1.07a4.57,4.57,0,0,1,.36-.29l.36-.29h0a3.55,3.55,0,0,0,.31-.23l.32-.22a5.19,5.19,0,0,0,.46-.36,4.19,4.19,0,0,0,.39-.45l.14-.21a.64.64,0,0,0,.1-.24.77.77,0,0,0,0-.15.43.43,0,0,0,0-.16.68.68,0,0,0-.27-.37.46.46,0,0,0-.4-.07.9.9,0,0,0-.28.13,1.1,1.1,0,0,0-.21.14l-.2.16a1.64,1.64,0,0,0-.22.14l-.22.13-.33.25a3.53,3.53,0,0,1-.34.24,4.35,4.35,0,0,0-.57.45l-.54.48-.59.56-.6.56-.12.15-.12.17a.66.66,0,0,0-.12.22,1.15,1.15,0,0,0-.08.41.87.87,0,0,0,.14.48.46.46,0,0,0,.23.21.45.45,0,0,0,.28,0,.64.64,0,0,0,.16-.11l.22-.19c.08-.08.18-.17.27-.27l.13-.09"/><path class="cls-2" d="M1319.63,35.59l-.07-.12-.81-1.22a3.24,3.24,0,0,1-.21-.35,3.24,3.24,0,0,0-.21-.35h0l-.16-.3c-.06-.1-.11-.2-.16-.3a3.47,3.47,0,0,0-.26-.45q-.16-.21-.36-.42a1.54,1.54,0,0,0-.19-.17,1.39,1.39,0,0,0-.22-.15l-.14-.06a.47.47,0,0,0-.17,0,.63.63,0,0,0-.43.09.28.28,0,0,0-.17.26,1,1,0,0,0,.07.25,1.24,1.24,0,0,0,.1.2,1.28,1.28,0,0,1,.11.2l.09.2.09.2.18.32c.06.11.12.22.17.33a4.37,4.37,0,0,0,.32.55l.37.54c.13.21.28.41.42.61l.44.6.12.14.14.14a1.15,1.15,0,0,0,.2.15,1.64,1.64,0,0,0,.4.19,1.18,1.18,0,0,0,.51,0,.45.45,0,0,0,.27-.11.23.23,0,0,0,.06-.2.45.45,0,0,0-.07-.15,2.17,2.17,0,0,0-.15-.22l-.2-.28-.07-.13"/><path class="cls-2" d="M1320.51,35.88l.08-.12.77-1.23a3.64,3.64,0,0,1,.24-.35,4,4,0,0,0,.23-.34h0l.21-.29.22-.29a3.11,3.11,0,0,0,.31-.43,3.82,3.82,0,0,0,.21-.46,1.94,1.94,0,0,0,0-.2.34.34,0,0,0,0-.2.49.49,0,0,0,0-.11.22.22,0,0,0-.08-.09.65.65,0,0,0-.41-.12.77.77,0,0,0-.42.13,1.6,1.6,0,0,0-.23.21l-.15.19-.13.18-.16.19c0,.06-.11.12-.16.19a3.55,3.55,0,0,0-.23.31l-.24.3a4.45,4.45,0,0,0-.38.54c-.12.18-.23.36-.34.55s-.25.41-.36.62l-.36.63a.47.47,0,0,0-.06.15L1319,36a.4.4,0,0,0,0,.19.68.68,0,0,0,.08.31.64.64,0,0,0,.33.24.57.57,0,0,0,.31,0,.77.77,0,0,0,.28-.12.63.63,0,0,0,.12-.14c0-.07.09-.14.13-.22s.11-.19.17-.3l.09-.11"/><path class="cls-2" d="M1393.65,30.08a.75.75,0,0,0-.07-.12l-.82-1.18-.2-.34-.21-.34h0l-.17-.29-.15-.29a3.28,3.28,0,0,0-.26-.43,4.57,4.57,0,0,0-.37-.41l-.18-.16a.93.93,0,0,0-.22-.14l-.14-.06-.17,0a.74.74,0,0,0-.43.09.28.28,0,0,0-.17.26,1.09,1.09,0,0,0,.07.24,1.74,1.74,0,0,0,.1.19l.11.19.09.19.09.2.18.31c.06.1.11.21.16.31a4.86,4.86,0,0,0,.33.54l.36.52c.14.2.28.4.43.59s.29.39.43.58l.13.14.14.13a1.15,1.15,0,0,0,.2.15,2.1,2.1,0,0,0,.4.18,1.18,1.18,0,0,0,.51,0,.49.49,0,0,0,.26-.1.25.25,0,0,0,.07-.2.45.45,0,0,0-.07-.15l-.15-.21-.2-.27-.07-.12"/><path class="cls-2" d="M1394.53,30.35l.08-.11.77-1.19a2.75,2.75,0,0,1,.23-.33,2.62,2.62,0,0,0,.24-.34h0c.08-.09.15-.19.22-.28l.22-.27a3.77,3.77,0,0,0,.31-.42,4.54,4.54,0,0,0,.21-.45,1.8,1.8,0,0,0,0-.19.34.34,0,0,0,0-.2l0-.1a.22.22,0,0,0-.08-.09.59.59,0,0,0-.41-.11.68.68,0,0,0-.42.12,1.57,1.57,0,0,0-.23.2l-.15.18-.14.19-.15.18-.16.18-.23.3-.24.29a5.87,5.87,0,0,0-.39.52l-.33.53c-.13.2-.25.4-.37.6l-.35.61a.47.47,0,0,0-.06.15l-.06.15a.4.4,0,0,0,0,.19.6.6,0,0,0,.08.29.75.75,0,0,0,.64.27.77.77,0,0,0,.28-.12.45.45,0,0,0,.11-.14,1.53,1.53,0,0,0,.14-.21l.17-.28.09-.12"/><path class="cls-2" d="M1501.32,35.84a.83.83,0,0,0-.08-.12l-.81-1.18a3.13,3.13,0,0,1-.21-.34,3.13,3.13,0,0,0-.21-.34h0l-.16-.29a2.69,2.69,0,0,1-.16-.29,3,3,0,0,0-.62-.84l-.18-.16a1.21,1.21,0,0,0-.22-.15l-.15-.05-.16,0a.79.79,0,0,0-.44.09.27.27,0,0,0-.16.26.73.73,0,0,0,.07.24,1.74,1.74,0,0,0,.1.19c0,.06.07.12.1.19a1.74,1.74,0,0,0,.1.19l.09.2.17.31.17.31a3.65,3.65,0,0,0,.32.54l.37.52.42.59.44.58.13.14.14.13a.79.79,0,0,0,.19.15,2.43,2.43,0,0,0,.4.18,1.19,1.19,0,0,0,.51,0,.42.42,0,0,0,.27-.11.21.21,0,0,0,.06-.19.31.31,0,0,0-.07-.15,1.37,1.37,0,0,0-.15-.21l-.2-.27-.06-.12"/><path class="cls-2" d="M1502.19,36.11a1,1,0,0,0,.08-.11l.77-1.19a2.62,2.62,0,0,1,.24-.34q.12-.15.24-.33h0c.07-.1.15-.19.21-.28l.23-.27a4.15,4.15,0,0,0,.3-.43,2,2,0,0,0,.21-.44l.06-.19a.67.67,0,0,0,0-.2l0-.1a.32.32,0,0,0-.08-.09A.63.63,0,0,0,1504,32a.7.7,0,0,0-.42.12,1.5,1.5,0,0,0-.23.2l-.14.18-.14.19-.16.18-.16.18-.23.29a3.15,3.15,0,0,1-.24.3,5.71,5.71,0,0,0-.38.52l-.33.53c-.13.2-.25.4-.37.6l-.36.61-.06.15c0,.05,0,.1,0,.15a.58.58,0,0,0,0,.19.74.74,0,0,0,.08.29.67.67,0,0,0,.33.23.72.72,0,0,0,.32,0,.8.8,0,0,0,.27-.12.63.63,0,0,0,.12-.14l.14-.21c0-.09.11-.18.16-.28l.09-.12"/></svg>