<?xml version="1.0" encoding="utf-8"?>
<!-- Generator: Adobe Illustrator 25.2.3, SVG Export Plug-In . SVG Version: 6.00 Build 0)  -->
<svg version="1.1" id="Layer_1" xmlns="http://www.w3.org/2000/svg" xmlns:xlink="http://www.w3.org/1999/xlink" x="0px" y="0px"
	 viewBox="0 0 2823.3 262.1" style="enable-background:new 0 0 2823.3 262.1;" xml:space="preserve">
<style type="text/css">
	.st0{fill:#95C11F;}
	.st1{fill:#FFFFFF;}
</style>
<path class="st0" d="M93.3,225.4L93.3,225.4c0.1,0,0.1-0.1,0.1-0.1h-0.1L93.3,225.4z"/>
<path class="st0" d="M98.8,221l-4.7,0.4c-0.2,1.4-0.4,2.6-0.6,3.9l5.5-3.3C98.9,221.7,98.8,221.3,98.8,221z"/>
<path class="st0" d="M91.1,224.4l-5.1,2.7c2.5-0.3,5.2,1.5,7.3-1.7C92.4,225.3,91.3,226.6,91.1,224.4z"/>
<path class="st0" d="M1260.1,195.2l5.3,0.5C1261.3,194,1261.3,194,1260.1,195.2z"/>
<path class="st0" d="M2599.6,160.1l5.3,0.5C2600.8,158.9,2600.8,158.9,2599.6,160.1z"/>
<path class="st0" d="M2840.2,152.2l-4.2-5.7l-7-268.5l4.6-8.3c-2.9,0-5.6-0.2-8.4-0.1c-5.7,0.1-11.4,0.3-17,0.6
	c-1,0.2-2,0.7-2.8,1.2c-1-0.6-2.2-1-3.4-1c-3.1,0-6.2,0-9.3,0.2c-3.6,0.2-7.3-0.6-10.9,1.2c-0.5,0.2-1.1,0.2-1.6-0.1
	c-3.3-1.6-7.3-1.3-10.4,0.8c-0.9-0.5-1.8-1.5-2.6-1.5c-3.6,0-7.1,0.2-10.7,0.4c-4.1,0.2-8.2,0.5-12.3,0.6c-2.5,0.1-4.9-0.1-7.4-0.1
	c-5.9,0.1-11.7,0.2-17.6,0.3c-0.4,0-0.8,0.4-1.3,0.7c0.3,1.1,0.5,2,0.7,3.1l-4.4,0.1l-1.4-3.2c-4.6-0.1-9.2-0.2-13.7-0.1
	c-5.4,0.1-10.8,1-16.2,0.6s-10.7,0.8-16,0.6c-8.5-0.3-17,0.3-25.8,0.6l7.3,3.3c0-0.4,0.1-1,0.1-1.9l2.6,0.9c0,0.3,0.1,0.7,0.1,0.9
	l-10.2,0.3c-0.7-0.3-1.4-0.6-2-1c-1-0.5-2-1.5-3-1.8c-1.3-0.2-2.5-0.4-3.8-0.3l-0.6,1.9c-5.5-3.3-10.8-1.9-16.2-1.4
	c0.2,1.1,0.2,2.2-0.1,3.3h-1.3c-2.2-4.2-2.3-4.2-4.1-2.4c0.1,0.8,0.2,1.7,0.2,2.5l-2.3,0.1c-0.6-3-0.9-3.4-3.1-3.4
	c-2.6,0-5.3,0.1-7.9,0.2c-3.8,0.1-7.5,0.1-11.3,0.2c-6.2,0.2-12.5,0.4-18.7,0.6c-0.5,0.1-0.9,0.3-1.3,0.6c2,1.4,4,1.6,5.9,2.8
	l-3,0.1l-2.6-0.7c-4-1-8-2.6-12-2.7c-7.9-0.2-15.7,0.4-23.6,0.7c-7.1,0.3-14.3,0.5-21.4,0.9c-1.1,0.1-2.1,1-3.2,1.6v0.9l-4.8-2.5
	c-4.5,0-9.2,0-14,0c-1.3,0-2.7-0.3-3.7,1.7c-1.2-0.5-2.5-0.9-3.8-1.1c-5.1-0.1-10.2,0-15.4,0.1c-7,0.2-13.9,0.4-20.9,0.6
	c-4.4,0.1-8.8,0.3-13.2,0.3s-9,0.1-13.4,0.2c-5,0.2-10.1,0.4-15.1,0.6c-7.7,0.2-15.4,0.2-23,0.3c-6,0.1-11.9,0.2-17.9,0.4
	c-1.4,0.1-2.8,0.3-4.2,0.6c0.1,1.4,0.2,2.5,0.3,3.5h-0.5l-4-4l-0.9,2.9c-0.4-1.2-0.6-2-0.8-2.5l-4.4,0.5c0,0.8,0.1,1.8,0.1,2.9
	c-0.7-2.8-2.1-3.2-3.5-3.2c-1.9,0-3.8,0.1-5.8,0.1c-6.5,0.2-13,0.3-19.5,0.5c-1.7,0.2-3.3,0.5-4.9,0.9c-2.4-2-5,0.3-7.4-0.4
	c-0.4,1.2-0.7,2-1.1,3.3l-1.5-3.4l-43.4,1.3c-0.2,1.6-0.4,2.6-0.6,3.9h-0.1l-1.6-3.9l-43.5,1l2.4,2.2c-5.3-1-10.6-3.2-16.1-1.3
	l8.2,3.3l-19.4,0.5c-2.1-0.9-4.2-1.8-6.3-2.6c-2.3-0.7-4.6-1.2-7-1.6l-0.1,1.2c1.5,1.6,3.6,1.5,5.1,3.2l-2.5,0.1l-3.7-2v-0.1h-0.1
	v0.1h0.1c0.1,0.7,0.3,1.4,0.4,2.1l-13.7,0.4c-0.5-0.4-1.3-0.4-1.9,0h-1.1c-2.4-2-4.9-2.4-7.7-2.6c0.3,1,0.5,1.9,0.8,2.8l-2.7,0.1
	l-0.5-1.4c-0.7-1.9-1.6-2.8-2.9-2.7c-2.5,0.2-4.9,0.2-7.4,0.2c-1,0-1.6,0.3-1.6,1.7c0.7,0.9,1.6,1.7,2.2,2.5l-16.5,0.4
	c-0.7-1.1-1.6-2.2-2.4-3.2c-0.5-0.7-1.5-1-2.3-0.7c-3.8,2.2-7.8,0.1-11.7,0.7s-7.8,0-11.7-0.1v0.7l3,1.4c0,0.3,0,0.7-0.1,1
	c-0.7-0.2-1.5-0.4-2.2-0.6c-2.1-0.8-4.3-2.3-6.4-2.4c-6-0.2-12.1,0.1-18.1,0.4c-0.6,0.1-1.2,0.2-1.7,0.5l-2.9,0.1
	c-2.5-0.6-5.1-0.6-7.6,0.2l-7.3,0.2c-0.4-0.3-0.9-0.5-1.4-0.4c-0.6,0.2-1.3,0.3-1.9,0.5l-5,0.1l0.1-0.3l-4.7,0.3v0.1l-4,0.1
	c-0.5-0.2-0.9-0.3-1.3-0.4l-0.3,0.5l-2.4,0.1v0.1l-0.6,0.2l-3.4,0.1l-0.1,0.3c-4-1.8-8.3-0.4-12.5,0c-3.2,0.3-6.4-0.2-9.6,0
	c-4.4,0.2-8.8,0.3-13.2,0.4c-3.9,0.1-7.9,0.4-11.8,0.4c-7.4,0.2-14.8,0.2-22.2,0.5c-2.1,0.1-4.1,1-6.2,1.5c-1.3,0.5-2.7,0.7-4.1,0.7
	l2.8-1.3c0-0.2,0-0.3,0-0.5c-1.9-0.1-3.8-0.3-5.7-0.3c-6,0.1-11.9,0.3-17.8,0.6c-7.7,0.3-15.4,0.6-23,0.8c-3.3,0.1-6.6,0-9.9,0.3
	c-2.4,0.4-4.9,1.1-7.2,1.9c-2.7,0.8-5.4,1.6-8,2.3l-4.5,0.1l-0.3-0.3l8.6-2.7v-0.9c-0.5-0.2-1.1-0.3-1.6-0.3
	c-3.7,0.3-7.3,1.1-11,0.8c-5.9-0.4-11.4,2.2-17.1,4L1840-101l0.9-0.4c-1.8-3.4-3.7-0.4-5.6-1.2l1.2-2.2l-16.7,0.7c0,0.1,0,0.2,0,0.2
	l-19.1-0.1c-0.4,0-0.8,0-1.1,0l0,0c-0.6,0-1.2,0.1-1.8,0.1c-9.7,0.1-19.4,0.5-29.1,0.8c-0.5,0-0.9,0-1.4,0.2
	c-4.2,2.1-8.4,0.4-12.6,0.5c-1.5,0-3.1,0.7-4.6,0.7c-1.3,0.1-2.7-0.4-4-0.4c-7.5,0.1-15,0.2-22.5,0.4c-9.5,0.2-19,0.6-28.6,0.8
	c-0.7,0.1-1.5,0.2-2.2,0.1c-1.8-0.5-3.4,0-4.8,2.2c-0.3,0.5-0.8,0.6-1.5,1.1c-0.2-1.2-0.2-2-0.4-3c-1.8,0-3.6-0.2-5.5-0.1
	c-2.7,0-5.3,0.3-8,0.3s-5.3,0.2-7.3,3.8c-0.1,0.1-0.2,0.2-0.3,0.4l-3,0.1c1.2-1.1,2.6-2.2,4-3.5c-2-0.2-3.3-0.4-4.6-0.4
	c-3,0-6,0-9,0.2c-0.9,0.1-1.7,0.4-2.3,1l-3.9,3l-3,0.1c1.3-1.2,2.7-2.4,4.2-3.7c-1.8-0.1-3.5-0.3-5.1-0.2
	c-6.3,0.1-12.6,0.2-18.9,0.4c-7.7,0.3-15.4,0.7-23,1c-4.8,0.2-9.5,0-14.3,0.2c-6,0.2-12.1,0.5-18.1,0.9c-0.9,0.2-1.9,0.5-2.7,0.8
	c-3.1-1.7-6.3-1-10-0.1c-0.4-0.2-1-0.7-1.5-0.7c-5.2,0.1-10.4,0.5-15.6,0.3c-2.2-0.1-3.8,1.7-5.7,3.2l0.2,0.7l-3.1,0.1
	c0.5-1.2,1-2.4,1.4-3.7l-8.1,2.6c0-0.3-0.1-0.9-0.3-2c-3.4-0.5-6.9-0.2-10.1,1.1c-1.9-2.1-4.4-1-6.8-1.1c-2.1-0.1-4.2,0.4-6.3,0.2
	c-1.9-0.2-3.9,0-5.8,0.6c-2.7,0-5.3-0.1-7.8-0.1l-4.3,0.1c-1.7-0.1-3.1-0.2-4.6-0.1c-6,0.1-12.1,0.3-18.1,0.5
	c-2.2,0.1-4.4,0.3-6.6,0.5c-2.6,0-5.1-0.3-7.7,0.4h-5.7c-1.6-0.4-3.2-0.4-4.8,0h-5.9c-0.1,0-0.2,0-0.3,0c-1.4,0-2.7,0-4.1,0.1h-4.6
	c-9.7,0.2-19.4,0.5-29.1,0.8l-29.4,0.8h-0.8l-1.2,0.1c-5.4,0.1-10.9,0.3-16.3,0.5l0,0c-4.9-0.1-9.8,0.8-14.8,0.7
	c-8.5-0.3-17,0.3-25.8,0.6l7.3,3.3c0-0.4,0.1-1,0.1-1.9l2.6,0.9c0,0.3,0.1,0.7,0.1,0.9l-10.2,0.3c-0.7-0.3-1.4-0.6-2.1-1
	c-1-0.5-2-1.5-3-1.8c-1.3-0.3-2.5-0.4-3.8-0.3l-0.6,1.9c-5.5-3.3-10.8-1.9-16.2-1.4c0.2,1.1,0.2,2.2-0.1,3.3h-1.3
	c-2.2-4.2-2.3-4.2-4.1-2.4c0.1,0.8,0.2,1.7,0.2,2.5l-2.3,0.1c-0.6-3-0.9-3.4-3.1-3.4c-2.6,0-5.3,0.1-7.9,0.2
	c-3.8,0.1-7.5,0.1-11.3,0.2c-6.2,0.2-12.5,0.4-18.7,0.6c-0.5,0.1-0.9,0.3-1.3,0.6c1.9,1.4,4,1.6,5.9,2.8l-3,0.1l-2.6-0.7
	c-4-1-8-2.6-12-2.7c-7.9-0.2-15.7,0.4-23.6,0.7c-7.1,0.3-14.3,0.5-21.4,0.9c-1.1,0.1-2.1,1-3.2,1.6v1l-4.8-2.5h-14
	c-1.3,0-2.7-0.3-3.7,1.7c-1.2-0.5-2.5-0.9-3.8-1.1c-5.1-0.1-10.2,0-15.4,0.1c-7,0.2-13.9,0.4-20.9,0.6c-4.4,0.1-8.8,0.2-13.2,0.3
	s-9,0.1-13.4,0.2c-5,0.2-10.1,0.4-15.1,0.6c-7.7,0.2-15.4,0.2-23,0.3c-6,0.1-11.9,0.2-17.9,0.4c-1.4,0.1-2.8,0.4-4.2,0.7
	c0.1,1.4,0.2,2.5,0.3,3.5h-0.5l-4-4c-0.4,1.2-0.6,1.9-0.9,2.8c-0.4-1.2-0.6-2-0.8-2.5l-4.4,0.5c0,0.8,0.1,1.9,0.1,2.9
	c-0.7-2.8-2.1-3.2-3.5-3.2c-1.9,0-3.8,0.1-5.8,0.1c-6.5,0.2-13,0.3-19.5,0.5c-1.7,0.2-3.3,0.5-4.9,0.9c-2.4-2-5,0.3-7.3-0.4
	c-0.4,1.2-0.7,2-1.1,3.2l-1.6-3.4l-43.2,1.2c-0.3,1.6-0.4,2.6-0.6,3.9h-0.1l-1.6-3.9l-43.5,1l2.4,2.2c-5.3-1-10.5-3.3-16.1-1.3
	l8.2,3.3l-19.4,0.5c-2.1-0.9-4.2-1.8-6.3-2.6c-2.3-0.7-4.6-1.2-7-1.6c0,0.4,0,0.8-0.1,1.2c1.5,1.6,3.7,1.5,5.1,3.2l-2.5,0.1l-3.7-2
	V-77h-0.1l0,0h0.1c0.2,0.7,0.3,1.3,0.4,2.1l-13.7,0.4c-0.5-0.4-1.3-0.4-1.9,0h-1.1c-2.4-2-4.9-2.4-7.7-2.6l0.8,2.7l-2.7,0.1
	c-0.2-0.5-0.4-1-0.5-1.4c-0.7-1.9-1.6-2.8-3-2.7c-2.5,0.2-4.9,0.2-7.4,0.2c-1,0-1.6,0.3-1.7,1.7c0.7,0.9,1.6,1.7,2.2,2.5l-16.5,0.4
	c-0.8-1.2-1.6-2.3-2.4-3.3c-0.5-0.7-1.5-1-2.3-0.7c-3.8,2.3-7.8,0.2-11.7,0.7s-7.8,0-11.7-0.1v0.7l3,1.4c0,0.3,0,0.7-0.1,1
	c-0.7-0.2-1.5-0.3-2.2-0.6c-2.1-0.8-4.3-2.3-6.4-2.4c-6-0.2-12.1,0.1-18.1,0.4c-0.6,0.1-1.2,0.2-1.7,0.5l-2.9,0.1
	c-2.5-0.6-5.1-0.6-7.5,0.2l-7.3,0.2c-0.4-0.3-0.9-0.5-1.4-0.4c-0.6,0.2-1.3,0.3-1.9,0.5l-5,0.1c0-0.1,0.1-0.2,0.1-0.3l-4.7,0.3v0.1
	l-4,0.1c-0.5-0.2-0.9-0.3-1.3-0.4c-0.1,0.2-0.2,0.3-0.3,0.5l-2.4,0.1v0l-0.6,0.2l-3.4,0.1l-0.1,0.3c-4-1.8-8.3-0.4-12.5,0
	c-3.2,0.3-6.4-0.2-9.5,0c-4.4,0.2-8.8,0.3-13.2,0.4c-3.9,0.1-7.9,0.4-11.8,0.4c-7.4,0.2-14.8,0.2-22.2,0.5c-2.1,0.1-4.1,1-6.2,1.5
	c-1.3,0.5-2.7,0.7-4.1,0.7l2.8-1.3c0-0.2,0-0.3,0-0.5c-1.9-0.1-3.8-0.3-5.7-0.3c-5.9,0.1-11.9,0.3-17.8,0.5
	c-7.7,0.3-15.4,0.6-23,0.9c-3.3,0.1-6.6,0-9.9,0.3c-2.4,0.4-4.8,1.1-7.2,1.9c-2.7,0.8-5.4,1.6-8,2.3l-4.5,0.1l-0.3-0.3l8.6-2.7v-0.9
	c-0.5-0.1-1.1-0.2-1.6-0.2c-3.7,0.3-7.3,1-11,0.8c-5.9-0.4-11.5,2.2-17.1,4L500.4-66l0.9-0.4c-1.8-3.4-3.7-0.4-5.6-1.2l1.2-2.2
	l-16.7,0.7c0,0.1,0,0.2,0,0.2l-19.1-0.1c-0.4,0-0.7,0-1.1,0l0,0c-0.6,0-1.2,0.1-1.8,0.1c-9.7,0.1-19.4,0.5-29.1,0.8
	c-0.5,0-0.9,0-1.4,0.2c-4.2,2.1-8.4,0.4-12.6,0.5c-1.5,0-3.1,0.7-4.6,0.7c-1.3,0.1-2.7-0.4-4-0.4c-7.5,0.1-15,0.2-22.5,0.4
	c-9.5,0.2-19,0.5-28.6,0.8c-0.7,0.1-1.5,0.2-2.2,0.1c-1.9-0.5-3.5,0-4.8,2.2c-0.3,0.5-0.8,0.6-1.5,1.1c-0.2-1.2-0.2-2-0.4-3
	c-1.8,0-3.6-0.2-5.5-0.1c-2.6,0-5.3,0.3-8,0.3s-5.3,0.2-7.3,3.7c-0.1,0.1-0.2,0.3-0.3,0.4l-3,0.1c1.2-1.1,2.6-2.2,4-3.5
	c-2-0.2-3.3-0.4-4.6-0.4c-3,0-6,0-9,0.2c-0.9,0.1-1.7,0.4-2.3,1l-3.8,3.2l-3,0.1c1.3-1.2,2.7-2.4,4.2-3.7c-1.9-0.1-3.5-0.3-5.1-0.2
	c-6.3,0.1-12.6,0.2-18.9,0.4c-7.7,0.3-15.4,0.7-23,1c-4.8,0.2-9.5,0-14.3,0.2c-6,0.2-12.1,0.5-18.1,0.9c-0.9,0.2-1.9,0.5-2.7,0.8
	c-3.1-1.7-6.3-1-10-0.1c-0.4-0.2-1-0.7-1.5-0.7c-5.2,0.1-10.4,0.5-15.6,0.3c-2.2-0.1-3.8,1.7-5.7,3.2c0.1,0.2,0.1,0.5,0.2,0.7
	l-3.1,0.1c0.5-1.2,1-2.5,1.4-3.7l-8.1,2.5c0-0.3-0.1-0.9-0.3-2c-3.4-0.5-6.9-0.2-10.2,1.1c-1.9-2.1-4.4-1-6.8-1.1
	c-2.1-0.1-4.2,0.4-6.3,0.2c-3.5-0.2-6.9,0.1-10,3.1c-0.3,0.3-0.7,0.6-1.1,0.9l-5.2,0.1l2.2-1.2c-1.6-3.1-2.8,0.8-4.3-0.3
	c0.4-0.6,0.7-1.1,1.3-2c-2-0.1-3.7-0.2-5.4-0.1c-6,0.1-12.1,0.3-18.1,0.5c-3.4,0.1-6.8,0.6-10.1,0.8c-1.6,0.1-3.3,0.1-4.9,0.1
	c-8.2,0-16.3-0.1-24.5,0.1c-9.7,0.2-19.4,0.5-29.1,0.8l-29.4,0.8C15-57,8.9-56.9,2.8-56.6c-0.8,0.2-1.6,0.5-2.4,0.9
	c-2.6-0.7-5.1-1.1-7.6,0.8c-1.6-1.4-11.4-1.5-14.7,0l7.2,10.7l6.8,258.8l-6.9,0.2c0.1,5.7,0.2,8.3,0.4,14.4c1,0.5,2.1,0.8,3.2,1
	c6-0.1,12.1,0,18.1-0.6c2.1-0.2,4.2-1.8,6.3-2.8c0.7-0.3,1.4-0.5,2.2-0.7c0.1,0.3,0.1,0.6,0.1,1l-2.9,1.5c0,0.2,0,0.5,0.1,0.7
	c3.9-0.3,7.8-1,11.7-0.7s7.8-1.9,11.7,0.1c0.9,0.2,1.8-0.1,2.3-0.8c1.4-1.8,2.6-4.1,4.2-6.5l-0.5-0.4l16.7-0.4
	c-0.4,0.6-0.6,1.3-0.8,2c-0.5,1.7-1.8,2.7-2.8,4.1c0.1,1.4,0.8,1.7,1.7,1.6c2.5-0.2,4.9-0.3,7.4-0.2c1.4,0,2.2-0.9,2.8-2.9
	c0.5-1.6,1-3.1,1.7-4.9l1.7-0.1l0.5,0.6l-1.3,5.7c3-0.4,5.6-0.9,8.1-3.5c1.4,1.8,2.7,0.1,4-0.8s2.3-1.6,3.4-2.4l17.4-0.5l-1.8,0.8
	c-0.8,4.8-4,4-6,6.3l0.2,1.2c2.3-0.5,4.6-1.2,6.9-2c3.7-1.6,7.3-3.5,11-5.3l2.5-1.2l20.2-0.5l-16.1,7.3c5.7,1.7,10.7-0.8,16-2.1
	l-2.2,2.3l43.5-1.2l1.4-4.1c0.3,1.4,0.5,2.4,0.9,4.1l43.2-1.1c0.3-0.9,0.7-2,1.3-3.5c0.5,1.2,0.8,2,1.2,3.2c2.4-0.9,5,1.3,7.3-0.8
	c1.6,0.3,3.3,0.5,4.9,0.6c6.5-0.1,13-0.3,19.5-0.5c1.9-0.1,3.9-0.1,5.8-0.2c1.4-0.1,2.8-0.6,3.4-3.4c0,1,0,2.1,0,2.9l4.4,0.3
	c0.1-0.5,0.3-1.4,0.6-2.5c0.4,0.9,0.6,1.6,1.1,2.8l4.4-4.8c0,1.2-0.1,2.4-0.1,4.1c1.4,0.2,2.8,0.4,4.2,0.4c6-0.1,11.9-0.3,17.9-0.5
	c7.7-0.3,15.4-0.6,23-0.9c5-0.1,10.1-0.1,15.1-0.2c4.5-0.1,9-0.3,13.4-0.5s8.8-0.2,13.2-0.3c7-0.2,13.9-0.3,20.9-0.5
	c5.1-0.2,10.2-0.3,15.4-0.7c1.3-0.3,2.5-0.7,3.7-1.3c1.1,1.9,2.5,1.5,3.8,1.5c4.7-0.3,9.5-0.5,14-0.7l4.7-2.7l0.1,1
	c1.1,0.5,2.2,1.4,3.2,1.4c7.1,0,14.3-0.1,21.4-0.2c7.9-0.1,15.8,0.1,23.6-0.5c4-0.3,7.9-2.2,11.9-3.4c2.3-0.7,4.5-1.4,6.9-1.9
	c-2.1,2.3-4.7,2.3-7,4.1c0.4,0.2,0.9,0.4,1.4,0.5c6.2-0.1,12.5-0.2,18.7-0.4c3.8-0.1,7.5-0.2,11.3-0.4c2.6-0.1,5.3-0.1,7.9-0.2
	c2.2-0.1,2.5-0.5,2.9-3.9c-0.3-1.2-1-2.3-2-3.1l3.6-0.1c0.6,1.9,0.8,4,0.5,6c2,1.7,2,1.7,4.3-3.2c1.6-0.1,1.3,1.9,1.3,3.9
	c5.4,0.1,10.8,1.3,16.1-2.3c0.3,0.7,0.5,1.2,0.7,1.9c1.3,0,2.5-0.2,3.8-0.5c1-0.4,1.9-1.4,2.9-1.9c1.4-0.8,2.9-1.5,4.4-2.1
	c1.2-0.4,2.4-0.6,2.8-2.6l3.7-0.1l1.4,1.7c0,0.4-0.1,1.4-0.2,2.7l-2.5,1c-0.1-0.9-0.2-1.4-0.2-1.9l-7.1,3.6c8.8-0.2,17.3,0,25.8-0.8
	c5.3-0.5,10.7,0.4,16-0.2s10.8-0.1,16.2-0.2c4.5-0.1,9.1-0.6,13.7-0.9l2.5-6.8l4.9-0.1c-0.6,1.6-0.8,3.3-0.6,5l-1-2.8
	c-0.3,1.7-0.5,2.9-0.8,4.5c0.5,0.2,0.9,0.6,1.3,0.6c5.8-0.2,11.7-0.3,17.5-0.6c2.5-0.1,4.9-0.4,7.4-0.5c4.1-0.1,8.2,0,12.3,0
	c3.6,0,7.1,0,10.7-0.2c0.8-0.1,1.7-1,2.5-1.6c3.4,1.8,6.9,2.1,10.4,0.2c0.5-0.3,1-0.4,1.5-0.2c3.7,1.7,7.3,0.6,10.9,0.7
	c3.1,0,6.2-0.1,9.3-0.3c1.2-0.1,2.3-0.5,3.3-1.2c0.9,0.5,1.9,0.9,2.9,1.1c5.7,0,11.3-0.1,17-0.3c2.2-0.1,4.5-0.3,6.8-0.4
	c1.7,0.2,3.4,0,5-0.7c0.8,0.4,1.6,0.7,2.4,0.8c6.1-0.1,12.2-0.2,18.3-0.4l29.4-0.7c9.7-0.2,19.4-0.4,29.1-0.8
	c8.2-0.3,16.3-0.8,24.4-1.2c1.6-0.1,3.3-0.2,4.9-0.2c3.4,0.1,6.8,0.3,10.2,0.3c6-0.1,12.1-0.2,18.1-0.4c1.7-0.1,3.4-0.3,5.4-0.4
	l-1.4-1.9c1.5-1.1,2.9,2.7,4.3-0.5l-3.4-1.6c2.5-1,5.4-0.6,7.5,1.2c3.3,2.8,6.7,2.9,10.2,2.6c2.1-0.2,4.2,0.1,6.3-0.1
	c2.4-0.2,4.9,0.8,6.7-1.4c3.3,1.1,6.8,1.3,10.2,0.6c0.1-1,0.2-1.7,0.2-2l8.2,2.1c-1.1-2.5-2.2-4.8-3.4-7.1l3.8-0.1
	c0.5,0.6,0.9,1.1,1.3,1.7c-0.1,0.9-0.2,1.7-0.4,2.5c2,1.4,3.7,3.1,5.9,2.9c5.2-0.4,10.4-0.3,15.6-0.5c0.6,0,1.1-0.6,1.5-0.8
	c3.7,0.7,7,1.2,9.9-0.6c0.9,0.3,1.8,0.6,2.8,0.7c6,0,12.1,0,18.1-0.1c4.8-0.1,9.5-0.5,14.3-0.6c7.7-0.1,15.4-0.1,23.1-0.2
	c6.3-0.1,12.6-0.3,18.9-0.5c1.6-0.1,3.2-0.3,5-0.5c-2.5-2-4.7-3.8-7-5.4l-1.9-1.4l3-0.1c2.8,2.1,5.6,4.2,8.4,6.3
	c0.7,0.5,1.5,0.8,2.4,0.9c3,0,6-0.1,9-0.3c1.3-0.1,2.6-0.4,4.6-0.7c-3.2-2.5-5.8-4.5-8.3-6.7l6.5-0.2l1.6,1.2l-3.1,0.5
	c1.1,1,1.9,1.3,2.4,2.1c2.2,3.4,4.8,3.6,7.5,3.4s5.3-0.1,8-0.1c1.8-0.1,3.6-0.3,5.4-0.4c0.1-1.1,0.1-1.8,0.2-3
	c0.7,0.4,1.2,0.5,1.6,1c1.5,2.1,3.1,2.5,4.9,1.9c0.7-0.1,1.5-0.1,2.2,0c9.5-0.2,19-0.4,28.6-0.7c7.5-0.2,15-0.5,22.5-0.8
	c1.3,0,2.7-0.6,4-0.6c1.5,0,3.1,0.5,4.6,0.5c4.2-0.1,8.4-2,12.7-0.1c0.4,0.1,0.9,0.2,1.4,0.1c9.7-0.2,19.4-0.4,29.1-0.8
	c0.6,0,1.2,0,1.8,0l0,0c0.4,0,0.7,0,1.1-0.1l19.1-1.1v0.2l16.7-0.2l-1.3-2.1c1.8-1,3.8,1.9,5.5-1.6l-4.4-1.8c0-0.4,0.1-0.8,0.1-1.2
	c1.7,0.4,3.3,0.7,5,1.1c0.7,0.2,1.4,0.4,2.1,0.5c1.9,0,3.8,0.2,5.7,0.4c6.1,1.4,12.2,4.2,18.4,3.4c3.6-0.5,7.3,0.1,11,0.2
	c0.5-0.1,1.1-0.2,1.6-0.4c0-0.3,0-0.6,0-0.9l-8.7-2.3c0.4-0.7,1.3-1.1,2.1-1c3.6,0.8,7.2,1.7,10.8,2.5c2.4,0.7,4.8,1.2,7.3,1.5
	c3.3,0.2,6.6-0.1,9.9-0.2l8.8-0.1c0.4,0.1,0.8,0.2,1.2,0.2c5.8-0.1,11.7-0.1,17.5-0.5c4.4-0.1,8.9-0.2,13.3-0.3
	c1.9-0.1,3.8-0.4,5.7-0.6l0,0c1.3-0.1,2.6-0.2,3.9-0.5c1.2,0.3,2.4,0.5,3.6,0.5c1,0,2,0,3-0.1l0.1,0.1c0.4,0.2,0.9,0.1,1.3-0.1
	c4.8-0.1,9.5-0.3,14.3-0.5l0.3,10.5l72.6-0.6c0,0-0.2-8.9,0.3-11.7h0.1l0.8,0.1c0.5,0.1,1-0.1,1.4-0.5l6.1-0.2l-0.2,0.2l2.2-0.1
	c1.9,0.3,3.8,0.3,5.7-0.2l8.6-0.2c0.2,0,0.3,0,0.5,0l26.6-0.8c0.4-1.3,0.8-2.5,1.4-4.1c0.3,1.4,0.5,2.4,0.9,4.1l43.2-1.1
	c0.3-0.9,0.7-2,1.3-3.5c0.5,1.2,0.8,2,1.2,3.2c2.4-0.9,5,1.3,7.3-0.8c1.6,0.3,3.3,0.5,4.9,0.6c6.5-0.1,13-0.3,19.5-0.5
	c1.9-0.1,3.8-0.1,5.8-0.2c1.4-0.1,2.8-0.6,3.3-3.4c0,1,0,2.1,0,2.9l4.4,0.3c0.1-0.5,0.3-1.4,0.6-2.5c0.4,1,0.6,1.7,1.1,2.8l4.3-4.8
	c0,1.2-0.1,2.4-0.1,4.1c1.4,0.2,2.8,0.4,4.2,0.4c6-0.1,11.9-0.3,17.8-0.5c7.7-0.3,15.3-0.6,23-0.9c5-0.1,10.1-0.1,15.1-0.2
	c4.5-0.1,9-0.3,13.4-0.5s8.8-0.2,13.2-0.3c7-0.2,13.9-0.3,20.9-0.5c5.1-0.2,10.2-0.3,15.4-0.7c1.3-0.3,2.5-0.7,3.7-1.3
	c1.1,1.9,2.5,1.5,3.8,1.5c4.8-0.3,9.5-0.5,14-0.7l4.7-2.7c0,0.3,0,0.6,0,0.9c1.1,0.5,2.2,1.4,3.2,1.4c7.2,0,14.3-0.1,21.4-0.2
	c7.9-0.1,15.8,0.1,23.6-0.5c4-0.3,7.9-2.2,11.8-3.4c2.3-0.7,4.5-1.4,6.9-1.9c-2.1,2.3-4.7,2.3-7,4.1c0.4,0.2,0.9,0.4,1.3,0.5
	c6.2-0.1,12.5-0.2,18.7-0.4c3.8-0.1,7.5-0.2,11.3-0.4c2.6-0.1,5.3-0.1,7.9-0.2c2.2-0.1,2.4-0.5,2.9-3.9c-0.3-1.2-1-2.3-2-3.1
	l3.6-0.1c0.6,1.9,0.8,4,0.5,6c2,1.7,2,1.7,4.3-3.2c1.6-0.1,1.3,1.9,1.3,3.9c5.4,0.1,10.8,1.3,16.1-2.3l0.7,1.9
	c1.3,0,2.5-0.2,3.8-0.6c1-0.4,1.9-1.4,2.9-1.9c1.4-0.8,2.8-1.5,4.4-2.1c1.2-0.4,2.4-0.6,2.9-2.6l3.7-0.1l1.4,1.7
	c0,0.4-0.1,1.4-0.2,2.7l-2.5,1c-0.1-0.9-0.2-1.4-0.2-1.9l-7.1,3.6c8.8-0.2,17.3,0,25.8-0.8c5.3-0.5,10.7,0.4,16-0.2
	s10.8-0.1,16.2-0.2c4.6-0.1,9.1-0.6,13.7-0.9c0.8-2.3,1.7-4.6,2.5-6.8l4.9-0.1c-0.6,1.6-0.8,3.3-0.6,5c-0.3-0.8-0.6-1.6-1-2.8
	c-0.3,1.7-0.5,2.9-0.8,4.5c0.5,0.2,0.9,0.6,1.3,0.6c5.9-0.2,11.7-0.4,17.6-0.6c2.5-0.1,4.9-0.4,7.4-0.5c4.1-0.1,8.2,0,12.3,0
	c3.6,0,7.1,0,10.7-0.2c0.8-0.1,1.7-1,2.5-1.6c3.2,1.9,7.1,2,10.4,0.2c0.5-0.3,1-0.4,1.6-0.2c3.6,1.7,7.3,0.6,10.9,0.7
	c3.1,0,6.2-0.1,9.3-0.3c1.2-0.1,2.3-0.5,3.3-1.2c0.9,0.5,1.9,0.9,2.9,1.1c5.7,0,11.4-0.1,17-0.3c2.2-0.1,4.5-0.2,6.8-0.4
	c1.7,0.2,3.4,0,5-0.7c0.8,0.4,1.6,0.7,2.4,0.8c6.1-0.1,12.2-0.2,18.3-0.4l29.4-0.7c9.7-0.2,19.4-0.4,29.1-0.8
	c8.1-0.3,16.3-0.8,24.4-1.2c1.6-0.1,3.3-0.2,4.9-0.2c3.4,0.1,6.8,0.3,10.2,0.3c6,0,12.1-0.2,18.1-0.4c1.7,0,3.4-0.3,5.4-0.4
	l-1.4-1.9c1.5-1.1,2.9,2.7,4.3-0.5l-3.4-1.6c2.5-1,5.4-0.6,7.4,1.2c3.3,2.8,6.7,2.9,10.2,2.6c2.1-0.2,4.2,0.1,6.3-0.1
	c2.4-0.2,4.9,0.8,6.7-1.4c3.3,1.1,6.8,1.3,10.2,0.6c0.1-1,0.2-1.7,0.2-2l8.2,2.1c-1.1-2.5-2.2-4.9-3.4-7.1l3.8-0.1l1.3,1.7l-0.4,2.5
	c2,1.4,3.7,3.1,5.9,2.9c5.2-0.4,10.4-0.3,15.6-0.5c0.6,0,1.1-0.6,1.5-0.8c3.7,0.7,7,1.2,9.9-0.6c0.9,0.3,1.8,0.6,2.8,0.7
	c6,0,12.1,0,18.1-0.1c4.8-0.1,9.5-0.5,14.3-0.6c7.7-0.1,15.4-0.1,23.1-0.2c6.3-0.1,12.6-0.3,18.9-0.5c1.6-0.1,3.2-0.3,5-0.5
	c-2.5-2-4.7-3.8-7-5.4l-1.9-1.4l3-0.1c2.8,2.1,5.6,4.2,8.4,6.3c0.7,0.5,1.5,0.8,2.4,0.9c3,0,6-0.1,9-0.3c1.3-0.1,2.6-0.4,4.6-0.7
	c-3.2-2.6-5.8-4.5-8.3-6.7l6.5-0.2l1.6,1.2l-3.1,0.5c1.1,0.9,1.9,1.3,2.4,2.1c2.2,3.4,4.8,3.6,7.5,3.4s5.3-0.1,8-0.1
	c1.8-0.1,3.6-0.3,5.4-0.4c0.1-1.1,0.1-1.8,0.2-3.1c0.7,0.4,1.2,0.5,1.6,1c1.5,2.1,3.1,2.5,4.9,1.9c0.7-0.1,1.5-0.1,2.2-0.1
	c9.5-0.2,19.1-0.4,28.6-0.7c7.5-0.2,15-0.5,22.5-0.8c1.3-0.1,2.7-0.6,4-0.6c1.5,0,3.1,0.5,4.6,0.5c4.2-0.1,8.4-2,12.6-0.1
	c0.4,0.1,0.9,0.2,1.4,0.1c9.7-0.2,19.4-0.4,29.1-0.8c0.6,0,1.2,0,1.8,0l0,0c0.4,0,0.7,0,1.1-0.1l19.1-1.1v0.2l16.7-0.2l-1.4-2.1
	c1.9-1,3.9,1.9,5.5-1.5l-4.4-1.8c0-0.4,0.1-0.8,0.1-1.2l5,1.1c0.7,0.2,1.4,0.4,2.1,0.5c1.9,0,3.8,0.2,5.7,0.4
	c6.1,1.4,12.2,4.2,18.4,3.4c3.6-0.5,7.3,0.1,11,0.2c0.5-0.1,1.1-0.2,1.6-0.4c0-0.3,0-0.6,0-0.9l-8.7-2.3c0.4-0.7,1.3-1.1,2.1-1
	c3.6,0.8,7.2,1.7,10.8,2.5c2.4,0.7,4.8,1.2,7.3,1.5c3.3,0.2,6.6-0.1,9.9-0.2c7.7-0.1,15.4-0.2,23-0.4c6-0.1,11.9-0.2,17.9-0.4
	c1.9-0.1,3.8-0.4,5.7-0.6c0-0.2,0-0.4,0-0.5l-2.9-1.2c1.4-0.1,2.8,0.1,4.1,0.5c2.1,0.5,4.2,1.2,6.3,1.2c7.4-0.1,14.8-0.5,22.2-0.7
	c3.9-0.1,7.9-0.1,11.8-0.2c4.4-0.1,8.8-0.3,13.2-0.3c3.2,0,6.3-0.7,9.5-0.6c4.2,0.2,8.6,1.4,12.5-0.6l0.1,0.3l3.4-0.1l0.6,0.1
	c0-0.1,0-0.1,0-0.2l2.4-0.1l0.4,0.5c0.4-0.2,0.8-0.3,1.3-0.5l4-0.1v0.1l4.7,0.1c0-0.1-0.1-0.2-0.1-0.3l5-0.1
	c0.6,0.1,1.3,0.2,1.9,0.4c0.5,0.1,1-0.1,1.4-0.5l7.3-0.2c2.5,0.6,5.1,0.6,7.6-0.2l6.8-0.2c0.7,0.3,1.5,0.3,2.2-0.1l10.3-0.3h0.9
	L2840.2,152.2z M2090.8,168.3l-0.2,0.7l-1.8-0.7l-0.4-0.7h1.8L2090.8,168.3z M751.2,203.4l-0.2,0.7l-1.8-0.7l-0.5-0.7l1.8-0.1
	L751.2,203.4z M2783-125.8h-0.4l0.2-0.7L2783-125.8z M2719.9-125.6c0,0.5,0,1,0,1.5h-0.5C2719.7-124.7,2719.8-125.1,2719.9-125.6
	L2719.9-125.6z M2710.9-126.2c0.3,0.7,0.5,1.5,0.8,2.3h-0.9C2710.9-124.7,2711-125.4,2710.9-126.2L2710.9-126.2z M2486.5-118.7
	c-0.3,0.3-0.5,0.5-0.7,0.7h-1.4c-0.4-0.7-0.8-1.4-1.1-2.2L2486.5-118.7z M2420.3-116.7c0.1,0,0.1,0.2,0.2,0.4l-5.1,0.1l-0.2-0.3
	C2417.1-116.6,2418.7-116.7,2420.3-116.7L2420.3-116.7z M2393.5-116.4c1.1-0.3,2.1-1,3.1-0.8c5.4,1.3,10.8-0.5,16.3,1.2l-18.8,0.5
	C2393.9-115.9,2393.7-116.1,2393.5-116.4L2393.5-116.4z M2309.7-113.3h-1.2c-0.1-0.7-0.3-1.4-0.4-2.1
	C2308.8-114.9,2309.4-114.2,2309.7-113.3L2309.7-113.3z M2298.1-114.7l0.5-0.2c0.2,0.6,0.4,1.2,0.5,1.9h-0.9
	C2298.3-113.6,2298.2-114.2,2298.1-114.7L2298.1-114.7z M2114-108.3l-2.2,0.1c0-0.6,0-1.1,0.1-1.8
	C2112.6-109.5,2113.3-108.8,2114-108.3z M1998.6-105.5l-0.2,0.2h-0.2L1998.6-105.5z M1147-83.6l-0.7,0.7h-1.4
	c-0.4-0.7-0.8-1.4-1.2-2.2L1147-83.6z M1080.8-81.6c0.1,0,0.1,0.2,0.2,0.4l-5,0.1l-0.2-0.3C1077.6-81.5,1079.2-81.7,1080.8-81.6
	L1080.8-81.6z M1054-81.3c1.1-0.3,2.1-1,3-0.8c5.4,1.3,10.8-0.5,16.3,1.2l-18.8,0.5C1054.4-80.8,1054.2-81.1,1054-81.3L1054-81.3z
	 M970.2-78.3H969c-0.2-0.7-0.3-1.4-0.5-2.1C969.3-79.8,969.9-79.1,970.2-78.3L970.2-78.3z M958.7-79.6l0.5-0.2l0.5,1.9h-0.8
	C958.8-78.6,958.7-79.1,958.7-79.6L958.7-79.6z M774.5-73.2l-2.2,0.1c0-0.6,0-1.1,0.1-1.8C773.1-74.4,773.8-73.8,774.5-73.2z
	 M659-70.4l-0.2,0.2h-0.2C658.8-70.2,658.9-70.3,659-70.4z M122.2-56.1l-2.1,0.1l2-0.6C122.2-56.5,122.2-56.3,122.2-56.1z
	 M106.5-55.7h-1.2c0.6-0.3,1.2-0.6,1.8-0.9L106.5-55.7z M-7-52.7h-0.8l0.1-0.3L-7-52.7z M38.9,222.1c-3-0.6-5.2,2.4-7.7,4.5
	c-0.1-0.8-0.1-1.4-0.2-2.1l-3.2,0.2l-0.1-1c1.2-0.5,2.5-0.9,3.7-1.5c0.5-0.3,1-0.6,1.5-0.9l6.8-0.2
	C39.3,221.4,39.1,221.7,38.9,222.1z M65.5,220.6l-0.6,0.7l-0.6-0.8h1.2L65.5,220.6z M164.4,221.2l-2.3-1.2c0.2-0.7,0.3-1.4,0.4-2h1
	c0,0.5-0.1,1-0.1,1.4l1.2,1.1C164.6,220.7,164.5,221,164.4,221.2z M168.6,217.8L168.6,217.8h0.7v0.3L168.6,217.8z M217.5,221.6
	c0-1.7,0.1-3.3,0.2-5.1h1.5c-0.5,2.2-0.9,3.8-1.2,5.4L217.5,221.6z M224.1,217.6l-0.4-1.3l2.1-0.1l0.2,0.4L224.1,217.6z
	 M227.4,221.8c0.3-1.9,0.6-3.8,1-5.6h1.6C229.4,218.4,229,220.7,227.4,221.8L227.4,221.8z M272.9,215.3V215h1.6c0,0.1,0,0.2,0,0.3
	L272.9,215.3z M402.5,217.3c1.4-3.2,1.4-3.2,3.2-1.6L402.5,217.3z M340,215.7c-0.2,0.6-0.3,1.5-0.5,1.5c-1.6,0.1-3.2,0-5,0
	c0.4-0.8,0.6-1.2,1-2.1c-6.4,4.5-13.2,1.9-19.7,3.8c-0.9,0.3-1.9-0.4-3.1-0.6c1-2,2.8-3.5,5-4.1l1.1-0.4l20-0.5
	c-0.6,0.5-1,1.1-1.4,1.8L340,215.7z M623.6,205.9h0.5l-0.4,1C623.7,206.5,623.6,206.2,623.6,205.9L623.6,205.9z M632,206.4
	c-0.7,1.7-1.2,3.3-1.7,5.1c0-1.9-0.6-3.9-0.8-5.7l2.9-0.1C632.2,205.9,632.1,206.1,632,206.4L632,206.4z M700.6,203.9l2.8-0.1
	c-0.5,1.4-1,2.7-1.5,4.2L700.6,203.9z M715.8,203.5h0.9l-1,0.5L715.8,203.5z M855.5,199.8l3.8-0.1c1.3,1.3,2.6,2.7,3.8,4.2
	C860.3,202.9,857.8,201.6,855.5,199.8L855.5,199.8z M878.1,203.3l-5.5-1.4c0-0.2,0-0.4,0.1-0.6l5.5,1.4
	C878.1,202.8,878.1,203,878.1,203.3L878.1,203.3z M890,200c0-0.3,0-0.6,0-1l7-0.1C894.7,202.4,892.4,199.3,890,200z M930.4,197.9h1
	v0.3l2.8,1.7C932.5,200.4,931.4,199.3,930.4,197.9L930.4,197.9z M939.7,198.5c-0.8-0.1-1.6-0.4-2.2-0.9l1.9-0.1L939.7,198.5z
	 M974.5,196.9l-0.1-0.2h0.1L974.5,196.9z M1098.2,193.5l4.6-0.1c0.2,0.2,0.4,0.4,0.6,0.7C1101.4,195.6,1099.8,194.9,1098.2,193.5
	L1098.2,193.5z M1279,188.7h0.9C1279.6,188.8,1279.3,188.8,1279,188.7z M1320.1,189.3c1.2-1.4,2.4-1.1,3.4,0.9L1320.1,189.3z
	 M1504,186.1l-2.3-1.2c0.2-0.7,0.3-1.4,0.4-2h1c0,0.5-0.1,1-0.1,1.4l1.2,1.2C1504.1,185.6,1504.1,185.9,1504,186.1z M1508.2,182.7
	L1508.2,182.7h0.7v0.3L1508.2,182.7z M1557,186.6c0-1.7,0.1-3.3,0.2-5.1h1.5c-0.5,2.2-0.9,3.8-1.2,5.4L1557,186.6z M1563.6,182.6
	c-0.1-0.4-0.2-0.9-0.4-1.3h2.1c0.1,0.1,0.1,0.3,0.2,0.4L1563.6,182.6z M1566.9,186.7c0.3-1.9,0.6-3.8,1-5.6h1.6
	C1569,183.3,1568.5,185.6,1566.9,186.7L1566.9,186.7z M1612.5,180.2v-0.2h1.6c0,0.1,0,0.2,0,0.3L1612.5,180.2z M1742.1,182.2
	c1.4-3.2,1.4-3.2,3.2-1.6L1742.1,182.2z M1679.5,180.6c-0.2,0.6-0.3,1.5-0.4,1.5c-1.6,0.1-3.2,0-5,0c0.4-0.8,0.6-1.2,1-2
	c-6.4,4.5-13.2,1.9-19.7,3.8c-0.9,0.3-1.9-0.4-3.1-0.6c1-2,2.8-3.5,5-4.1l1.1-0.4l20-0.5c-0.6,0.5-1,1.1-1.4,1.8L1679.5,180.6z
	 M1963.1,170.7h0.5l-0.4,0.9C1963.2,171.4,1963.2,171.1,1963.1,170.7L1963.1,170.7z M1971.5,171.3c-0.7,1.7-1.2,3.3-1.7,5.1
	c0-1.9-0.6-3.9-0.8-5.7l2.9-0.1C1971.8,170.8,1971.6,171.1,1971.5,171.3L1971.5,171.3z M2040.2,168.7l2.8-0.1
	c-0.5,1.4-1,2.7-1.4,4.2C2041,171.4,2040.6,170.1,2040.2,168.7L2040.2,168.7z M2055.3,168.3h0.9l-1,0.5
	C2055.1,168.7,2055.2,168.5,2055.3,168.3L2055.3,168.3z M2195,164.7l3.8-0.1c1.3,1.3,2.6,2.7,3.8,4.2
	C2199.8,167.9,2197.3,166.5,2195,164.7z M2217.6,168.2l-5.5-1.4l0.1-0.6l5.5,1.4C2217.6,167.8,2217.6,168,2217.6,168.2L2217.6,168.2
	z M2229.5,164.9c0-0.3,0-0.6,0-1l7-0.1C2234.2,167.3,2231.9,164.2,2229.5,164.9L2229.5,164.9z M2269.9,162.8h1l0.1,0.3l2.8,1.7
	C2272.1,165.3,2271,164.2,2269.9,162.8L2269.9,162.8z M2279.3,163.4c-0.8-0.1-1.6-0.4-2.2-0.9h1.9
	C2279.1,162.8,2279.2,163.1,2279.3,163.4L2279.3,163.4z M2314.1,161.8l-0.1-0.2h0.1L2314.1,161.8z M2437.8,158.4l4.6-0.1
	c0.2,0.2,0.4,0.4,0.6,0.7C2440.9,160.6,2439.3,159.8,2437.8,158.4L2437.8,158.4z M2618.5,153.6h0.9
	C2619.2,153.7,2618.8,153.7,2618.5,153.6L2618.5,153.6z M2659.6,154.2c1.2-1.4,2.4-1.1,3.4,0.9L2659.6,154.2z M2750.1,150.6
	c-0.2-0.1-0.3-0.3-0.5-0.4l2.2-0.1l2.6,3.6C2753,152.9,2751.6,151.6,2750.1,150.6L2750.1,150.6z M2831.1,148.1h0.4
	c0,0.1,0.1,0.3,0.1,0.4L2831.1,148.1z M2836.2,151l-3.4-2.9l1.9-0.1l1.8,2.1C2836.4,150.4,2836.3,150.7,2836.2,151L2836.2,151z"/>
<path class="st1" d="M1440.7,143.5c-0.6-0.8-1.7-0.9-2.5-0.3c-0.1,0.1-0.2,0.2-0.3,0.3H1440.7z M1442.2,142c1.3,2.3,3.2,1.5,5,1.5
	C1445.9,141.3,1444.5,141,1442.2,142 M1428.6,144c0.3-1.6-0.2-2.2-1.8-2.5c-1.8-0.3-3.2,0.7-3.6,3L1428.6,144 M1403.4,152.2h8.2
	C1409.8,148.8,1406.1,148.7,1403.4,152.2 M1411.4,162.7c-0.9-1.3-2.7-1.8-4.2-1.1c-2.1,0.7-2.9,1.8-3,3.8l4.8,0.9L1411.4,162.7
	 M1410.7,171.7c-1.1-2.8-2.8-4.2-5.1-4.1c-2.1,0-3.9,1.6-4.7,4.1H1410.7z M1434.7,142.1c-3.2-0.6-4-0.3-4.2,1.7
	c1.3-0.1,2.7-0.2,4-0.2c0.7,0,1.4-0.3,1.9-0.9c1-1.2,2.5-1.7,4-1.3c0.3,0.1,0.6,0.1,1,0.1c-0.2-2.8-1.7-4.4-3.9-4.2
	c-1.1-0.1-2,0.7-2.1,1.8C1435.1,140.1,1434.9,141,1434.7,142.1 M1404.3,148.5c-1.5-2.8-3.6-3.2-5.2-0.7c0.4,0.3,0.8,0.7,1.2,1.1
	c0.4,0.6,1.1,1.3,0.4,2s-1.1-0.2-1.5-0.7c-2.4-2.6-6.3-1.6-7.4,1.9c1.6,0.8,3.2,0.1,4.7,0.1s3.4,0,4.7,0L1404.3,148.5 M1449.5,167.8
	l2.3,3.4h8.2c0.3-2-0.6-3.9-2.3-4.9C1454.9,164.9,1451.6,165.5,1449.5,167.8 M1418.8,171.7c0-2.5,1-5,2.8-6.8c-1.4-2-2.8-2.4-5.4-2
	c-2.8,0.5-4.8,2-5.5,4.7l2,4.1H1418.8z M1435.5,171.7c0.1-4.2-3-7.5-6.7-7.5c-4.3-0.2-7.8,3.2-8,7.5c0,0,0,0.1,0,0.1H1435.5z
	 M1451.2,163.8c-0.8-2.6-3.1-4.4-5.8-4.5c-3.1-0.3-5.5,1-6.7,3.5c-0.2,0.6-0.4,1.2-0.7,1.7c-0.2,0.3-0.6,0.5-1,0.5
	c-0.3-0.2-0.6-0.5-0.6-0.9c0-0.5,0.1-1.1,0.3-1.6c0.3-0.9,0.8-1.8-0.1-2.6c-0.7-0.7-1.8-1-2.8-0.8c-1.7,0.4-3.1,1.5-3.8,3
	c5,1.3,7.2,4.8,7.8,9.5c4.1,0.4,10.3,0.1,11.9-0.6c-0.7-0.7-1.5-1.4-2.4-2c-1.7-1-3.7-1.5-5.6-1.3c-0.6,0.1-1.4,0.4-1.8-0.7
	c0.4-0.4,0.9-0.7,1.3-1c2.4-0.8,4.6,0.1,6.6,0.8L1451.2,163.8 M1439.1,191.7l0.4,0.5c-2.9,0.3-5.9,0.8-8.8,0.9c-4,0.2-8,0.1-12,0.3
	c-7.2,0.2-14.5,0.1-21.7-0.4c-1.1-0.1-2.2,0-3.4,0v10.6c11.7-1.1,23.3-1.2,35-1.6s23.4-0.4,35.3-0.6v-8.9h-12
	c-1.1,0.2-2.3-0.2-3.1-1c2.5-1.3,5.1-0.9,7.6-0.9s5.1,0,7.7,0c0.3-2.5,0.6-5,0.9-7.7c-5.6,0-11.1-0.1-16.5,0
	c-9.9,0.3-19.8,0.7-29.8,1c-3.9,0.1-7.8,0.2-11.7,0.1c-1.7,0.1-3.4-0.2-4.9-1c10.5-0.8,21-1.4,31.5-2c10.6-0.7,21.2-0.7,31.7,0.1
	l1.6-7.3c-0.5,0-1-0.1-1.5-0.1c-5.9,0-11.8,0-17.6,0c-17.4,0.1-34.8,0.3-52.3,0.5c-0.6,0-1.3,0-1.7,0c0.1,1.7,0.2,3.2,0.2,4.7
	c0,3.8,0,7.5,0,11.5c1.7,0.1,3.5,0.3,5.3,0.4c10,0.6,20,0.3,30,0.3c3.4,0,6.7,0.5,10.1,0.7 M1391.4,149l1.4-1.1l-1.3-0.6
	c-2.8-0.8-4,0-4,2.8l3,0.4C1390.7,150,1391,149.5,1391.4,149 M1466.2,197.5c0,2.1-0.1,4.1-0.1,6.2l-1.4,0.3c-3.8,0-7.6,0.2-11.3,0.1
	c-10.1-0.1-20.2,0.3-30.3,0.7c-8.2,0.4-16.3,0.6-24.5,0.8c-1.5,0-3-0.1-4.4-0.4c-0.4-0.1-0.8-0.4-1.1-0.7c-0.1-0.1-0.2-0.4-0.3-0.4
	c-1.9,0.1-1.8-1.2-1.8-2.5c0.1-6.8,0.2-13.5,0.2-20.3c0-0.9,0-1.8,0-2.7l-12.7,0.3v-5c0-4.8-0.1-9.6-0.1-14.5c0-1.2,0.1-2.3,0.1-3.5
	h0.6c0.2,2,0.4,3.9,0.7,5.9l6,0.7c-1.8,1.4-3.9,1-6,1.3c0.1,1.6,0.2,3.1,0.3,4.8c3.2,0.3,6.4,0.2,9.4,1c-3,1.1-6,0.8-9.2,0.9v6.5
	l10.9-1c0.2-0.6,0.5-1.2,0.8-2c-0.2-0.4-0.5-0.7-0.7-1.1c-0.4-0.5-0.3-1.2,0.2-1.7c0.1,0,0.1-0.1,0.2-0.1c2.4-1.6,4.8-3.2,7.4-4.9
	c-0.2,1.9-0.4,2.1-3.6,5.3h3.5c0.4-2.4,1.8-4,3.8-5.4c-0.9-2,0.2-3.6,1.5-5.3h-3.7c1.2-1.2,1.2-1.2,7.1-1.7c2.5-0.2,5-0.5,7.4-0.7
	c-0.3-1.5-0.6-2.9-0.9-4.4c-2.8,0-5.6,0-8.4,0c-7.6,0.1-15.1,0.1-22.7,0.2c-0.4,0-0.8-0.1-1.2-0.1c0.6-1.2,1.9-0.8,2.8-1.1
	c0.8-0.2,1.7-0.3,2.6-0.4c0.8-0.1,1.6-0.1,2.8-0.2c-1.2-0.8-2.7-0.9-4-0.3c-0.4,0.1-1,0.4-1.3,0.3c-1.3-0.9-2.7-0.5-4.1-0.7
	c1-1.4,2.4-1.3,3.8-1c0.4,0.1,0.8,0.2,1.5,0.4c-0.3-2.5,0-4.5,2.4-5.5c2-1,4.4-0.4,5.8,1.4h3.5c0.8-1.6,2.5-2.6,4.3-2.3
	c1.7,0.1,3.2,1.3,3.6,3c1.6,0.2,3.2,0.6,4.8,1.1c1.5,0.7,2.6,2,3.1,3.6l2.9,0.3c0.5,1.9,0.7,3.7-0.4,5.5l1.1,1.4
	c-1.6,1-3.3,0.3-5,0.7l1,1.5c2.5-1.1,5.3-1.3,7.9-0.3c0.4-1.2,0.8-2.3,1.4-3.4c0.5-0.8,1.2-1.5,1.9-2.1c0.6-0.6,1.5-0.7,2.3-0.2
	c0.8,0.5,0.8,1.4,0.5,2.2c-0.4,1.7-1.3,3.3-2.6,4.6c-0.3-0.1-0.9-0.3-0.8-0.4c0.1-0.7,0.2-1.4,0.5-2c0.2-0.7,0.6-1.3,1-2.4
	c-2.1,2.1-2.4,3.7-1.5,5.8l1.4-0.7l3.1-0.9c0.5-2.2,2.2-4,4.4-4.7c2.4-0.9,4.5-0.1,6.2,1.9c1.6-1.1,3.4-2.1,5.4-1.9s3.8,0.6,5.8,1
	c-0.1-1.3-0.2-2.7-0.4-4.3c-2.3-0.1-4.6,0.7-7.3-0.1c2.4-1.5,4.9-1.3,7.2-1.9v-2.5c-4.5-0.3-8.9,0.9-13.4,0.2
	c4.3-1.7,8.7-1.9,13.2-2c0.2-0.8,0.3-1.5,0.4-2.3c-9.2,0-18.2,0.4-27.3,0.9c-0.3,1.2-0.6,2.3-1,3.5c-1.3-1.3-1.5-3.4-0.3-4.9
	c0.2-0.2,0.4-0.5,0.4-0.8c1.3-4,4.3-5.2,7.9-2.9c0.1,0.1,0.2,0.1,0.1,0l4.1-0.9c0.3-0.9,0.5-2.2,1.2-2.9c0.9-0.7,1.9-1.2,3-1.4
	c2.3-0.4,4.2,1.2,5.2,4.3c2.6,0,5,0.4,6,3.3l2.1,0.2c0.1,4.7,0.2,9.3,0.2,13.9c0,0.5-0.5,0.9-0.7,1.4l3.1,4.5
	c5.8,0.1,8.2,2.5,8.6,7.9h1.8c-0.4-0.7-0.7-1.3-1.2-2.4l6.6,3c0,0.4-0.1,1-0.1,1.5c-0.1,0.2-0.2,0.4-0.2,0.7c-0.2,1-0.3,2-0.5,3
	c-0.4,0.2-0.5,0.5-0.1,0.8l-1.1,6.6c-0.4,0.2-0.5,0.5-0.1,0.8c-0.1,0.8-0.2,1.7-0.3,2.5c-0.4,0.2-0.5,0.5-0.1,0.8
	c-0.1,1.4-0.2,2.9-0.3,4.3l-0.1,1.9c0,0.3,0,0.5,0,0.8c-0.5,0.4-0.5,1-0.1,1.5c0,0.1,0.1,0.1,0.1,0.1"/>
<path class="st1" d="M1326.5,151.1c0.1,0.9,0.2,1.7,0.3,2.9c1-1.6,1.9-2.8,2.7-4c0.1-0.2,0.1-0.3,0.2-0.5
	C1329.1,149.4,1328.1,149.9,1326.5,151.1 M1330.5,147.5c4.5,1.2,8.5-0.9,9.5-4.9c-2.3,1.4-5,2.1-7.7,1.8L1330.5,147.5 M1318.4,154.7
	c0.1,3.1,0.3,6.3,0.3,9.5c0.1,4.1,0.1,8.3,0.1,12.4c-0.1,1.4-0.4,2.7-0.7,4c-0.1,0.4-0.4,0.6-0.9,1.4c-0.2-0.6-0.4-1.2-0.4-1.8
	c-0.1-4.5-0.2-9-0.3-13.5c-0.1-3.4-0.2-6.9-0.3-10.3c0-0.5-0.1-0.9-0.2-1.4c-1,0.2-1.2,1-1.6,1.6c-0.6,1-1.4,2-2.2,2.9
	c-3.3,2.8-7.3,4.7-11.6,5.6c-1.2,0.1-2.4,0.1-3.6,0c-0.2,7.6,0.3,15,3.2,22.4c0.3-0.7,0.5-1,0.7-1.4l0.6-1.1
	c1.1,2.6,1.5,4.9,0.4,7.4c-1.4-0.2-1.9-1.1-2.5-2c-1.4-2.2-2.4-4.7-2.9-7.2c-2.2-9.7-2.7-19.4-0.3-29.1c0.9-3.5,2.5-6.7,4.7-9.6
	c0.7-0.8,1.4-1.4,2.1-2.1l0.4,0.3c-0.5,1.4-1,2.8-1.6,4.1c-1.7,3-3,6.3-3.8,9.8c-0.3,1.9-0.6,3.9-0.9,6.1c1.2,0,2.4-0.1,3.7-0.2
	c5.1-1,9.7-3.6,13.2-7.5c1.2-1.2,2.6-2,4.2-2.4c5.3-1.7,10-4.5,12.2-10.2c1-2.4,1.2-5,0.8-7.5c-0.2-1.3-0.5-2.7-0.7-4
	c-0.1-0.5,0-1.1,0.2-1.5c1.6-3.3,1.3-5.8-1-8.5c-1.5-1.6-3.5-2.9-5.6-3.6c-0.9-0.4-1.9-0.8-2.8-1.2c-0.3-0.2-0.5-0.4-0.8-0.6
	l2.3-0.7c1.7-3.5,1.4-7.6-0.7-10.8c-2.7-4.6-6.9-8-12-9.8c-3.4-1.3-7.2-1.1-10.5,0.4c-2.4,1.2-4.1,0.3-5.8-1.1
	c-1.3-1.1-2.8-1.9-4.5-2.3c-2.3-0.7-4.8-0.3-6.8,1c-1.1,0.7-1.2,0.6-2.2,0.1l-0.6,1.4c-0.3,0-0.5,0.1-0.7,0
	c-5-2.8-13.7-0.8-16.5,7.4c-0.5,1.9-0.8,3.8-1,5.7c-0.1,0.5-0.1,1,0,1.4c0.5,3.8-0.9,6.4-4,8.6c-2,1.5-3.8,3.3-5.3,5.3
	c-1,1.3-1.2,3.1-1.7,4.8c-0.1,0.7-0.1,1.4,0,2.1c-0.6-0.6-1-0.7-1.2-1.1c-0.6-1.6-0.5-3.3,0.3-4.8c1.2-2.9,3.1-5.5,5.4-7.6
	c0.7-0.6,1.4-1.3,2.2-1.8c1.2-0.9,1.9-2.3,1.8-3.7c-0.1-1.5-0.1-3,0-4.6c0.7-6.4,3.5-11.5,9.5-14.1c3.8-1.8,8.3-1.4,11.7,1.1
	c1.8-3.4,4.8-4.3,8.3-3.8c3.3,0.5,6.3,1.6,7.9,5.1c2.6-1.3,5.2-2.7,8.2-2.6c1.9-3.8,5-5.8,9-6.7c2.4-0.6,4.9-0.2,7,1
	c0.9,0.6,1.9,0.6,2.9,0.2c2.3-1,4.9-0.7,7,0.7c3.7,2.3,6.4,6,7.2,10.3c0.1,0.7,0.2,1.4,0.1,2.1c-0.1,0.4-0.4,0.6-0.8,0.7
	c-0.4-0.1-0.7-0.3-0.9-0.7c-0.2-0.7-0.3-1.3-0.4-2c-0.7-3-2.4-5.7-4.8-7.8c-1.4-1.3-3.2-2-5.2-2c-0.5,0-0.9,0-1.4,0.2
	c-1.7,0.9-3.2,0.6-4.8-0.1c-4.2-1.8-9-0.5-11.9,3c-0.2,0.2-0.3,0.4-0.5,0.8c0.7,0.2,1.2,0.4,1.8,0.5c6.4,1.4,11.1,5.2,14.7,10.5
	c2.7,4,3.6,8.4,1.3,13.2l1.8,0.9c2.9,1.2,5.1,3.5,6.4,6.3c1.4,2.9,0.9,6.3-1.1,8.8c2,3.5,1.7,7.3,0.9,11.2c0.8,0,1.3,0,1.9-0.1
	c4.8-0.9,10-6.2,9.6-11.7c-0.1-1.8-0.7-3.5-1.8-5c-1.1-1.5-1-2.1,0.4-3.3c0.4-0.3,0.8-0.6,1.1-0.9c5.2-4.4,6.1-12.5-0.4-17.4
	c-1.7-1.3-3.3-2.8-5.6-3.2c-0.1,0-0.2-0.3-0.3-0.5c3.1-0.6,6.6,1.2,9.8,4.6c0-1.3,1.1-2.5,2.4-2.6c4.7-1.1,9.6,1.2,11.7,5.6
	c0.9,1.8,0.9,3.8,0,5.6c-0.2,0.6-0.5,1.1-0.8,1.7c-0.6,1.1-0.6,2.5,0.1,3.5c0.9,1.9,1.7,3.8,2.4,5.7c0.6,1.6,0.7,3.4,0.4,5.1
	c-0.7,3.2-3.1,4.4-6.4,2.9c0.4-0.3,0.7-0.7,1.1-0.8c2.6-0.6,3.5-1.6,3.2-4.3c-0.3-1.6-0.7-3.2-1.3-4.8c-0.3-0.8-0.7-1.6-1.2-2.4
	c-1.2-2-1.2-4.5,0-6.4c1.7-2.8,0.8-6.5-2.1-8.2c-0.2-0.1-0.5-0.3-0.7-0.4c-2.1-1.1-4.5-1.2-6.7-0.4c-0.6,0.2-1.2,0.4-2,0.6
	c2.1,2.9,2.9,6.6,2.2,10.1c-0.7,3.5-2.8,6.5-5.8,8.5c0.2,0.3,0.4,0.6,0.6,0.9c2.1,2.9,2.6,6.6,1.4,10c-0.3,1.1-0.8,2.2-1.5,3.1
	c-1.7,2.1-2.9,4.5-3.7,7.1c-1,3.7-4.2,5.1-7.8,5.6c-0.9,0.1-1.7,0.1-2.6,0c-1.2,2.8-2.5,5.5-3.6,8.3c-0.3,0.8-0.5,1.7-0.4,2.6
	c0.4,4.7,0.8,9.3,1.3,14c0.1,1.2,0.3,2.5,0.5,3.8l4.7,0.6c0,0.1,0,0.3,0,0.4c-0.3,0.2-0.7,0.4-1.1,0.6c-1.7,0.3-3.3,0.6-5,0.7
	c-0.6,0-1.1-0.2-1.5-0.7c-0.5-0.8,0.3-1.2,0.7-1.4c-0.5-4.5-1.2-8.8-1.6-13.2s-0.4-8.7-0.6-13.1L1318.4,154.7"/>
<path class="st1" d="M1538.1,143c-2,2.8-3.1,6.1-4.3,9.2c-0.5,1.3-0.8,2.6-1.3,3.9c-0.3,0.8,0,1.7,0.8,2.1c0.2,0.2,0.5,0.3,0.7,0.4
	c5.3,2.1,10.7,2.7,16.2,0.8c6.4-2.4,10.6-8.7,10.2-15.5c-0.1-1.1,0-2.2,0.3-3.2c2.1,1.2,1.7,3.3,1.8,5.3c1-0.1,2-0.6,2.7-1.4
	c2-1.7,3.4-4,4.1-6.5c1.5-4.7-0.9-9.8-5.5-11.8c-0.4-0.2-0.8-0.2-1.1-0.5s-0.8-0.8-0.8-1.2c0.1-0.7,0.8-0.9,1.4-0.8
	c0.6,0.2,1.2,0.4,1.7,0.7c0.3,0.1,0.6,0.3,1,0.5c0.7-1.3,1-2.8,1-4.3c0.6-7-4.6-14.6-11.1-16.5c-2.5-0.7-5.1-0.5-7.6,0.4
	c-0.9,0.3-1.9,0.5-2.9,0.8c0-2.1,0.5-2.5,4.9-3.7c0.1-1.1,0.1-2.3,0-3.4c-0.5-4.1-4.4-6.7-8.1-5.2c-1.6,0.7-2.8-0.2-4.1-0.5
	c-0.3-0.1-0.5-0.6-0.7-0.9c-1-2.3-3.4-3.6-5.8-3.2c-0.4,0-0.8,0-1.2,0.1c-1.7,0.6-3.6,0.3-5.1-0.8c-2.2-1.3-4.9-1.8-7.4-1.3
	c-2.5,0.3-4.8,1.9-5.9,4.2c-0.7,1.3-1.3,2.7-1.8,4.2c-0.8,2.3-2.1,4.3-3.9,5.9c-1.6,1.4-3.1,2.9-4.6,4.4c-0.7,0.9-1.7,1.4-2.8,1.5
	c-0.1-1.2,0.4-2.5,1.3-3.3c1.5-1.6,3.1-3,4.8-4.5c1.5-1.2,2.5-2.9,2.9-4.8c-0.5-0.2-1-0.5-1.4-0.8c-5.4-4.8-12.9-1.5-15.2,4.8
	c-0.3,0.9-0.5,1.9-0.6,2.8c-0.2,0.9-0.3,1.9-0.4,2.8c-1.5-0.6-1.7-1.3-1.9-5.1c-1.4-0.3-2.8,0.3-3.6,1.5c-1.3,1.7-2,3.8-1.8,6
	c0,0.7,0.2,1.4,0.2,2.1c0,0.3-0.3,0.9-0.5,0.9c-0.4,0-0.9-0.1-1.2-0.4c-0.4-0.7-0.7-1.5-0.8-2.3c-0.3-2.8,0.6-5.5,2.4-7.7
	c1.4-2,3.9-2.8,6.1-2.1c2.4-4.6,5.8-7.7,11.1-7.9c3.2-0.1,6.2,0.7,8.4,3.7c1.6-4,4-7.2,8.4-8c4-0.9,8.2,0.1,11.4,2.7
	c2.1-1.2,4.5-1.4,6.8-0.6c2.3,0.8,4,2.6,4.7,4.9c3.5-2,6.9-1.8,10,0.9c2.7,2.2,3.7,5.8,2.5,9c6.2,0.2,10.7,3.3,14,8.4
	c3.4,4.9,4,11.1,1.6,16.5c3.5,3.5,4.9,7.8,3.4,12.7c-1.4,4.6-4.1,8.2-9.1,9.6c-0.2,0.6-0.4,1.2-0.6,1.9c-2.7,7.1-7.8,11.2-15.2,12.4
	c-5.1,0.8-9.9-0.4-14.8-2.5c-0.2,1-0.3,1.9-0.4,2.9c-0.2,6.3-0.3,12.6-0.4,18.8c-0.1,1.7,0.4,3.3,1.3,4.8l1.6-3.9l0.6,0.1
	c0.2,0.9,0.3,1.8,0.4,2.7c0.2,1.4,0.2,2.9,0.4,4.3c0.1,0.8,0,1.4-0.7,1.7c-0.6,0.3-1.4,0-1.7-0.6c0-0.1-0.1-0.2-0.1-0.3
	c-0.2-0.8-0.7-0.9-1.3-1.3c-2-1.3-2.6-3.4-2.9-5.7c-0.1-0.8-0.1-1.7-0.1-2.5c0-7.2-0.2-14.4,0.9-21.5c0.6-4.2,2-8.3,4-12.1
	c1-2,2.6-3.7,4.5-4.9L1538.1,143"/>
<path class="st1" d="M1506.5,174.6c-0.5-1-0.9-2-1.2-3c-0.7-3.7-0.3-7.4-0.2-11.1c0.1-1.4,0.2-2.8,0.2-4.3l-4.3-1.3
	c-0.1,2.4-0.1,4.6-0.2,6.9s-0.2,4.4-0.5,6.6s-0.6,4.5-0.9,6.8c0.5,0,1,0.1,1.4,0.3c0.3,0.2,0.6,0.5,0.7,0.9c0,0.3-0.3,0.7-0.6,0.9
	c-0.2,0.1-0.4,0.2-0.6,0.2c-1.8,0-3.6-0.4-5.4-1c2.2-0.6,2.2-2,2.5-3.4c1.1-6.3,1.5-12.7,1.3-19.1l-4.6-3.7
	c-1.5,0.9-3.4,1.1-5.1,0.7c-1.8-0.5-3.6-1.1-5.4-1.8c0,0.8,0,1.7,0,2.6s0,1.8,0,2.9c1.1-0.2,2-0.3,2.3,1c0.2,1.1-0.3,1.8-1.8,2.5
	c0.1,1.7,0.2,3.4,0.3,5.1l-0.4,0.2c-0.3-0.2-0.6-0.5-0.8-0.8c-1.5-3-1.8-6.2-2-9.4c-0.1-1.4-0.1-2.8,0-4.1c0.2-1.9-0.6-3.1-2.2-4.3
	c-0.1,5,0.8,9.8-0.9,14.5c-1.1-0.2-1-0.9-1-1.5c-0.2-3.7-0.3-7.4-0.4-11.2c0-1.1,0-2.2-1.6-2.8l2.3-1.8c-1.7-3.2-1.1-6.4,0.4-9.5
	c0.5-1,1-2,1.4-2.9c0.8-1.6,0.8-3.5,0-5.2c-0.8-1.6-1.6-3.2-2.3-4.8c-1.1-2.5-0.3-5.4,1.8-7.1c0.5-0.4,1-0.6,1.6-0.7
	c0.4,0,0.8,0.2,1,0.5c0.1,0.2,0,0.7-0.1,0.9c-0.2,0.3-0.5,0.6-0.8,0.9c-1.6,1.3-2,3.6-1,5.4c0.5,1.2,1.1,2.3,1.8,3.5
	c1.4,2.4,1.4,5.4,0.1,7.9c-0.6,1.3-1.2,2.6-1.8,3.9c-1.2,2.4-0.9,5.3,0.8,7.4c1.8,2.9,4.6,5.1,7.9,6.1c1.4,0.4,2.9,0.5,4.4,0.1
	c-0.4-1-0.8-1.8-1.2-2.7c-1.2-2.7-2.1-5.4-1.4-8.4c0.2-1.1,0.7-2.1,1-3.1c-6.6-7.4-4.1-15.2,5.7-17.4c-0.8-3.5-0.7-6.8,2.4-9.3
	c0.9,1.2-0.1,2.1-0.2,3s-0.4,2.2-0.4,3.3c0.1,1,0.2,2,0.4,3l2.2,1.1c-2.1,0.6-4.1,1.1-6,1.8c-5.6,2-7,7.6-3.2,12.2
	c0.6,0.8,1.3,1.6,1.9,2.3c-1,2.2-2.1,4.2-1.6,6.6c0.5,3.1,1.9,5.9,4,8.2c2.8,2.9,6.6,4.7,10.6,5c2.2,0.2,4.5-0.4,6.3-1.7l-2.8-4.9
	c-1-1.6-1.8-3.4-2.4-5.2c1.1-0.2,1.5,0.4,1.9,0.9c3.5,4,5.8,8.7,8,13.6s2.2,9.7,2.5,14.7c0.3,4.6-0.3,9.1-1.6,13.5
	c-0.6,1.9-1.3,3.8-2.2,5.6c1.4,0.3,3.2-0.6,4.7,0.7c-0.6,0.4-1.2,0.7-1.8,0.9c-1.4,0.4-2.9,0.6-4.4,0.9c-1.2,0.2-2.3-0.8-3.6,0
	c-0.5-0.3-0.9-0.7-1.1-1.2c-0.4-1.5,0-7.3,0.5-8.9c2.3,2.3,1.6,5.4,2.2,8.3c0.4-0.3,0.8-0.4,0.9-0.7c2.7-5.6,4-11.8,3.8-18
	c0-3.6-0.4-7.2-0.9-10.7c-0.4-2.4-1.7-4.7-2.6-6.9l-7.2,2.2c-0.3,5.5-0.7,11.2,0,17L1506.5,174.6"/>
<path class="st1" d="M1252.9,143.2c0.1,2.6,0.9,5.2,2.4,7.3c2.1,2.9,5.1,5,8.5,5.9c-0.1-1.5-1.1-2.9,0.2-4.5c0.5,0.8,1,1.6,1.4,2.4
	c1.7,3.4,4,6.1,7.6,7.3c2.7,0.9,5.3,1.2,7.6-0.9c0.4-0.2,0.8-0.4,1.2-0.6c-1.1-2.3-2.2-4.6-3.3-6.9l0.4-0.4c0.4,0.1,0.7,0.3,1,0.6
	c3,3.3,5.1,7.4,6,11.7c0.4,1.7,0.6,3.4,0.6,5.1c0.5,6.7,0.3,13.4-0.7,20c0,0.5-0.2,0.9-0.4,1.4c-0.2,0.3-0.8,0.7-1.1,0.6
	c-0.4-0.2-0.7-0.6-0.8-1c0-0.5,0-1.1,0.1-1.6c1-7.7,1.1-15.6,0.2-23.3c-0.1-0.8-0.3-1.6-0.5-2.4c-0.2-0.7-0.5-1.4-0.8-2.3
	c-2.6,3.5-6.1,3.6-9.7,2.5c-3.7-1-6.8-3.5-8.5-6.9c-1,1.2-2.1,1-3.2,0.5c-4.1-1.7-7.4-4.9-9.2-8.9c-0.5-1.3-0.7-2.6-0.7-4
	c-0.1-0.8,0.5-1.6,1.4-1.7C1252.7,143.3,1252.8,143.3,1252.9,143.2L1252.9,143.2z"/>
<path class="st1" d="M1360.6,148.7l2-1.2c-0.9-3.6-0.1-7.2-0.2-10.8l-1.8-0.8c0.6-0.6,1-1,1.5-1.3c1.1-0.8,2.2-1.6,3.3-2.4
	c0.6-0.4,1.3-0.7,1.8-0.1s0.2,1.4-0.3,2c-0.3,0.3-0.7,0.6-1,1c0.5,0.9,1.1,0.8,1.9,0.7c1.1-0.2,2.1-0.2,3.2-0.2
	c3.7,0.2,5.8-1.9,5.5-5.6c-0.2-1.3-0.6-2.5-1.1-3.7c-0.4-0.9-0.9-1.9-1.4-2.7c-0.7-1.2-0.7-2.7,0-3.9c0.8-1.4,1-3,0.6-4.6
	c-1-3.1-5.1-4.2-7.2-3c-0.3,0.2-0.6,0.3-1,0.5c-0.4-1,0-2.1,1-2.5c0.1,0,0.1-0.1,0.2-0.1c1.5-0.7,3.2-0.8,4.7-0.2
	c3.7,1.1,5.7,5,4.6,8.7c-0.1,0.3-0.2,0.6-0.4,0.9c-0.7,1.4-0.6,3,0.2,4.2c0.8,1.4,1.4,2.8,1.9,4.3c1.3,4.1-1,8.5-5.2,9.8
	c-0.9,0.3-1.8,0.4-2.7,0.3c-0.7,0-1.3,0-2,0.1c-1.2,0.1-2.3,0.2-3.7,0.3c-0.2,2.7-0.5,5.7-0.8,8.8c0.6,0,1.4,0,2.2,0
	c0.5,0,0.9,0.1,1.3,0.3c0.3,0.2,0.5,0.6,0.5,1c0,0.2-0.4,0.6-0.6,0.7C1366.2,149.9,1362.2,149.6,1360.6,148.7"/>
<path class="st1" d="M1518,135.5c-4.9-1.6-6.6-3-6.2-5.8c0.8,0.5,1.5,0.9,2.2,1.4c1.9,1.5,4.3,2.1,6.7,1.7c0.3-0.1,0.5-0.2,0.8-0.3
	c-1.2-2.2-3.1-4-2.9-6.8c0.6,0.7,1.1,1.4,1.7,2.1c2.5,3.3,5.7,5.9,9.5,7.5c1.8,0.9,4,1.1,5.9,0.4c0.7-0.2,1.5-0.3,2.2-0.4
	c-1,1.9-1.7,3.5-2.7,5c-1.2,1.8-2.5,3.4-3.7,5.1c-0.3,0.5-0.7,0.9-1.1,1.2c-0.6,0.6-1.6,0.6-2.2,0c-1.4-1.1-1.8-4.1-0.7-5.8
	c1.3,0.5,1.2,2,2.1,3.1l3.7-5.1c-3.6-0.4-6.9-2-9.6-4.5l-3.7,1.2c2.5,4.4,4,9.2,4.4,14.2c0.1,1,0.1,2,0,3c-1.3-1.4-2.2-2.4-2.4-3.7
	c-0.7-4.1-1.9-8.2-3.4-12.1C1518.3,136.5,1518.2,136,1518,135.5"/>
<path class="st1" d="M1291.5,149.2c1-1.5,1.9-2.8,2.7-4c2.5-4,5.3-7.6,8.6-11c0.4-0.4,0.8-1.2,1.8-0.9c-0.7,1.1-1.4,2.2-2.2,3.2
	c-2.9,3.5-5.4,7.2-7.6,11.2c-0.5,1-1.1,1.9-1.9,2.7c-1.4,1.4-2.7,1.4-3.9-0.3c-0.6-0.9-1.1-1.9-1.5-2.9c-0.6-1.6-1.1-3.2-1.7-5
	c-2.1,0.7-4.3,0.5-6.3-0.6c1.1-0.5,2.2-1,3.4-1.3c2.9-0.7,5.5-2.3,7.5-4.6c1.2-1.2,2.6-2.1,4.2-2.8c0.1,2.2-1,3.7-6.5,8.1
	C1289.2,143.6,1289.8,146.3,1291.5,149.2"/>
<path class="st1" d="M1411.8,134c-0.3-1.1-0.9-1.6-1.8-1.5c-0.6,0-1.1,0.6-1.1,1.2c0,0.1,0,0.2,0,0.3H1411.8z M1420.7,134
	c0.4-0.8,0.7-1.6-0.1-2.1c-0.5-0.3-1.1-0.3-1.7-0.2c-0.4,0.1-0.7,0.6-0.9,1c-0.4,0.7-0.8,0.8-1.5,0.4c-0.3-0.2-0.7-0.4-1-0.6
	c-0.7,0.4-1.3,0.6-1.2,1.5H1420.7z M1413.2,132.7c1.1-1.3,2.2-2,3.8-1.1c1.2-1.3,2.6-2,4.2-1.1c0.5,0.2,1,0.6,1.2,1
	c0.3,1.2,0.6,2.5,0.8,3.7h-15c-0.1,0.2-0.2,0.4-0.3,0.6c0,0.2,0,0.4,0,0.7h14.8v1.6c-0.1,0.1-0.3,0.1-0.4,0.2c-4.4,0-8.8,0-13.2,0
	c-1-0.2-2,0.5-2.2,1.4c-0.2-1.9-0.4-3.3-0.5-4.7c0-0.4,0.2-0.7,0.4-1c0.2-0.4,0.5-0.6,0.7-1C1408.9,130.3,1411.1,130.1,1413.2,132.7
	"/>
<path class="st1" d="M1461.1,132.4c-1,0.9-2.5,1.1-3.7,0.3c-2-1.1-3.6-2.5-3.6-5.1c0-0.8-0.4-1.4-1-1.9c-2.6-2.4-3-4.7-1.4-7.9
	c1.9-3.8,4.9-6.1,9.3-5.3c0.6,0.1,1.2,0.4,1.8,0.9c0.2,0.3,0.2,0.7,0.1,1.1c-0.2,0.3-0.6,0.5-1,0.4c-1.6-0.8-3.5-0.6-5,0.5
	c-1.6,1-2.9,2.5-3.5,4.4c-0.7,1.3-0.4,3,0.7,4c1.2,1.1,2,2.7,2.1,4.3c0.2,1.2,1.1,2.3,2.2,2.8
	C1458.9,131.3,1459.9,131.7,1461.1,132.4"/>
<path class="st1" d="M1348.8,142.4c-0.6-0.1-1.2-0.3-1.7-0.5c-0.3-0.2-0.4-0.5-0.4-0.8c0.1-0.3,0.3-0.6,0.6-0.7
	c0.4-0.1,0.8-0.1,1.2,0c3.5,0,6.4-2.8,6.4-6.3c0-0.1,0-0.1,0-0.2c0-0.6,0-1.2,0-1.9c0-0.1,0.1-0.2,0.2-0.4c0.9-0.3,1.3,0.4,1.5,1.1
	c0.5,1.8,0.2,3.8-0.8,5.4c-1,1.9-2.8,3.4-4.9,4c0,3.1-0.1,6.2-0.1,9.2s0.3,6.1-0.3,9.6c-0.8-1-1.3-2.3-1.4-3.6
	c-0.2-4.2-0.2-8.4-0.3-12.6C1348.8,144,1348.8,143.3,1348.8,142.4"/>
<path class="st1" d="M1466.4,133c-3.5-2.8-4-4.2-2.8-6.8s3-3.6,5.4-3.1c-1.5,0.7-2.7,2-3.2,3.6c-0.6,1.8-0.6,2.2,0.8,3.4
	c0.2,0.2,0.4,0.3,0.7,0.5c1.7,1.4,1.8,1.7,1.2,3.9c-0.4,1.3-0.6,2.6-0.6,4c0.1,2.5,1.6,4.6,3.8,5.7c0.3,0.1,0.6,0.3,1,0.6
	c-0.7,0.8-1.8,1.1-2.8,0.6c-1.2-0.4-2.2-1.2-2.8-2.3c-1.6-2.4-2-5.3-1.2-8.1C1466,134.4,1466.2,133.7,1466.4,133"/>
<path class="st1" d="M1469.3,121.7c-0.5,0.1-1,0.1-1.4,0.1c-2.1-0.8-4.9-4.7-3.6-7.9c1.8-4.6,4.9-7.9,9.6-9.3c1.3-0.2,2.7-0.2,4,0
	c0.6,0,1.1,0.5,1.1,1.1c0,0,0,0.1,0,0.1c-0.1,0.8-0.7,1-1.4,0.9c-5.1-0.7-7.8,2.5-10.3,6.2c-1.1,1.5-1.1,3.5-0.1,5
	C1467.8,119,1468.5,120.2,1469.3,121.7"/>
<path class="st1" d="M1346.2,163c2.1-0.1,4.4-1.1,7.1,0.2c-0.8,0.5-1.3,1-1.7,1c-2.7,0-5.3,1-8.1,0.7c0.7-4.9,1-9.9,0.9-14.8
	c-0.1-0.6,0-1.2,0.1-1.8c0.2-0.5,0.6-0.8,1.1-0.9c0.2-0.1,0.8,0.5,0.9,0.8c0.2,0.5,0.2,1.1,0.2,1.6
	C1346.5,154.1,1346.3,158.4,1346.2,163"/>
<path class="st1" d="M1379.4,114.5c1.5-1.6,4-1.9,5.9-0.7c2.3,1.4,4.2,5.4,3.7,8c-0.3,1-0.8,1.9-1.4,2.6c-0.2,0.3-0.8,0.2-1.3,0.3
	c-0.1-0.4-0.3-1-0.2-1.3c0.5-1.3,0.7-2.6,0.5-4c-0.1-2.5-2.1-4.6-4.6-4.9C1381.2,114.5,1380.5,114.6,1379.4,114.5"/>
<path class="st1" d="M1252.9,143.3c-0.1-0.2-0.2-0.4-0.4-0.5c-3.7-2.3-5.6-5.9-5-9.8c0-1.5,1-2.9,2.4-3.5c0.1,0.9,0.1,1.7,0,2.6
	c-0.8,3.2,0.5,5.8,2.6,8c0.2,0.2,0.4,0.4,0.6,0.6C1254.4,141.9,1254.4,142,1252.9,143.3L1252.9,143.3"/>
<path class="st1" d="M1275.2,143.1c3.7,1.7,7,4.3,9.5,7.6c0.5,0.4,0.5,1.2,0.1,1.7c0,0,0,0,0,0c-0.3,0.4-1,0.5-1.4,0.1
	c-0.1-0.1-0.1-0.1-0.2-0.2c-2.8-2.9-5.6-5.9-8.4-8.9L1275.2,143.1"/>
<path class="st1" d="M1313.1,182.2c-0.3-0.7-0.7-1.2-0.7-1.7c0.3-3.4,0-7,1.1-10.7c0.8,1.4,1.3,3,1.3,4.6c0,1.6,0.1,3.3,0.1,4.9
	C1315,180.5,1314.3,181.7,1313.1,182.2"/>
<path class="st1" d="M1461.9,145.6c-0.3-0.5-0.6-1.1-0.8-1.7c-0.3-2.3-0.5-4.6-0.6-6.9c0-0.4,0.6-1.1,1.1-1.3
	c0.3-0.1,1.1,0.4,1.2,0.8C1463.2,139.4,1463.6,142.3,1461.9,145.6"/>
<path class="st1" d="M1279.6,184.8c0-1-0.1-2.1-0.1-3.1c-0.1-0.3-0.1-0.7,0-1c0.2-0.4,0.4-0.8,0.7-1.1c0.4,0.2,0.7,0.5,1,0.8
	c0.2,0.4,0.3,0.8,0.2,1.2c0.1,2.3,0.1,4.5,0.2,6.8c0,0.3-0.1,0.7-0.2,1c-0.2,0.3-0.7,0.7-0.9,0.6c-0.4-0.1-0.7-0.5-0.9-0.9
	c-0.1-0.6-0.1-1.2,0-1.8L1279.6,184.8L1279.6,184.8"/>
<path class="st1" d="M1538.4,184.4c0.5,2.1,0.6,4.4,0.4,6.6c0,0.7-0.5,1.2-1.2,1.1c-0.5-0.1-0.9-0.5-1.1-0.9
	c-0.5-2.2-0.1-4.4,0.9-6.3C1537.6,184.5,1538,184.5,1538.4,184.4"/>
<path class="st1" d="M1380,139.8c-0.2-0.7-0.4-1.4-0.5-2.1c-0.1-1.4-0.2-2.9-0.2-4.3c0-0.8,0.3-1.4,1.2-1.4s1.2,0.6,1.2,1.4
	c0.2,2.1-0.2,4.2-1.1,6.2C1380.6,139.6,1380.3,139.7,1380,139.8"/>
<path class="st1" d="M1413.4,139.4c2.5,0,5.1,0,7.6,0c0.4,0,0.8,0.4,1.4,0.8C1420.7,141,1415.5,140.7,1413.4,139.4"/>
<path class="st1" d="M1275.4,181.9c1.9,2,2.5,5.4,1.3,7.5c-0.4-0.5-0.8-0.8-0.9-1.2C1275.4,186.1,1274.6,184.2,1275.4,181.9"/>
<path class="st1" d="M1506.5,174.6l1-0.8c0.8,0.2,0.5-0.4,0.6-0.7c0.2-1,0.2-2.2,1.2-3c1.2,0.4,1,1.6,1.1,2.4c0,0.9-0.1,1.7-0.4,2.6
	c-0.2,0.3-0.5,0.4-0.8,0.4c-0.5-0.2-0.9-0.8-1.4-0.8S1506.9,175.5,1506.5,174.6"/>
<path class="st1" d="M1385,125.5c1.1-0.4,1.7,0,1.9,0.8c0.4,1.2,0,2.5-0.8,3.4c-0.8,1-2.2,1.3-3.3,0.7
	C1384.7,129.2,1385.7,127.7,1385,125.5"/>
<path class="st1" d="M1305.3,186.6c0.6,1.6,0.7,3.3,0.2,5c-0.1,0.4-0.5,0.8-0.9,0.9c-0.4,0-0.9-0.2-1.1-0.6
	C1302.9,190.7,1304,187.5,1305.3,186.6"/>
<path class="st1" d="M1342.3,162.4c0,0.6-0.2,1.2-0.3,1.8c-0.2,0.4-0.6,0.7-1,0.8c-0.2,0-0.7-0.5-0.8-0.8c-0.2-1.1-0.2-2.3-0.2-3.5
	c0-0.4,0.6-0.8,0.9-1.2c0.4,0.4,0.8,0.6,1,1.1C1342.1,161.2,1342.2,161.8,1342.3,162.4"/>
<path class="st1" d="M1309.4,187.6c0.9,1.2,1.1,3.4,0.3,4.4c-0.2,0.3-0.6,0.5-1,0.5c-0.4-0.1-0.8-0.5-1-0.9
	C1307.3,190,1308,188.4,1309.4,187.6"/>
<path class="st1" d="M1541.5,188.7c1,1.3,1.2,3.2,0.5,4.2c-0.3,0.4-0.7,0.6-1.1,0.6c-0.4-0.2-0.8-0.5-0.9-0.9
	C1539.5,191.4,1540.2,189.7,1541.5,188.7"/>
<path class="st1" d="M1310,175c1,1.2,1.6,2.7,1.4,4.3c-0.1,0.6-0.3,1.2-1.1,1.2s-1-0.6-1.1-1.2C1309.1,177.8,1309.4,176.4,1310,175"
	/>
<path class="st1" d="M1388.5,197.6c1,0.8,1.5,2.2,1.3,3.5c-0.2,0.5-0.5,0.8-1,1c-0.5-0.1-0.9-0.4-1.2-0.9
	C1387.2,200,1387.7,198.9,1388.5,197.6"/>
<path class="st1" d="M1356.1,172.4c-0.1,0.6-0.3,1.3-0.5,1.9c-0.1,0.4-0.6,0.6-0.9,0.4c-0.2-0.1-0.4-0.3-0.5-0.5
	c-0.3-0.8-0.3-1.7-0.3-2.6c0-0.4,0.6-0.8,1.1-1c0.2-0.1,0.7,0.5,0.9,0.9C1356,171.7,1356.1,172.1,1356.1,172.4"/>
<path class="st1" d="M1473.8,158.4c-1.3-0.8-1.2-2.1-0.9-3.3c0.2-0.4,0.6-0.7,1-0.8c0.4,0.1,0.8,0.3,1,0.7
	C1475.5,156.3,1475.1,157.5,1473.8,158.4"/>
<path class="st1" d="M1466.4,195l0.1-1.9c0.2,0.4,0.4,0.6,0.8,0.1s1.1-0.6,1.3-0.4c0.3,0.5,0.5,1,0.6,1.6c0,0.3,0,0.5-0.2,0.8
	c-0.3,0.4-0.6,0.8-1,1.1c-0.3-0.3-0.6-0.6-0.8-1C1467,194.9,1466.9,194.3,1466.4,195"/>
<path class="st1" d="M1321.2,178.4c0.8,0.2,1.4,1.1,1.2,1.9c-0.1,0.5-0.7,0.9-1,1.3c-0.4-0.4-1-0.7-1.2-1.1
	C1320,179.6,1320.4,178.7,1321.2,178.4"/>
<path class="st1" d="M1359.4,173.4c-0.1,0.6,0,1.5-1,1.7c-0.7,0.2-1.1-0.6-1.1-1.8c0-0.7,0.1-1.4,0.9-1.6
	C1358.8,171.6,1359.3,172.3,1359.4,173.4"/>
<path class="st1" d="M1474.8,196.3c-0.8-0.6-1.1-1.7-0.7-2.7c0.2-0.3,0.5-0.6,0.9-0.6c0.4,0.1,0.6,0.4,0.8,0.7
	C1476,194.7,1475.6,195.7,1474.8,196.3"/>
<path class="st1" d="M1471.5,157.6c-0.2,0.2-0.6,0.9-1.1,1.1s-1.3-0.7-1.2-1.5c0-0.6,0.5-1.2,1.1-1.2
	C1471,155.9,1471.6,156.5,1471.5,157.6"/>
<path class="st1" d="M1471.2,193.2c0.3,0.4,0.5,0.8,0.7,1.2c0.2,0.8-0.5,1.5-1,1.4c-0.4-0.2-0.8-0.6-0.9-1.1
	C1469.8,193.9,1470.3,193.3,1471.2,193.2"/>
<path class="st1" d="M1273.2,188.5c-0.8,0.4-1.3,0.9-1.6,0.8c-0.5-0.2-0.8-0.6-0.9-1.1c0-0.4,0.7-1,0.9-1
	C1272.1,187.3,1272.5,187.8,1273.2,188.5"/>
<path class="st1" d="M1379.1,156h-0.6c0-0.6,0.1-1.1,0.1-1.7h0.5V156z"/>
<path class="st1" d="M1466.3,197.4c-0.5-0.4-0.5-1-0.1-1.5c0-0.1,0.1-0.1,0.1-0.1C1466.3,196.3,1466.3,196.9,1466.3,197.4"/>
<path class="st1" d="M1538.1,143l-0.4-0.2l1-0.8l0.2,0.2L1538.1,143"/>
<path class="st1" d="M1464.8,203.9l1.4-0.3L1464.8,203.9"/>
<path class="st1" d="M1466.7,188.7c-0.4-0.3-0.4-0.6,0.1-0.8L1466.7,188.7z"/>
<path class="st1" d="M1467.1,185.4c-0.4-0.3-0.3-0.6,0.1-0.8L1467.1,185.4"/>
<path class="st1" d="M1468.3,177.9c-0.4-0.3-0.3-0.6,0.1-0.8L1468.3,177.9"/>
<path class="st1" d="M1468.9,174.1c0.1-0.2,0.2-0.4,0.2-0.7C1469.1,173.6,1469,173.8,1468.9,174.1"/>
<path class="st1" d="M1441.6,164.9c-0.4-0.6-0.8-0.9-0.8-1.3c-0.1-0.4,0.2-0.8,0.6-0.9c0.1,0,0.3,0,0.4,0c0.4,0.2,0.6,0.6,0.7,1
	C1442.5,164,1442,164.3,1441.6,164.9"/>
<path class="st1" d="M1430.8,169.6c-0.8,0.5-1.1,0.9-1.6,1s-1.2-0.2-1-0.9c0.2-0.5,0.5-0.8,1-1
	C1429.6,168.6,1430.1,169.1,1430.8,169.6"/>
<path class="st1" d="M1414.4,167.4c-0.6,0.3-0.9,0.6-1.3,0.6s-0.7-0.7-0.6-0.8c0.2-0.4,0.6-0.6,1-0.8
	C1413.8,166.4,1414.1,166.9,1414.4,167.4"/>
<path class="st1" d="M1455.8,169.4c-0.4-0.5-0.9-0.9-0.9-1.2c0.1-0.4,0.4-0.8,0.8-0.9c0.4-0.1,0.9,0.1,1,0.6c0,0.1,0,0.3,0,0.4
	C1456.7,168.6,1456.2,168.9,1455.8,169.4"/>
<path class="st1" d="M1395.7,151.2c-0.3,0.2-0.6,0.3-0.9,0.3c-0.3,0-0.5-0.3-0.8-0.4c0.2-0.3,0.3-0.7,0.6-0.8s0.5,0.2,0.8,0.4
	L1395.7,151.2"/>
<path class="st1" d="M1437.9,140.2c-0.4,0.2-0.7,0.5-0.9,0.5s-0.5-0.4-0.5-0.5c0.1-0.3,0.3-0.6,0.6-0.7S1437.5,139.9,1437.9,140.2"
	/>
<path class="st1" d="M1425.8,143.5c-0.2,0.1-0.5,0.2-0.7,0.2c-0.2-0.1-0.4-0.2-0.5-0.4c0-0.1,0.2-0.4,0.3-0.4c0.2,0,0.4,0.1,0.6,0.2
	L1425.8,143.5"/>
<path class="st1" d="M1391.2,147.5l0.2,1.5c-0.2-0.1-0.3-0.1-0.5-0.1c-0.6,0-1.1-0.1-1-0.8S1390.6,147.2,1391.2,147.5"/>
</svg>
