<svg xmlns="http://www.w3.org/2000/svg" viewBox="0 0 100 100"><defs><style>.cls-1{fill:#ff4d49;}</style></defs><g id="Vrstva_1" data-name="Vrstva 1"><path class="cls-1" d="M27.36,41.26A14.57,14.57,0,0,1,33,28l.4-.31a3.69,3.69,0,0,1,4.73.31l4.34,4.34a3.64,3.64,0,0,1,0,5.13l-2.07,2.69a5.57,5.57,0,0,0-.71,5.56c2,4.74,6.7,13.4,14.55,15.16a5.65,5.65,0,0,0,4.66-1.07l3.34-2.57a3.64,3.64,0,0,1,5.13,0l4.34,4.34A3.7,3.7,0,0,1,72,66.36l-.28.35a16.42,16.42,0,0,1-17.13,5.75c-4.64-1.26-10.21-4.1-16.1-10C30.68,54.66,28.05,47,27.36,41.26"/></g></svg>