<svg xmlns="http://www.w3.org/2000/svg" viewBox="0 0 100 100"><defs><style>.cls-1{fill:#ff4d49;}</style></defs><g id="Vrstva_1" data-name="Vrstva 1"><polygon class="cls-1" points="50 17.5 51.59 20.12 54.57 20.82 52.57 23.14 52.82 26.19 50 25 47.18 26.19 47.43 23.14 45.43 20.82 48.41 20.12 50 17.5"/><polygon class="cls-1" points="50 73.81 51.59 76.43 54.57 77.13 52.57 79.45 52.82 82.5 50 81.32 47.18 82.5 47.43 79.45 45.43 77.13 48.41 76.43 50 73.81"/><polygon class="cls-1" points="78.14 45.62 79.73 48.23 82.71 48.94 80.71 51.26 80.97 54.31 78.14 53.12 75.32 54.31 75.57 51.26 73.58 48.94 76.55 48.23 78.14 45.62"/><polygon class="cls-1" points="21.86 45.62 23.45 48.23 26.43 48.94 24.43 51.26 24.68 54.31 21.86 53.12 19.04 54.31 19.29 51.26 17.29 48.94 20.27 48.23 21.86 45.62"/><polygon class="cls-1" points="74.31 31.61 75.9 34.22 78.88 34.93 76.88 37.24 77.13 40.3 74.31 39.11 71.49 40.3 71.74 37.24 69.74 34.93 72.72 34.22 74.31 31.61"/><polygon class="cls-1" points="25.69 31.61 27.28 34.22 30.26 34.93 28.26 37.24 28.51 40.3 25.69 39.11 22.87 40.3 23.12 37.24 21.12 34.93 24.1 34.22 25.69 31.61"/><polygon class="cls-1" points="74.31 59.75 75.9 62.37 78.88 63.07 76.88 65.39 77.13 68.44 74.31 67.25 71.49 68.44 71.74 65.39 69.74 63.07 72.72 62.37 74.31 59.75"/><polygon class="cls-1" points="25.69 59.75 27.28 62.37 30.26 63.07 28.26 65.39 28.51 68.44 25.69 67.25 22.87 68.44 23.12 65.39 21.12 63.07 24.1 62.37 25.69 59.75"/><polygon class="cls-1" points="64.13 21.31 65.72 23.93 68.7 24.63 66.7 26.95 66.95 30 64.13 28.81 61.31 30 61.56 26.95 59.56 24.63 62.54 23.93 64.13 21.31"/><polygon class="cls-1" points="35.87 21.31 37.46 23.93 40.44 24.63 38.44 26.95 38.69 30 35.87 28.81 33.05 30 33.3 26.95 31.3 24.63 34.28 23.93 35.87 21.31"/><polygon class="cls-1" points="64.13 70.05 65.72 72.67 68.7 73.37 66.7 75.69 66.95 78.74 64.13 77.55 61.31 78.74 61.56 75.69 59.56 73.37 62.54 72.67 64.13 70.05"/><polygon class="cls-1" points="35.87 70.05 37.46 72.67 40.44 73.37 38.44 75.69 38.69 78.74 35.87 77.55 33.05 78.74 33.3 75.69 31.3 73.37 34.28 72.67 35.87 70.05"/><path class="cls-1" d="M57.44,62.31a5.71,5.71,0,0,0,4.38-1.78,6.56,6.56,0,0,0,1.67-4.69V40a.38.38,0,0,0-.39-.38H60.16a.38.38,0,0,0-.38.38v16.2a3.27,3.27,0,0,1-.64,2.08,2.21,2.21,0,0,1-3.4,0,3.27,3.27,0,0,1-.64-2.08V40a.33.33,0,0,0-.11-.27.35.35,0,0,0-.27-.11H51.77a.36.36,0,0,0-.27.11.37.37,0,0,0-.11.27V55.84A6.6,6.6,0,0,0,53,60.53a5.69,5.69,0,0,0,4.4,1.78M48.21,42.46V40a.38.38,0,0,0-.38-.38H37.43a.33.33,0,0,0-.27.11A.34.34,0,0,0,37,40V61.67a.34.34,0,0,0,.12.27.33.33,0,0,0,.27.11h10.4a.38.38,0,0,0,.38-.38V59.24a.38.38,0,0,0-.38-.39H40.92a.14.14,0,0,1-.16-.16V52.61a.14.14,0,0,1,.16-.16H45a.41.41,0,0,0,.28-.11.4.4,0,0,0,.11-.27V49.6a.39.39,0,0,0-.11-.27.37.37,0,0,0-.28-.11H40.92a.14.14,0,0,1-.16-.16V43a.14.14,0,0,1,.16-.16h6.91a.34.34,0,0,0,.27-.12.33.33,0,0,0,.11-.27"/></g></svg>