<svg xmlns="http://www.w3.org/2000/svg" viewBox="0 0 100 100"><g id="Vrstva_1" data-name="Vrstva 1"><path class="cls-1" d="M50.9,23H48.79l-1.93.23a26.58,26.58,0,0,0-16.8,8.61A25.88,25.88,0,0,0,23.32,46,26.34,26.34,0,0,0,29.71,67.8a25.88,25.88,0,0,0,16.15,8.87,29.17,29.17,0,0,0,4.52.33,26.11,26.11,0,0,0,16.73-6.17,26.38,26.38,0,0,0,9.53-16.76c.13-.77.16-1.57.25-2.35,0-.23.07-.45.11-.67l0-2.32c-.11-.91-.2-1.81-.34-2.71A27,27,0,0,0,54,23.36c-.79-.13-1.6-.16-2.4-.25-.24,0-.48-.08-.72-.11m-.42,5c.17,0,.38.06.61.08l1,.09c.43,0,.85.07,1.18.12A22,22,0,0,1,71.67,46.79c.08.53.15,1.08.22,1.67,0,.19,0,.39.07.59v1.57c0,.16-.06.35-.08.57s-.06.64-.09.94-.07.82-.12,1.13a21.24,21.24,0,0,1-7.75,13.67,22.84,22.84,0,0,1-6.5,3.79A20.67,20.67,0,0,1,50.36,72a24.09,24.09,0,0,1-3.75-.27,21.94,21.94,0,0,1-18.31-25,21,21,0,0,1,5.46-11.42,21.51,21.51,0,0,1,13.72-7l1.29-.16.34,0Z"/><path class="cls-1" d="M46.63,50.49v.69c0,4,0,7.91,0,11.87,0,.47.11.65.62.63,1.44,0,2.88,0,4.32,0,.53,0,.63-.17.63-.66,0-4,0-8-.07-12,0-.43.09-.59.54-.58.86,0,1.73,0,2.59,0,.38,0,.55-.07.58-.52.08-1.16.23-2.33.37-3.49.07-.61,0-.68-.59-.68h-3c-.34,0-.48-.1-.47-.45.05-.81,0-1.62.1-2.42a1,1,0,0,1,1-1c.68-.06,1.37-.08,2.05-.11h.95c0-1.5,0-2.91,0-4.31a.5.5,0,0,0-.36-.3c-1.65,0-3.31,0-4.95.14a4.56,4.56,0,0,0-4.23,4.53c0,1.15-.07,2.31-.08,3.47,0,.37-.12.5-.48.49-.58,0-1.17,0-1.74,0-.35,0-.52.11-.51.49,0,1.25,0,2.5,0,3.74,0,.34.13.47.47.46.72,0,1.44,0,2.26,0"/></g></svg>