<svg xmlns="http://www.w3.org/2000/svg" viewBox="0 0 100 100"><g id="Vrstva_1" data-name="Vrstva 1"><path class="cls-1" d="M50,24c-7.06,0-7.94,0-10.71.15A19.19,19.19,0,0,0,33,25.39a12.67,12.67,0,0,0-4.6,3,12.86,12.86,0,0,0-3,4.6,19.26,19.26,0,0,0-1.21,6.31C24.06,42.06,24,43,24,50s0,7.94.16,10.71A19.14,19.14,0,0,0,25.39,67a12.81,12.81,0,0,0,3,4.61,12.67,12.67,0,0,0,4.6,3,19.19,19.19,0,0,0,6.3,1.21C42.06,76,42.94,76,50,76s7.94,0,10.71-.15A19.19,19.19,0,0,0,67,74.61a13.25,13.25,0,0,0,7.6-7.6,19.14,19.14,0,0,0,1.21-6.3c.12-2.77.16-3.66.16-10.71s0-7.94-.16-10.71A19.26,19.26,0,0,0,74.61,33,13.27,13.27,0,0,0,67,25.39a19.19,19.19,0,0,0-6.3-1.21C57.94,24.06,57.06,24,50,24m0,4.68c6.94,0,7.76,0,10.49.15a14.44,14.44,0,0,1,4.83.89,8.26,8.26,0,0,1,3,1.94,8.18,8.18,0,0,1,1.94,3,14.44,14.44,0,0,1,.89,4.83c.13,2.74.16,3.56.16,10.49s0,7.76-.16,10.5a14.43,14.43,0,0,1-.89,4.82,8.56,8.56,0,0,1-4.93,4.93,14.19,14.19,0,0,1-4.83.89c-2.73.13-3.55.15-10.49.15s-7.76,0-10.49-.15a14.24,14.24,0,0,1-4.83-.89,8.56,8.56,0,0,1-4.93-4.93,14.43,14.43,0,0,1-.89-4.82c-.13-2.74-.15-3.57-.15-10.5s0-7.75.15-10.49a14.44,14.44,0,0,1,.89-4.83,8.18,8.18,0,0,1,1.94-3,8.26,8.26,0,0,1,3-1.94,14.5,14.5,0,0,1,4.83-.89c2.73-.13,3.56-.15,10.49-.15m0,7.95A13.34,13.34,0,1,0,63.34,50,13.34,13.34,0,0,0,50,36.66m0,22A8.66,8.66,0,1,1,58.66,50,8.66,8.66,0,0,1,50,58.66M67,36.13A3.12,3.12,0,1,1,63.86,33,3.12,3.12,0,0,1,67,36.13"/></g></svg>