<svg xmlns="http://www.w3.org/2000/svg" viewBox="0 0 100 100"><defs><style>.cls-1{fill:#ff4d49;}</style></defs><g id="Vrstva_1" data-name="Vrstva 1"><path class="cls-1" d="M76.09,24.49A1.06,1.06,0,0,0,76,24.3s0-.06,0-.09a1,1,0,0,0-.53-.52l-.09,0-.19-.05a68.84,68.84,0,0,0-15.46.46c-8,1.1-19.13,4.11-27.14,12.2-4.82,4.87-7.14,10-6.89,15.38.36,7.75,6,13.17,7.15,14.21l-8.95,9a1,1,0,0,0,0,1.42,1,1,0,0,0,1.41,0l9-9c1.06,1.16,6.54,6.73,14.28,7h.69c5.09,0,10-2.4,14.62-7.07,8-8.09,10.9-19.29,11.92-27.26A69.53,69.53,0,0,0,76.09,24.49ZM72.9,44.91,58.53,42.77,74.26,26.88A70.88,70.88,0,0,1,72.9,44.91ZM66.33,61.07,44.25,57.2,56.78,44.54l15.67,2.33A44.61,44.61,0,0,1,66.33,61.07Zm-23.5-5.28-4.1-22a44.67,44.67,0,0,1,14.13-6.28l2.49,15.65ZM60,26.06a72.45,72.45,0,0,1,12.88-.6L57.1,41.36,54.82,27C56.63,26.59,58.36,26.29,60,26.06ZM27.71,51.54C27.5,46.8,29.62,42.13,34,37.68a33.93,33.93,0,0,1,2.92-2.6l4.17,22.45-6.83,6.9C33.5,63.74,28,58.61,27.71,51.54ZM62.45,65.81c-4.4,4.45-9.05,6.62-13.79,6.46-7.07-.25-12.26-5.66-13-6.42l6.84-6.91L65,62.87A30.9,30.9,0,0,1,62.45,65.81Z"/></g></svg>