<svg xmlns="http://www.w3.org/2000/svg" viewBox="0 0 100 100"><g id="Vrstva_1" data-name="Vrstva 1" transform="translate(8.0000,22.0000) scale(0.054688)"><path class="cls-1" d="M 1156.018 174.117 C 1151.592 175.883, 1057.600 239.096, 1054.310 242.520 C 1046.965 250.163, 1047.571 257.371, 1056.880 273.088 C 1060.598 279.364, 1075.127 303.850, 1089.167 327.500 C 1117.169 374.669, 1155.190 439.017, 1178.979 479.500 C 1220.982 550.980, 1212.915 548.184, 1270.211 511.119 C 1330.597 472.054, 1328.767 473.310, 1331.610 469.014 C 1338.269 458.951, 1337.230 455.149, 1319.032 423 C 1314.206 414.475, 1303.156 394.900, 1294.475 379.500 C 1262.589 322.931, 1205.629 223.680, 1185.720 190 C 1176.464 174.340, 1167.489 169.541, 1156.018 174.117 M 372.145 175.018 C 364.722 178.156, 366.333 175.682, 314.506 263.500 C 199.577 458.242, 202.729 452.532, 204.993 461.969 C 206.664 468.936, 210.600 472.943, 225.289 482.631 C 311.334 539.384, 307.361 537, 315.869 537 C 327.847 537, 323.222 543.533, 389.192 433.423 C 421.460 379.565, 457.176 320.200, 468.562 301.500 C 495.342 257.519, 495.309 257.597, 491.110 248.500 C 488.533 242.916, 489.830 243.884, 436.022 207.405 L 387.544 174.540 381.022 174.281 C 377.435 174.139, 373.440 174.470, 372.145 175.018 M 825.500 222.596 C 785.441 229.687, 775.558 236.240, 709.257 299.670 C 628.725 376.714, 634.275 371.163, 631.278 377.660 C 615.887 411.022, 662.802 444.289, 699.280 425.880 C 703.484 423.759, 724.985 409.545, 753.496 390.040 C 778.397 373.004, 784.670 370.583, 804 370.547 C 822.433 370.512, 836.239 374.952, 853.389 386.428 C 862.281 392.379, 864.031 393.911, 929.953 453.449 C 954.951 476.027, 977.670 496.525, 980.437 499 C 985.598 503.615, 1087.554 596.820, 1098.687 607.100 C 1109.829 617.389, 1114.704 615.978, 1134.656 596.692 C 1156.046 576.016, 1174.590 552.045, 1177.015 541.936 C 1179.102 533.238, 1181.523 538.084, 1141.314 470.500 C 1129.206 450.150, 1108.371 415.050, 1095.013 392.500 C 1024.751 273.892, 1025.310 274.786, 1019.145 270.877 C 1011.053 265.745, 921.571 234.472, 893.500 226.966 C 871.412 221.059, 844.096 219.304, 825.500 222.596 M 661.705 263.044 C 656.868 264.087, 644.718 267.197, 634.705 269.955 C 592.819 281.494, 567.627 283.612, 539.818 277.931 C 522.555 274.405, 530.631 264.703, 473.580 357.500 C 396.507 482.866, 366.739 532.189, 365.713 536.231 C 363.565 544.694, 368.201 555.304, 380.386 569.807 C 387.594 578.388, 404.718 595.643, 405.335 594.948 C 405.554 594.702, 409.087 590.450, 413.188 585.500 C 449.763 541.348, 514.156 553.470, 526.377 606.808 L 527.681 612.500 535.091 612.175 C 565.838 610.828, 593.328 632.078, 599.571 662.021 C 601.526 671.395, 600.954 670.849, 608.238 670.294 C 637.240 668.083, 671 697.722, 671 725.394 C 671 727.990, 671.032 728, 679.250 728.017 C 731.530 728.127, 760.626 784.758, 730.974 828.693 L 727.903 833.244 730.202 834.862 C 753.345 851.156, 780.462 866.529, 790.193 868.871 C 822.987 876.762, 855.132 850.395, 851.454 818.621 C 850.896 813.799, 851.019 812.891, 852.137 813.570 C 852.887 814.025, 856.134 816.093, 859.354 818.166 C 895.994 841.752, 940.691 817.123, 938.791 774.396 C 938.330 764.032, 938.337 763.991, 940.414 765.327 C 984.766 793.862, 1036.750 757.916, 1020.010 710.287 C 1018.962 707.307, 1018.419 705.010, 1018.803 705.184 C 1019.186 705.358, 1022.614 707.269, 1026.421 709.432 C 1062.544 729.952, 1104.302 706.147, 1101.728 666.500 C 1100.760 651.593, 1095.235 641.560, 1080.455 627.875 C 1012.388 564.848, 857.261 424.934, 844.916 415.436 C 821.997 397.800, 797.675 394.253, 780.344 406.021 C 706.262 456.319, 702.816 458.160, 679.956 459.654 C 623.393 463.349, 582.775 406.012, 609.568 360.293 C 613.420 353.721, 657.472 309.879, 696.409 273.866 C 702.420 268.307, 702.476 268.206, 700.649 266.176 C 695.839 260.831, 678.460 259.433, 661.705 263.044 M 454.118 586.443 C 444.433 589.590, 421.186 612.805, 414.493 626.013 C 397.754 659.047, 434.350 693.688, 465.999 674.768 C 473.661 670.188, 495.948 644.275, 499.161 636.212 C 510.719 607.203, 483.337 576.948, 454.118 586.443 M 529.273 639.908 C 523.486 641.397, 515.274 646.144, 511.185 650.366 C 502.335 659.502, 477.701 688.736, 475.890 692.251 C 457.819 727.334, 495.195 762.954, 528.840 742.713 C 536.196 738.287, 566.968 702.354, 571.412 693 C 584.579 665.286, 558.474 632.395, 529.273 639.908 M 599 698.522 C 589.604 701.114, 583.776 706.091, 565.898 726.790 C 545.694 750.182, 543.637 753.931, 543.555 767.500 C 543.345 802.146, 584.914 817.916, 609.194 792.401 C 619.094 781.997, 638.965 757.990, 641.036 753.929 C 656.456 723.704, 630.713 689.773, 599 698.522 M 668.500 756.754 C 660.073 759.763, 654.804 764.289, 640.885 780.476 C 622.756 801.559, 620.500 805.923, 620.500 819.899 C 620.500 849.115, 649.149 865.698, 675.427 851.692 C 683.329 847.480, 708.839 818.193, 713.484 808 C 726.857 778.653, 698.294 746.114, 668.500 756.754"/></g></svg>