<svg xmlns="http://www.w3.org/2000/svg" viewBox="0 0 100 100"><g id="Vrstva_1" data-name="Vrstva 1"><path class="cls-1" d="M22.5,78V63a5.5,5.5,0,0,1,2.75-4.76l11.75-6.78a7.25,7.25,0,0,1,7.25,0l2.75,1.58V47.5a5.5,5.5,0,0,1,2.75-4.76l11.75-6.78a7.25,7.25,0,0,1,10.88,6.28V78H68.5a3.5,3.5,0,0,1-3.5-3.5V64.75L55.75,73.25a5.5,5.5,0,0,1-9.15,0L42.25,64.75V78a3.5,3.5,0,0,1-3.5,3.5H26A3.5,3.5,0,0,1,22.5,78Z"/><path class="cls-1" d="M19.5,54,29,38.25a7.25,7.25,0,0,1,12.56-7.25l6.75,3.9a3.5,3.5,0,0,0,3.5,0l6.25-3.62a7.25,7.25,0,0,1,10.88,6.28V57.25a1.75,1.75,0,0,1-1.75,1.75H60.75a1.75,1.75,0,0,1-1.75-1.75V54.25l-6.25,10.85a7.25,7.25,0,0,1-12.56,0L34,54.25V61H19.5a3.5,3.5,0,0,1-3.5-3.5V57.25A3.5,3.5,0,0,1,19.5,54Z"/></g></svg>
