<svg xmlns="http://www.w3.org/2000/svg" viewBox="0 0 100 100"><defs><style>.cls-1{fill:#ff4d49;}</style></defs><g id="Vrstva_1" data-name="Vrstva 1"><path class="cls-1" d="M40,66.56C14.51,61.28,15.58,49.14,18.43,27c4.67,8.07,38.78,8.44,31.78,37.2,0,0-4.85-9.65-10.25-13.86s-5.44-3.84-2.34.11S47.25,62.18,49,70.85C50.21,76.94,48,68.22,40,66.56Z"/><path class="cls-1" d="M58.33,69.24C76,73.34,78.66,65.26,83,50.29c-5.21,3.79-27-6-30.51,14.46,0,0,5.75-4.75,10.35-5.86s4.53-.86,1.46.76-9.14,4-12.34,8.77C50,71.41,52.76,68,58.33,69.24Z"/></g></svg>