<svg xmlns="http://www.w3.org/2000/svg" viewBox="0 0 100 100"><defs></defs><g id="Vrstva_1" data-name="Vrstva 1"><path class="cls-1" d="M65,62.78a6.11,6.11,0,1,0,6.09,6.11A6.1,6.1,0,0,0,65,62.78"/><path class="cls-1" d="M40.17,62.78H40L32.4,30.25A4.28,4.28,0,0,0,28.33,27H16.15a1.76,1.76,0,0,0,0,3.51H28.33a.84.84,0,0,1,.66.53L36.7,63.87a6.08,6.08,0,1,0,3.47-1.09"/><path class="cls-1" d="M75.91,34.76H35.45l1.84,7.77.39,1.66.16.67L40,53.77,41,58.33l0,.14.65,2.74H68.05a2.33,2.33,0,0,0,2.18-1.53l1.48-4.11L77,41,78.1,37.9a2.34,2.34,0,0,0-2.19-3.14"/></g></svg>