<svg xmlns="http://www.w3.org/2000/svg" viewBox="0 0 100 100"><g id="Vrstva_1" data-name="Vrstva 1"><path class="cls-1" d="M69.23,62.77a6.62,6.62,0,1,0,6.6,6.62,6.6,6.6,0,0,0-6.6-6.62"/><path class="cls-1" d="M42.33,62.77h-.14L33.91,27.51A4.64,4.64,0,0,0,29.49,24H16.3a1.91,1.91,0,0,0,0,3.81H29.49a.9.9,0,0,1,.73.57L38.57,64a6.6,6.6,0,1,0,3.76-1.18"/><path class="cls-1" d="M81.07,32.4H37.21l2,8.42.42,1.79.18.73L42.09,53l1.18,5,0,.14.7,3H72.55a2.51,2.51,0,0,0,2.36-1.66L76.52,55l5.72-15.81,1.2-3.34a2.53,2.53,0,0,0-2.37-3.4"/></g></svg>