<svg xmlns="http://www.w3.org/2000/svg" viewBox="0 0 100 100"><defs><style>.cls-1{fill:#ff4d49;}</style></defs><g id="Vrstva_1" data-name="Vrstva 1"><path class="cls-1" d="M58.2,51.48v7.77a1,1,0,0,0,1,1H66.5a1,1,0,0,0,1-1V49.32a9.44,9.44,0,0,0-9.4-9.45H51.58a11.06,11.06,0,0,0-5.45-5.13V28.19h2.41a3.6,3.6,0,1,0,0-7.19H36a3.6,3.6,0,1,0,0,7.19h2.4v6.2a11,11,0,0,0,0,20.89V76.61a1,1,0,0,0,1,1h5.76a1,1,0,0,0,1-1V54.93a11,11,0,0,0,5.73-5.72H56A2.26,2.26,0,0,1,58.2,51.48Zm-24-26.88A1.69,1.69,0,0,1,36,23H48.54a1.6,1.6,0,1,1,0,3.17H36A1.69,1.69,0,0,1,34.18,24.6Zm6.19,4.14h3.76V34.1a10.45,10.45,0,0,0-3.76-.16ZM44.13,75.6H40.37V55.73a10.45,10.45,0,0,0,3.76-.16ZM41.78,53.82a9,9,0,1,1,9-9A9,9,0,0,1,41.78,53.82ZM52.36,41.88H58.1a7.43,7.43,0,0,1,7.4,7.44v8.93H60.21V51.48A4.26,4.26,0,0,0,56,47.21H52.51a10.59,10.59,0,0,0-.15-5.33Z"/><path class="cls-1" d="M63.88,63.19a1,1,0,0,0-1.62,0c-.89,1.22-5.34,7.43-5.34,10.17a6.17,6.17,0,0,0,12.3,0C69.22,70.62,64.77,64.41,63.88,63.19ZM63.07,77a3.92,3.92,0,0,1-4.15-3.63c0-1.4,2.29-5.17,4.15-7.84C65,68.3,67.21,72,67.21,73.36A3.92,3.92,0,0,1,63.07,77Z"/></g></svg>