<svg xmlns="http://www.w3.org/2000/svg" viewBox="0 0 100 100"><defs><style>.cls-1{fill:#ff4d49;}</style></defs><g id="Vrstva_1" data-name="Vrstva 1"><path class="cls-1" d="M47.87,63.4s-6.93.82-10,.82-10-.82-10-.82V50.13A92.33,92.33,0,0,0,37.82,51a92.33,92.33,0,0,0,10-.82Zm1.88,10.87s-.19-25.22,0-27.85-1-7.18-3.83-11a8.33,8.33,0,0,1-1.76-6.14A3.72,3.72,0,0,0,45.87,26c0-2-1.34-3.61-3-3.61H32.76c-1.65,0-3,1.63-3,3.61a3.73,3.73,0,0,0,1.71,3.24,8.26,8.26,0,0,1-1.75,6.14c-2.79,3.85-4,8.41-3.83,11s0,27.85,0,27.85-.67,3.33,11.94,3.33,11.93-3.33,11.93-3.33"/><path class="cls-1" d="M72.28,66.68s-4.89.58-7.1.58-7.09-.58-7.09-.58V57.32a65,65,0,0,0,7.09.58,65.06,65.06,0,0,0,7.1-.58Zm1.84,8.42s-.15-18.92,0-20.89a14.38,14.38,0,0,0-2.86-8.28,6.36,6.36,0,0,1-1.35-4.37A2.92,2.92,0,0,0,71.2,39,2.58,2.58,0,0,0,69,36.2H61.4A2.59,2.59,0,0,0,59.16,39a2.94,2.94,0,0,0,1.31,2.54,6.39,6.39,0,0,1-1.34,4.37,14.33,14.33,0,0,0-2.87,8.28c.13,2,0,20.89,0,20.89s-.51,2.5,8.93,2.5,8.94-2.5,8.94-2.5"/></g></svg>