<svg xmlns="http://www.w3.org/2000/svg" viewBox="0 0 100 100"><g id="Vrstva_1" data-name="Vrstva 1"><path class="cls-1" d="M69.64,32.64v-.1a24,24,0,0,0-2.91-11,1,1,0,0,0-.87-.52H34.14a1,1,0,0,0-.87.52,24,24,0,0,0-2.91,11v.12s0,0,0,0C30.43,44.21,37.86,52,49,52.47V77H40.36a1,1,0,0,0,0,2h19.8a1,1,0,1,0,0-2H51V52.47C62.14,52,69.57,44.2,69.63,32.69c0,0,0,0,0,0ZM34.74,23H65.26a22.52,22.52,0,0,1,2.35,8.65H32.4A22.31,22.31,0,0,1,34.74,23ZM50,50.5c-10.34,0-17.12-6.57-17.59-16.83H67.59C67.12,43.93,60.34,50.5,50,50.5Z"/></g></svg>